<svg width="366" height="426" viewBox="0 0 366 426" fill="none" xmlns="http://www.w3.org/2000/svg">
<path d="M25.2944 397.336V408H24.3862L18.2559 398.889V408H17.355V397.336H18.2559L24.4009 406.447V397.336H25.2944ZM32.6333 406.579V402.492C32.6333 402.116 32.5552 401.792 32.3989 401.518C32.2427 401.245 32.0132 401.035 31.7104 400.888C31.4077 400.742 31.0342 400.668 30.5898 400.668C30.1797 400.668 29.8135 400.742 29.4912 400.888C29.1738 401.03 28.9224 401.223 28.7368 401.467C28.5562 401.706 28.4658 401.972 28.4658 402.265L27.5869 402.258C27.5869 401.96 27.6602 401.672 27.8066 401.394C27.9531 401.115 28.1606 400.866 28.4292 400.646C28.6978 400.427 29.0176 400.253 29.3887 400.126C29.7646 399.995 30.1772 399.929 30.6265 399.929C31.1929 399.929 31.6909 400.024 32.1206 400.214C32.5552 400.405 32.8945 400.69 33.1387 401.071C33.3828 401.452 33.5049 401.931 33.5049 402.507V406.337C33.5049 406.611 33.5244 406.894 33.5635 407.187C33.6074 407.48 33.6685 407.722 33.7466 407.912V408H32.8164C32.7578 407.824 32.7114 407.604 32.6772 407.341C32.6479 407.072 32.6333 406.818 32.6333 406.579ZM32.8384 403.386L32.853 404.06H31.1318C30.6826 404.06 30.2798 404.101 29.9233 404.184C29.5718 404.262 29.2739 404.379 29.0298 404.536C28.7856 404.687 28.5977 404.87 28.4658 405.085C28.3389 405.3 28.2754 405.544 28.2754 405.817C28.2754 406.101 28.3462 406.359 28.4878 406.594C28.6343 406.828 28.8394 407.016 29.103 407.158C29.3716 407.294 29.689 407.363 30.0552 407.363C30.5435 407.363 30.9731 407.272 31.3442 407.092C31.7202 406.911 32.0303 406.674 32.2744 406.381C32.5186 406.088 32.6821 405.769 32.7651 405.422L33.146 405.927C33.0825 406.171 32.9653 406.423 32.7944 406.682C32.6284 406.936 32.4111 407.175 32.1426 407.399C31.874 407.619 31.5566 407.8 31.1904 407.941C30.8291 408.078 30.4189 408.146 29.96 408.146C29.4424 408.146 28.9907 408.049 28.605 407.854C28.2241 407.658 27.9263 407.392 27.7114 407.055C27.5015 406.713 27.3965 406.328 27.3965 405.898C27.3965 405.507 27.4795 405.158 27.6455 404.851C27.8115 404.538 28.0508 404.274 28.3633 404.06C28.6807 403.84 29.0615 403.674 29.5059 403.562C29.9551 403.444 30.458 403.386 31.0146 403.386H32.8384ZM38.8516 400.075V400.793H34.8818V400.075H38.8516ZM36.3394 398.039H37.2109V406.074C37.2109 406.44 37.2598 406.716 37.3574 406.901C37.4551 407.087 37.582 407.211 37.7383 407.275C37.8945 407.338 38.063 407.37 38.2437 407.37C38.3755 407.37 38.5024 407.363 38.6245 407.348C38.7466 407.329 38.8564 407.309 38.9541 407.29L38.9907 408.029C38.8833 408.063 38.7441 408.09 38.5732 408.11C38.4023 408.134 38.2314 408.146 38.0605 408.146C37.7236 408.146 37.4258 408.085 37.167 407.963C36.9082 407.836 36.7056 407.622 36.5591 407.319C36.4126 407.011 36.3394 406.594 36.3394 406.066V398.039ZM41.6641 400.075V408H40.7925V400.075H41.6641ZM40.6387 397.783C40.6387 397.617 40.6899 397.478 40.7925 397.365C40.8999 397.248 41.0464 397.189 41.2319 397.189C41.4175 397.189 41.564 397.248 41.6714 397.365C41.7837 397.478 41.8398 397.617 41.8398 397.783C41.8398 397.944 41.7837 398.083 41.6714 398.2C41.564 398.312 41.4175 398.369 41.2319 398.369C41.0464 398.369 40.8999 398.312 40.7925 398.2C40.6899 398.083 40.6387 397.944 40.6387 397.783ZM46.3955 407.158L48.937 400.075H49.8379L46.8716 408H46.2344L46.3955 407.158ZM44.0957 400.075L46.6665 407.18L46.8057 408H46.1611L43.1875 400.075H44.0957ZM54.2397 408.146C53.7222 408.146 53.2461 408.051 52.8115 407.861C52.3818 407.67 52.0059 407.402 51.6836 407.055C51.3662 406.708 51.1196 406.298 50.9438 405.825C50.7729 405.346 50.6875 404.824 50.6875 404.257V403.942C50.6875 403.332 50.7778 402.78 50.9585 402.287C51.1392 401.794 51.3882 401.372 51.7056 401.02C52.0229 400.668 52.3843 400.4 52.7896 400.214C53.1997 400.024 53.6294 399.929 54.0786 399.929C54.5815 399.929 55.0283 400.019 55.4189 400.2C55.8096 400.375 56.1367 400.627 56.4004 400.954C56.6689 401.276 56.8716 401.66 57.0083 402.104C57.145 402.543 57.2134 403.029 57.2134 403.562V404.096H51.2148V403.349H56.3418V403.247C56.332 402.802 56.2417 402.387 56.0708 402.001C55.9048 401.611 55.6558 401.293 55.3237 401.049C54.9917 400.805 54.5767 400.683 54.0786 400.683C53.7075 400.683 53.3657 400.761 53.0532 400.917C52.7456 401.074 52.4795 401.298 52.2549 401.591C52.0352 401.879 51.8643 402.224 51.7422 402.624C51.625 403.02 51.5664 403.459 51.5664 403.942V404.257C51.5664 404.697 51.6299 405.107 51.7568 405.488C51.8887 405.864 52.0742 406.196 52.3135 406.484C52.5576 406.772 52.8457 406.997 53.1777 407.158C53.5098 407.319 53.876 407.399 54.2764 407.399C54.7451 407.399 55.1602 407.314 55.5215 407.143C55.8828 406.967 56.2075 406.691 56.4956 406.315L57.0449 406.74C56.874 406.994 56.6592 407.229 56.4004 407.443C56.1465 407.658 55.8413 407.829 55.4849 407.956C55.1284 408.083 54.7134 408.146 54.2397 408.146ZM65.5996 400.075V400.793H61.6299V400.075H65.5996ZM63.0874 398.039H63.959V406.074C63.959 406.44 64.0078 406.716 64.1055 406.901C64.2031 407.087 64.3301 407.211 64.4863 407.275C64.6426 407.338 64.811 407.37 64.9917 407.37C65.1235 407.37 65.2505 407.363 65.3726 407.348C65.4946 407.329 65.6045 407.309 65.7021 407.29L65.7388 408.029C65.6313 408.063 65.4922 408.09 65.3213 408.11C65.1504 408.134 64.9795 408.146 64.8086 408.146C64.4717 408.146 64.1738 408.085 63.915 407.963C63.6562 407.836 63.4536 407.622 63.3071 407.319C63.1606 407.011 63.0874 406.594 63.0874 406.066V398.039ZM66.8081 404.162V403.92C66.8081 403.344 66.8911 402.812 67.0571 402.324C67.2231 401.835 67.46 401.413 67.7676 401.057C68.0801 400.7 68.4536 400.424 68.8882 400.229C69.3228 400.029 69.8062 399.929 70.3384 399.929C70.8755 399.929 71.3613 400.029 71.7959 400.229C72.2305 400.424 72.604 400.7 72.9165 401.057C73.229 401.413 73.4683 401.835 73.6343 402.324C73.8003 402.812 73.8833 403.344 73.8833 403.92V404.162C73.8833 404.738 73.8003 405.271 73.6343 405.759C73.4683 406.242 73.229 406.662 72.9165 407.019C72.6089 407.375 72.2378 407.653 71.8032 407.854C71.3687 408.049 70.8853 408.146 70.353 408.146C69.8159 408.146 69.3301 408.049 68.8955 407.854C68.4609 407.653 68.0874 407.375 67.7749 407.019C67.4624 406.662 67.2231 406.242 67.0571 405.759C66.8911 405.271 66.8081 404.738 66.8081 404.162ZM67.6797 403.92V404.162C67.6797 404.597 67.7383 405.009 67.8555 405.4C67.9727 405.786 68.1436 406.13 68.3682 406.433C68.5928 406.73 68.8711 406.965 69.2031 407.136C69.5352 407.307 69.9185 407.392 70.353 407.392C70.7827 407.392 71.1611 407.307 71.4883 407.136C71.8203 406.965 72.0986 406.73 72.3232 406.433C72.5479 406.13 72.7163 405.786 72.8286 405.4C72.9458 405.009 73.0044 404.597 73.0044 404.162V403.92C73.0044 403.491 72.9458 403.083 72.8286 402.697C72.7163 402.312 72.5454 401.967 72.3159 401.665C72.0913 401.362 71.813 401.123 71.481 400.947C71.1489 400.771 70.7681 400.683 70.3384 400.683C69.9087 400.683 69.5278 400.771 69.1958 400.947C68.8687 401.123 68.5903 401.362 68.3608 401.665C68.1362 401.967 67.9653 402.312 67.8481 402.697C67.7358 403.083 67.6797 403.491 67.6797 403.92ZM86.21 404.675H87.1108C87.0376 405.393 86.8398 406.013 86.5176 406.535C86.1953 407.053 85.7559 407.451 85.1992 407.729C84.6426 408.007 83.9712 408.146 83.1851 408.146C82.5796 408.146 82.0303 408.032 81.5371 407.802C81.0488 407.573 80.6289 407.248 80.2773 406.828C79.9258 406.403 79.6548 405.896 79.4644 405.305C79.2739 404.714 79.1787 404.057 79.1787 403.334V402.001C79.1787 401.279 79.2739 400.625 79.4644 400.039C79.6548 399.448 79.9282 398.94 80.2847 398.515C80.6411 398.09 81.0684 397.763 81.5664 397.534C82.0645 397.304 82.626 397.189 83.251 397.189C84.0078 397.189 84.6621 397.329 85.2139 397.607C85.7656 397.88 86.2002 398.276 86.5176 398.793C86.8398 399.311 87.0376 399.936 87.1108 400.668H86.21C86.1416 400.092 85.9902 399.604 85.7559 399.204C85.5215 398.803 85.1968 398.498 84.7817 398.288C84.3716 398.073 83.8613 397.966 83.251 397.966C82.7529 397.966 82.3086 398.061 81.918 398.251C81.5273 398.442 81.1953 398.715 80.9219 399.072C80.6484 399.423 80.4385 399.846 80.292 400.339C80.1504 400.832 80.0796 401.381 80.0796 401.987V403.334C80.0796 403.92 80.1479 404.46 80.2847 404.953C80.4214 405.446 80.6216 405.874 80.8853 406.235C81.1538 406.596 81.481 406.877 81.8667 407.077C82.2524 407.277 82.6919 407.377 83.1851 407.377C83.8149 407.377 84.3398 407.277 84.7598 407.077C85.1846 406.872 85.5142 406.569 85.7485 406.169C85.9829 405.769 86.1367 405.271 86.21 404.675ZM88.6196 404.162V403.92C88.6196 403.344 88.7026 402.812 88.8687 402.324C89.0347 401.835 89.2715 401.413 89.5791 401.057C89.8916 400.7 90.2651 400.424 90.6997 400.229C91.1343 400.029 91.6177 399.929 92.1499 399.929C92.687 399.929 93.1729 400.029 93.6074 400.229C94.042 400.424 94.4155 400.7 94.728 401.057C95.0405 401.413 95.2798 401.835 95.4458 402.324C95.6118 402.812 95.6948 403.344 95.6948 403.92V404.162C95.6948 404.738 95.6118 405.271 95.4458 405.759C95.2798 406.242 95.0405 406.662 94.728 407.019C94.4204 407.375 94.0493 407.653 93.6147 407.854C93.1802 408.049 92.6968 408.146 92.1646 408.146C91.6274 408.146 91.1416 408.049 90.707 407.854C90.2725 407.653 89.8989 407.375 89.5864 407.019C89.2739 406.662 89.0347 406.242 88.8687 405.759C88.7026 405.271 88.6196 404.738 88.6196 404.162ZM89.4912 403.92V404.162C89.4912 404.597 89.5498 405.009 89.667 405.4C89.7842 405.786 89.9551 406.13 90.1797 406.433C90.4043 406.73 90.6826 406.965 91.0146 407.136C91.3467 407.307 91.73 407.392 92.1646 407.392C92.5942 407.392 92.9727 407.307 93.2998 407.136C93.6318 406.965 93.9102 406.73 94.1348 406.433C94.3594 406.13 94.5278 405.786 94.6401 405.4C94.7573 405.009 94.8159 404.597 94.8159 404.162V403.92C94.8159 403.491 94.7573 403.083 94.6401 402.697C94.5278 402.312 94.3569 401.967 94.1274 401.665C93.9028 401.362 93.6245 401.123 93.2925 400.947C92.9604 400.771 92.5796 400.683 92.1499 400.683C91.7202 400.683 91.3394 400.771 91.0073 400.947C90.6802 401.123 90.4019 401.362 90.1724 401.665C89.9478 401.967 89.7769 402.312 89.6597 402.697C89.5474 403.083 89.4912 403.491 89.4912 403.92ZM98.3828 401.767V408H97.5112V400.075H98.3462L98.3828 401.767ZM98.1851 403.547L97.7969 403.327C97.8262 402.858 97.9214 402.419 98.0825 402.009C98.2437 401.599 98.4609 401.237 98.7344 400.925C99.0127 400.612 99.3374 400.368 99.7085 400.192C100.084 400.017 100.5 399.929 100.954 399.929C101.349 399.929 101.703 399.982 102.016 400.09C102.328 400.197 102.594 400.368 102.814 400.603C103.034 400.837 103.2 401.137 103.312 401.503C103.429 401.87 103.488 402.316 103.488 402.844V408H102.609V402.836C102.609 402.29 102.533 401.862 102.382 401.555C102.23 401.242 102.016 401.02 101.737 400.888C101.459 400.756 101.129 400.69 100.749 400.69C100.329 400.69 99.96 400.783 99.6426 400.969C99.3301 401.149 99.0664 401.386 98.8516 401.679C98.6416 401.967 98.4805 402.277 98.3682 402.609C98.2559 402.937 98.1948 403.249 98.1851 403.547ZM110.973 400.075H111.786V407.861C111.786 408.549 111.654 409.14 111.391 409.633C111.132 410.126 110.763 410.505 110.285 410.769C109.811 411.032 109.252 411.164 108.607 411.164C108.28 411.164 107.943 411.113 107.597 411.01C107.255 410.913 106.93 410.761 106.623 410.556C106.32 410.356 106.061 410.107 105.846 409.809L106.337 409.274C106.659 409.665 107.003 409.951 107.37 410.131C107.736 410.317 108.131 410.41 108.556 410.41C109.059 410.41 109.484 410.31 109.831 410.109C110.182 409.909 110.448 409.621 110.629 409.245C110.814 408.869 110.907 408.417 110.907 407.89V401.818L110.973 400.075ZM105.407 404.118V403.964C105.407 403.349 105.475 402.795 105.612 402.302C105.753 401.804 105.956 401.379 106.22 401.027C106.483 400.671 106.803 400.4 107.179 400.214C107.56 400.024 107.99 399.929 108.468 399.929C108.927 399.929 109.335 400.004 109.691 400.156C110.048 400.307 110.355 400.524 110.614 400.808C110.873 401.091 111.081 401.428 111.237 401.818C111.398 402.209 111.515 402.644 111.588 403.122V405.078C111.53 405.527 111.422 405.939 111.266 406.315C111.11 406.687 110.902 407.011 110.644 407.29C110.385 407.563 110.072 407.775 109.706 407.927C109.345 408.073 108.927 408.146 108.454 408.146C107.98 408.146 107.555 408.049 107.179 407.854C106.803 407.658 106.483 407.382 106.22 407.026C105.956 406.665 105.753 406.237 105.612 405.744C105.475 405.251 105.407 404.709 105.407 404.118ZM106.286 403.964V404.118C106.286 404.582 106.332 405.012 106.425 405.407C106.518 405.803 106.659 406.147 106.85 406.44C107.04 406.733 107.282 406.962 107.575 407.128C107.868 407.294 108.212 407.377 108.607 407.377C109.11 407.377 109.533 407.282 109.875 407.092C110.216 406.896 110.487 406.64 110.688 406.323C110.888 406 111.034 405.649 111.127 405.268V402.99C111.073 402.731 110.99 402.468 110.878 402.199C110.771 401.931 110.619 401.684 110.424 401.459C110.233 401.23 109.989 401.047 109.691 400.91C109.398 400.769 109.042 400.698 108.622 400.698C108.222 400.698 107.873 400.781 107.575 400.947C107.282 401.113 107.04 401.345 106.85 401.643C106.659 401.936 106.518 402.28 106.425 402.675C106.332 403.071 106.286 403.5 106.286 403.964ZM113.595 404.162V403.92C113.595 403.344 113.678 402.812 113.844 402.324C114.01 401.835 114.247 401.413 114.555 401.057C114.867 400.7 115.241 400.424 115.675 400.229C116.11 400.029 116.593 399.929 117.125 399.929C117.663 399.929 118.148 400.029 118.583 400.229C119.018 400.424 119.391 400.7 119.704 401.057C120.016 401.413 120.255 401.835 120.421 402.324C120.587 402.812 120.67 403.344 120.67 403.92V404.162C120.67 404.738 120.587 405.271 120.421 405.759C120.255 406.242 120.016 406.662 119.704 407.019C119.396 407.375 119.025 407.653 118.59 407.854C118.156 408.049 117.672 408.146 117.14 408.146C116.603 408.146 116.117 408.049 115.683 407.854C115.248 407.653 114.875 407.375 114.562 407.019C114.25 406.662 114.01 406.242 113.844 405.759C113.678 405.271 113.595 404.738 113.595 404.162ZM114.467 403.92V404.162C114.467 404.597 114.525 405.009 114.643 405.4C114.76 405.786 114.931 406.13 115.155 406.433C115.38 406.73 115.658 406.965 115.99 407.136C116.322 407.307 116.706 407.392 117.14 407.392C117.57 407.392 117.948 407.307 118.275 407.136C118.607 406.965 118.886 406.73 119.11 406.433C119.335 406.13 119.503 405.786 119.616 405.4C119.733 405.009 119.792 404.597 119.792 404.162V403.92C119.792 403.491 119.733 403.083 119.616 402.697C119.503 402.312 119.333 401.967 119.103 401.665C118.878 401.362 118.6 401.123 118.268 400.947C117.936 400.771 117.555 400.683 117.125 400.683C116.696 400.683 116.315 400.771 115.983 400.947C115.656 401.123 115.377 401.362 115.148 401.665C114.923 401.967 114.752 402.312 114.635 402.697C114.523 403.083 114.467 403.491 114.467 403.92Z" fill="black"/>
<path d="M25.8906 384.188V388.531C25.7292 388.745 25.4766 388.979 25.1328 389.234C24.7943 389.484 24.3438 389.701 23.7812 389.883C23.2188 390.065 22.5182 390.156 21.6797 390.156C20.9661 390.156 20.3125 390.036 19.7188 389.797C19.125 389.552 18.612 389.195 18.1797 388.727C17.7526 388.258 17.4219 387.688 17.1875 387.016C16.9531 386.339 16.8359 385.568 16.8359 384.703V383.914C16.8359 383.055 16.9427 382.289 17.1562 381.617C17.375 380.94 17.6875 380.367 18.0938 379.898C18.5 379.43 18.9896 379.076 19.5625 378.836C20.1406 378.591 20.7943 378.469 21.5234 378.469C22.4557 378.469 23.2266 378.625 23.8359 378.938C24.4505 379.245 24.9245 379.672 25.2578 380.219C25.5911 380.766 25.8021 381.391 25.8906 382.094H23.9688C23.9062 381.698 23.7839 381.344 23.6016 381.031C23.4245 380.719 23.1693 380.474 22.8359 380.297C22.5078 380.115 22.0807 380.023 21.5547 380.023C21.1016 380.023 20.7031 380.109 20.3594 380.281C20.0156 380.453 19.7292 380.706 19.5 381.039C19.276 381.372 19.1068 381.779 18.9922 382.258C18.8776 382.737 18.8203 383.284 18.8203 383.898V384.703C18.8203 385.328 18.8854 385.883 19.0156 386.367C19.151 386.852 19.3438 387.26 19.5938 387.594C19.849 387.927 20.1589 388.18 20.5234 388.352C20.888 388.518 21.2995 388.602 21.7578 388.602C22.2057 388.602 22.5729 388.565 22.8594 388.492C23.1458 388.414 23.3724 388.323 23.5391 388.219C23.7109 388.109 23.8438 388.005 23.9375 387.906V385.648H21.5703V384.188H25.8906ZM37.1328 384V384.625C37.1328 385.484 37.0208 386.255 36.7969 386.938C36.5729 387.62 36.2526 388.201 35.8359 388.68C35.4245 389.159 34.9297 389.526 34.3516 389.781C33.7734 390.031 33.1328 390.156 32.4297 390.156C31.7318 390.156 31.0938 390.031 30.5156 389.781C29.9427 389.526 29.4453 389.159 29.0234 388.68C28.6016 388.201 28.2734 387.62 28.0391 386.938C27.8099 386.255 27.6953 385.484 27.6953 384.625V384C27.6953 383.141 27.8099 382.372 28.0391 381.695C28.2682 381.013 28.5911 380.432 29.0078 379.953C29.4297 379.469 29.9271 379.102 30.5 378.852C31.0781 378.596 31.7161 378.469 32.4141 378.469C33.1172 378.469 33.7578 378.596 34.3359 378.852C34.9141 379.102 35.4115 379.469 35.8281 379.953C36.2448 380.432 36.5651 381.013 36.7891 381.695C37.0182 382.372 37.1328 383.141 37.1328 384ZM35.1719 384.625V383.984C35.1719 383.349 35.1094 382.789 34.9844 382.305C34.8646 381.815 34.6849 381.406 34.4453 381.078C34.2109 380.745 33.9219 380.495 33.5781 380.328C33.2344 380.156 32.8464 380.07 32.4141 380.07C31.9818 380.07 31.5964 380.156 31.2578 380.328C30.9193 380.495 30.6302 380.745 30.3906 381.078C30.1562 381.406 29.9766 381.815 29.8516 382.305C29.7266 382.789 29.6641 383.349 29.6641 383.984V384.625C29.6641 385.26 29.7266 385.823 29.8516 386.312C29.9766 386.802 30.1589 387.216 30.3984 387.555C30.6432 387.888 30.9349 388.141 31.2734 388.312C31.612 388.479 31.9974 388.562 32.4297 388.562C32.8672 388.562 33.2552 388.479 33.5938 388.312C33.9323 388.141 34.2188 387.888 34.4531 387.555C34.6875 387.216 34.8646 386.802 34.9844 386.312C35.1094 385.823 35.1719 385.26 35.1719 384.625ZM39.0938 378.625H43.1172C43.9818 378.625 44.7188 378.755 45.3281 379.016C45.9375 379.276 46.4036 379.661 46.7266 380.172C47.0547 380.677 47.2188 381.302 47.2188 382.047C47.2188 382.615 47.1146 383.115 46.9062 383.547C46.6979 383.979 46.4036 384.344 46.0234 384.641C45.6432 384.932 45.1901 385.159 44.6641 385.32L44.0703 385.609H40.4531L40.4375 384.055H43.1484C43.6172 384.055 44.0078 383.971 44.3203 383.805C44.6328 383.638 44.8672 383.411 45.0234 383.125C45.1849 382.833 45.2656 382.505 45.2656 382.141C45.2656 381.745 45.1875 381.401 45.0312 381.109C44.8802 380.812 44.6458 380.586 44.3281 380.43C44.0104 380.268 43.6068 380.188 43.1172 380.188H41.0547V390H39.0938V378.625ZM45.5859 390L42.9141 384.891L44.9688 384.883L47.6797 389.898V390H45.5859ZM51.2656 378.625V390H49.3047V378.625H51.2656ZM60.8281 388.445V390H55.1172V388.445H60.8281ZM55.6641 378.625V390H53.7031V378.625H55.6641ZM69.4688 388.445V390H63.7578V388.445H69.4688ZM64.3047 378.625V390H62.3438V378.625H64.3047ZM75.5703 380.141L72.1719 390H70.1172L74.3984 378.625H75.7109L75.5703 380.141ZM78.4141 390L75.0078 380.141L74.8594 378.625H76.1797L80.4766 390H78.4141ZM78.25 385.781V387.336H72.0625V385.781H78.25ZM87.7344 387.07C87.7344 386.836 87.6979 386.628 87.625 386.445C87.5573 386.263 87.4349 386.096 87.2578 385.945C87.0807 385.794 86.8307 385.648 86.5078 385.508C86.1901 385.362 85.7839 385.214 85.2891 385.062C84.7474 384.896 84.2474 384.711 83.7891 384.508C83.3359 384.299 82.9401 384.06 82.6016 383.789C82.263 383.513 82 383.198 81.8125 382.844C81.625 382.484 81.5312 382.07 81.5312 381.602C81.5312 381.138 81.6276 380.716 81.8203 380.336C82.0182 379.956 82.2969 379.628 82.6562 379.352C83.0208 379.07 83.4505 378.854 83.9453 378.703C84.4401 378.547 84.987 378.469 85.5859 378.469C86.4297 378.469 87.1562 378.625 87.7656 378.938C88.3802 379.25 88.8516 379.669 89.1797 380.195C89.513 380.721 89.6797 381.302 89.6797 381.938H87.7344C87.7344 381.562 87.6536 381.232 87.4922 380.945C87.3359 380.654 87.0964 380.424 86.7734 380.258C86.4557 380.091 86.0521 380.008 85.5625 380.008C85.099 380.008 84.7135 380.078 84.4062 380.219C84.099 380.359 83.8698 380.549 83.7188 380.789C83.5677 381.029 83.4922 381.299 83.4922 381.602C83.4922 381.815 83.5417 382.01 83.6406 382.188C83.7396 382.359 83.8906 382.521 84.0938 382.672C84.2969 382.818 84.5521 382.956 84.8594 383.086C85.1667 383.216 85.5286 383.341 85.9453 383.461C86.5755 383.648 87.125 383.857 87.5938 384.086C88.0625 384.31 88.4531 384.565 88.7656 384.852C89.0781 385.138 89.3125 385.464 89.4688 385.828C89.625 386.188 89.7031 386.596 89.7031 387.055C89.7031 387.534 89.6068 387.966 89.4141 388.352C89.2214 388.732 88.9453 389.057 88.5859 389.328C88.2318 389.594 87.8047 389.799 87.3047 389.945C86.8099 390.086 86.2578 390.156 85.6484 390.156C85.1016 390.156 84.5625 390.083 84.0312 389.938C83.5052 389.792 83.026 389.57 82.5938 389.273C82.1615 388.971 81.8177 388.596 81.5625 388.148C81.3073 387.695 81.1797 387.167 81.1797 386.562H83.1406C83.1406 386.932 83.2031 387.247 83.3281 387.508C83.4583 387.768 83.638 387.982 83.8672 388.148C84.0964 388.31 84.362 388.43 84.6641 388.508C84.9714 388.586 85.2995 388.625 85.6484 388.625C86.1068 388.625 86.4896 388.56 86.7969 388.43C87.1094 388.299 87.3438 388.117 87.5 387.883C87.6562 387.648 87.7344 387.378 87.7344 387.07Z" fill="black"/>
<path fill-rule="evenodd" clip-rule="evenodd" d="M345.398 407.625C344.937 405.981 343.564 404.05 342.494 401.964C343.411 403.752 344.328 405.539 345.398 407.625ZM347.982 407.437C346.455 405.208 345.536 402.67 344.617 400.132C343.855 399.393 343.248 399.702 342.64 400.011C341.578 400.927 340.515 401.093 341.733 401.975C343.26 404.204 344.33 406.29 345.096 408.53C345.4 408.375 346.007 408.066 346.311 407.912C346.918 407.602 347.069 407.15 347.982 407.437ZM341.424 399.879C340.963 398.235 339.589 396.304 338.519 394.218C339.436 396.006 340.354 397.793 341.424 399.879ZM337.296 391.835C336.989 390.488 335.462 388.26 334.545 386.472C335.462 388.26 336.226 389.749 337.449 392.133C337.449 392.133 337.449 392.133 337.296 391.835ZM339.881 391.647C338.507 389.716 337.588 387.178 336.516 384.342C335.906 383.901 335.299 384.21 334.692 384.519C333.63 385.435 332.566 385.6 333.785 386.483C335.158 388.414 336.381 390.797 337.148 393.038C337.451 392.883 338.059 392.574 338.362 392.419C338.817 391.812 339.12 391.658 339.881 391.647ZM333.322 384.089C333.014 382.742 331.488 380.513 330.571 378.726C331.488 380.513 332.252 382.003 333.475 384.386L333.322 384.089ZM335.906 383.901C334.533 381.97 333.613 379.432 332.541 376.596C331.932 376.155 331.325 376.464 330.717 376.773C329.656 377.689 328.439 377.556 329.811 378.737C331.184 380.668 332.407 383.051 333.173 385.291C333.477 385.137 334.084 384.828 334.235 384.375C334.842 384.066 335.146 383.912 335.906 383.901ZM335.322 392.464C334.105 392.332 333.192 392.045 331.975 391.913C333.192 392.045 333.952 392.034 335.322 392.464C333.496 391.89 332.126 391.46 330.453 391.185C331.822 391.615 333.039 391.747 334.865 392.321C332.886 391.449 331.213 391.173 329.691 390.445C331.06 390.875 332.43 391.306 334.409 392.177C332.733 391.151 330.907 390.578 329.081 390.004C330.907 390.578 332.886 391.449 335.322 392.464C335.778 392.607 335.778 392.607 335.322 392.464ZM334.714 392.773C334.714 392.773 334.411 392.928 334.258 392.63C331.977 392.663 330.001 392.542 328.177 392.719C329.85 392.994 331.674 392.818 333.498 392.641C331.674 392.818 330.153 392.84 328.786 393.16C330.306 393.138 332.13 392.961 333.954 392.784C332.434 392.806 331.066 393.127 329.699 393.447C331.523 393.27 332.89 392.95 334.411 392.928C333.347 393.093 332.283 393.259 331.219 393.425C332.283 393.259 333.347 393.093 334.411 392.928C334.714 392.773 334.714 392.773 334.714 392.773ZM335.632 394.561C335.024 394.87 334.57 395.477 333.659 395.94C334.266 395.631 334.721 395.024 335.632 394.561C334.721 395.024 333.659 395.94 332.748 396.404C333.659 395.94 334.417 395.179 335.328 394.715C334.113 395.333 332.899 395.951 331.837 396.867C332.595 396.106 333.81 395.488 335.024 394.87C333.81 395.488 332.595 396.106 331.38 396.724C332.595 396.106 333.96 395.035 335.479 394.263C335.782 394.108 335.935 394.406 335.632 394.561ZM335.784 394.858C335.481 395.013 335.481 395.013 335.481 395.013C334.268 396.382 333.359 397.596 332.754 398.655C333.359 397.596 334.268 396.382 335.026 395.62C334.421 396.679 333.663 397.441 333.058 398.5C333.663 397.441 334.572 396.227 335.177 395.168C334.572 396.227 334.27 397.132 333.816 397.739C334.27 397.132 334.876 396.072 335.481 395.013C335.179 395.918 334.725 396.525 334.574 396.977C335.028 396.37 335.026 395.62 335.481 395.013L335.784 394.858ZM336.542 394.097C336.846 393.942 336.846 393.942 337.15 393.788C337.303 394.086 337.303 394.086 337.759 394.229C339.286 396.458 340.356 398.544 341.122 400.784C341.426 400.629 342.033 400.32 342.337 400.165C342.791 399.558 343.095 399.404 343.855 399.393C342.481 397.462 341.562 394.924 340.49 392.088C339.881 391.647 339.273 391.956 338.666 392.265C337.908 393.026 337.148 393.038 336.997 393.49C336.844 393.192 336.388 393.049 336.235 392.751C336.082 392.453 335.625 392.309 334.863 391.57C332.884 390.699 329.689 389.695 328.016 389.419C328.474 390.313 330.909 391.328 332.888 392.199C330.912 392.078 328.327 392.266 326.809 393.039C328.332 393.767 333.956 393.535 335.627 393.06C335.627 393.06 335.931 392.905 336.084 393.203C336.54 393.347 336.997 393.49 337.15 393.788C336.846 393.942 336.542 394.097 336.086 393.954C336.086 393.954 335.782 394.108 335.175 394.417C333.504 394.892 331.531 396.272 330.47 397.188C331.383 397.474 333.204 396.547 334.57 395.477C333.661 396.691 332.601 398.357 331.996 399.416C333.363 399.096 335.786 395.609 335.935 394.406C336.239 394.251 336.239 394.251 336.542 394.097Z" fill="#468E0D"/>
<path d="M349.174 386.239L349.178 386.225L349.178 386.211L349.082 380.153L349.082 380.143L349.08 380.133C349.031 379.911 349.138 379.696 349.374 379.522C349.61 379.348 349.962 379.228 350.354 379.205C351.129 379.159 352.032 379.494 352.473 380.498C352.284 381.374 352.177 382.238 352.071 383.097L352.07 383.099C351.963 383.971 351.855 384.837 351.665 385.714L351.655 385.756L351.68 385.792C354.141 389.377 354.411 393.285 353.199 396.818C351.985 400.353 349.285 403.515 345.803 405.594C342.322 407.673 338.066 408.667 333.742 407.874C329.425 407.082 325.032 404.505 321.273 399.43C321.134 398.848 321.078 398.362 321.108 397.975C321.138 397.583 321.255 397.302 321.452 397.12C321.649 396.937 321.941 396.838 322.352 396.843C322.763 396.848 323.284 396.957 323.925 397.182C334.417 401.538 346.039 397.47 349.174 386.239Z" fill="#FFEE2E" stroke="#468E0D" stroke-width="0.2"/>
<rect x="0.5" y="0.5" width="365" height="425" rx="4.5" stroke="url(#paint0_linear_126_32)"/>
<defs>
<linearGradient id="paint0_linear_126_32" x1="-16.2152" y1="63.1111" x2="444.96" y2="239.218" gradientUnits="userSpaceOnUse">
<stop stop-color="#FA6F32"/>
<stop offset="1" stop-color="#FE9013"/>
</linearGradient>
</defs>
</svg>
