<svg width="370" height="434" viewBox="0 0 370 434" fill="none" xmlns="http://www.w3.org/2000/svg">
<g filter="url(#filter0_d_126_33)">
<path d="M25.2944 397.336V408H24.3862L18.2559 398.889V408H17.355V397.336H18.2559L24.4009 406.447V397.336H25.2944ZM32.6333 406.579V402.492C32.6333 402.116 32.5552 401.792 32.3989 401.518C32.2427 401.245 32.0132 401.035 31.7104 400.888C31.4077 400.742 31.0342 400.668 30.5898 400.668C30.1797 400.668 29.8135 400.742 29.4912 400.888C29.1738 401.03 28.9224 401.223 28.7368 401.467C28.5562 401.706 28.4658 401.972 28.4658 402.265L27.5869 402.258C27.5869 401.96 27.6602 401.672 27.8066 401.394C27.9531 401.115 28.1606 400.866 28.4292 400.646C28.6978 400.427 29.0176 400.253 29.3887 400.126C29.7646 399.995 30.1772 399.929 30.6265 399.929C31.1929 399.929 31.6909 400.024 32.1206 400.214C32.5552 400.405 32.8945 400.69 33.1387 401.071C33.3828 401.452 33.5049 401.931 33.5049 402.507V406.337C33.5049 406.611 33.5244 406.894 33.5635 407.187C33.6074 407.48 33.6685 407.722 33.7466 407.912V408H32.8164C32.7578 407.824 32.7114 407.604 32.6772 407.341C32.6479 407.072 32.6333 406.818 32.6333 406.579ZM32.8384 403.386L32.853 404.06H31.1318C30.6826 404.06 30.2798 404.101 29.9233 404.184C29.5718 404.262 29.2739 404.379 29.0298 404.536C28.7856 404.687 28.5977 404.87 28.4658 405.085C28.3389 405.3 28.2754 405.544 28.2754 405.817C28.2754 406.101 28.3462 406.359 28.4878 406.594C28.6343 406.828 28.8394 407.016 29.103 407.158C29.3716 407.294 29.689 407.363 30.0552 407.363C30.5435 407.363 30.9731 407.272 31.3442 407.092C31.7202 406.911 32.0303 406.674 32.2744 406.381C32.5186 406.088 32.6821 405.769 32.7651 405.422L33.146 405.927C33.0825 406.171 32.9653 406.423 32.7944 406.682C32.6284 406.936 32.4111 407.175 32.1426 407.399C31.874 407.619 31.5566 407.8 31.1904 407.941C30.8291 408.078 30.4189 408.146 29.96 408.146C29.4424 408.146 28.9907 408.049 28.605 407.854C28.2241 407.658 27.9263 407.392 27.7114 407.055C27.5015 406.713 27.3965 406.328 27.3965 405.898C27.3965 405.507 27.4795 405.158 27.6455 404.851C27.8115 404.538 28.0508 404.274 28.3633 404.06C28.6807 403.84 29.0615 403.674 29.5059 403.562C29.9551 403.444 30.458 403.386 31.0146 403.386H32.8384ZM38.8516 400.075V400.793H34.8818V400.075H38.8516ZM36.3394 398.039H37.2109V406.074C37.2109 406.44 37.2598 406.716 37.3574 406.901C37.4551 407.087 37.582 407.211 37.7383 407.275C37.8945 407.338 38.063 407.37 38.2437 407.37C38.3755 407.37 38.5024 407.363 38.6245 407.348C38.7466 407.329 38.8564 407.309 38.9541 407.29L38.9907 408.029C38.8833 408.063 38.7441 408.09 38.5732 408.11C38.4023 408.134 38.2314 408.146 38.0605 408.146C37.7236 408.146 37.4258 408.085 37.167 407.963C36.9082 407.836 36.7056 407.622 36.5591 407.319C36.4126 407.011 36.3394 406.594 36.3394 406.066V398.039ZM41.6641 400.075V408H40.7925V400.075H41.6641ZM40.6387 397.783C40.6387 397.617 40.6899 397.478 40.7925 397.365C40.8999 397.248 41.0464 397.189 41.2319 397.189C41.4175 397.189 41.564 397.248 41.6714 397.365C41.7837 397.478 41.8398 397.617 41.8398 397.783C41.8398 397.944 41.7837 398.083 41.6714 398.2C41.564 398.312 41.4175 398.369 41.2319 398.369C41.0464 398.369 40.8999 398.312 40.7925 398.2C40.6899 398.083 40.6387 397.944 40.6387 397.783ZM46.3955 407.158L48.937 400.075H49.8379L46.8716 408H46.2344L46.3955 407.158ZM44.0957 400.075L46.6665 407.18L46.8057 408H46.1611L43.1875 400.075H44.0957ZM54.2397 408.146C53.7222 408.146 53.2461 408.051 52.8115 407.861C52.3818 407.67 52.0059 407.402 51.6836 407.055C51.3662 406.708 51.1196 406.298 50.9438 405.825C50.7729 405.346 50.6875 404.824 50.6875 404.257V403.942C50.6875 403.332 50.7778 402.78 50.9585 402.287C51.1392 401.794 51.3882 401.372 51.7056 401.02C52.0229 400.668 52.3843 400.4 52.7896 400.214C53.1997 400.024 53.6294 399.929 54.0786 399.929C54.5815 399.929 55.0283 400.019 55.4189 400.2C55.8096 400.375 56.1367 400.627 56.4004 400.954C56.6689 401.276 56.8716 401.66 57.0083 402.104C57.145 402.543 57.2134 403.029 57.2134 403.562V404.096H51.2148V403.349H56.3418V403.247C56.332 402.802 56.2417 402.387 56.0708 402.001C55.9048 401.611 55.6558 401.293 55.3237 401.049C54.9917 400.805 54.5767 400.683 54.0786 400.683C53.7075 400.683 53.3657 400.761 53.0532 400.917C52.7456 401.074 52.4795 401.298 52.2549 401.591C52.0352 401.879 51.8643 402.224 51.7422 402.624C51.625 403.02 51.5664 403.459 51.5664 403.942V404.257C51.5664 404.697 51.6299 405.107 51.7568 405.488C51.8887 405.864 52.0742 406.196 52.3135 406.484C52.5576 406.772 52.8457 406.997 53.1777 407.158C53.5098 407.319 53.876 407.399 54.2764 407.399C54.7451 407.399 55.1602 407.314 55.5215 407.143C55.8828 406.967 56.2075 406.691 56.4956 406.315L57.0449 406.74C56.874 406.994 56.6592 407.229 56.4004 407.443C56.1465 407.658 55.8413 407.829 55.4849 407.956C55.1284 408.083 54.7134 408.146 54.2397 408.146ZM65.5996 400.075V400.793H61.6299V400.075H65.5996ZM63.0874 398.039H63.959V406.074C63.959 406.44 64.0078 406.716 64.1055 406.901C64.2031 407.087 64.3301 407.211 64.4863 407.275C64.6426 407.338 64.811 407.37 64.9917 407.37C65.1235 407.37 65.2505 407.363 65.3726 407.348C65.4946 407.329 65.6045 407.309 65.7021 407.29L65.7388 408.029C65.6313 408.063 65.4922 408.09 65.3213 408.11C65.1504 408.134 64.9795 408.146 64.8086 408.146C64.4717 408.146 64.1738 408.085 63.915 407.963C63.6562 407.836 63.4536 407.622 63.3071 407.319C63.1606 407.011 63.0874 406.594 63.0874 406.066V398.039ZM66.8081 404.162V403.92C66.8081 403.344 66.8911 402.812 67.0571 402.324C67.2231 401.835 67.46 401.413 67.7676 401.057C68.0801 400.7 68.4536 400.424 68.8882 400.229C69.3228 400.029 69.8062 399.929 70.3384 399.929C70.8755 399.929 71.3613 400.029 71.7959 400.229C72.2305 400.424 72.604 400.7 72.9165 401.057C73.229 401.413 73.4683 401.835 73.6343 402.324C73.8003 402.812 73.8833 403.344 73.8833 403.92V404.162C73.8833 404.738 73.8003 405.271 73.6343 405.759C73.4683 406.242 73.229 406.662 72.9165 407.019C72.6089 407.375 72.2378 407.653 71.8032 407.854C71.3687 408.049 70.8853 408.146 70.353 408.146C69.8159 408.146 69.3301 408.049 68.8955 407.854C68.4609 407.653 68.0874 407.375 67.7749 407.019C67.4624 406.662 67.2231 406.242 67.0571 405.759C66.8911 405.271 66.8081 404.738 66.8081 404.162ZM67.6797 403.92V404.162C67.6797 404.597 67.7383 405.009 67.8555 405.4C67.9727 405.786 68.1436 406.13 68.3682 406.433C68.5928 406.73 68.8711 406.965 69.2031 407.136C69.5352 407.307 69.9185 407.392 70.353 407.392C70.7827 407.392 71.1611 407.307 71.4883 407.136C71.8203 406.965 72.0986 406.73 72.3232 406.433C72.5479 406.13 72.7163 405.786 72.8286 405.4C72.9458 405.009 73.0044 404.597 73.0044 404.162V403.92C73.0044 403.491 72.9458 403.083 72.8286 402.697C72.7163 402.312 72.5454 401.967 72.3159 401.665C72.0913 401.362 71.813 401.123 71.481 400.947C71.1489 400.771 70.7681 400.683 70.3384 400.683C69.9087 400.683 69.5278 400.771 69.1958 400.947C68.8687 401.123 68.5903 401.362 68.3608 401.665C68.1362 401.967 67.9653 402.312 67.8481 402.697C67.7358 403.083 67.6797 403.491 67.6797 403.92ZM85.6021 405.378C85.6021 405.085 85.5532 404.824 85.4556 404.594C85.3579 404.365 85.1968 404.16 84.9722 403.979C84.7524 403.793 84.4546 403.623 84.0786 403.466C83.7075 403.305 83.2437 403.146 82.687 402.99C82.1548 402.839 81.6738 402.673 81.2441 402.492C80.8145 402.312 80.4458 402.104 80.1382 401.87C79.8354 401.635 79.6035 401.362 79.4424 401.049C79.2812 400.732 79.2007 400.363 79.2007 399.943C79.2007 399.533 79.2886 399.16 79.4644 398.823C79.6401 398.486 79.8867 398.195 80.2041 397.951C80.5264 397.707 80.9048 397.519 81.3394 397.387C81.7788 397.255 82.2598 397.189 82.7822 397.189C83.5293 397.189 84.1738 397.331 84.7158 397.614C85.2627 397.897 85.6851 398.281 85.9829 398.764C86.2856 399.243 86.437 399.78 86.437 400.375H85.5361C85.5361 399.912 85.4263 399.499 85.2065 399.138C84.9917 398.771 84.6792 398.486 84.269 398.281C83.8638 398.071 83.3682 397.966 82.7822 397.966C82.1963 397.966 81.7031 398.056 81.3027 398.237C80.9072 398.413 80.6069 398.649 80.4019 398.947C80.2017 399.24 80.1016 399.567 80.1016 399.929C80.1016 400.183 80.1504 400.417 80.248 400.632C80.3457 400.842 80.5044 401.04 80.7241 401.225C80.9487 401.406 81.2441 401.577 81.6104 401.738C81.9766 401.894 82.4282 402.043 82.9653 402.185C83.5317 402.341 84.0347 402.514 84.4741 402.705C84.9136 402.895 85.2847 403.115 85.5874 403.364C85.8901 403.608 86.1196 403.894 86.2759 404.221C86.4321 404.548 86.5103 404.929 86.5103 405.363C86.5103 405.798 86.4175 406.188 86.2319 406.535C86.0513 406.877 85.7949 407.167 85.4629 407.407C85.1357 407.646 84.7476 407.829 84.2983 407.956C83.854 408.083 83.3682 408.146 82.8408 408.146C82.3672 408.146 81.896 408.085 81.4272 407.963C80.9585 407.841 80.5288 407.653 80.1382 407.399C79.7524 407.141 79.4424 406.809 79.208 406.403C78.9785 405.998 78.8638 405.515 78.8638 404.953H79.7573C79.7573 405.402 79.8477 405.781 80.0283 406.088C80.209 406.396 80.4482 406.645 80.7461 406.835C81.0488 407.026 81.3809 407.165 81.7422 407.253C82.1084 407.336 82.4746 407.377 82.8408 407.377C83.4023 407.377 83.8882 407.294 84.2983 407.128C84.7134 406.962 85.0332 406.73 85.2578 406.433C85.4873 406.13 85.6021 405.778 85.6021 405.378ZM87.77 404.162V403.92C87.77 403.344 87.853 402.812 88.019 402.324C88.1851 401.835 88.4219 401.413 88.7295 401.057C89.042 400.7 89.4155 400.424 89.8501 400.229C90.2847 400.029 90.7681 399.929 91.3003 399.929C91.8374 399.929 92.3232 400.029 92.7578 400.229C93.1924 400.424 93.5659 400.7 93.8784 401.057C94.1909 401.413 94.4302 401.835 94.5962 402.324C94.7622 402.812 94.8452 403.344 94.8452 403.92V404.162C94.8452 404.738 94.7622 405.271 94.5962 405.759C94.4302 406.242 94.1909 406.662 93.8784 407.019C93.5708 407.375 93.1997 407.653 92.7651 407.854C92.3306 408.049 91.8472 408.146 91.3149 408.146C90.7778 408.146 90.292 408.049 89.8574 407.854C89.4229 407.653 89.0493 407.375 88.7368 407.019C88.4243 406.662 88.1851 406.242 88.019 405.759C87.853 405.271 87.77 404.738 87.77 404.162ZM88.6416 403.92V404.162C88.6416 404.597 88.7002 405.009 88.8174 405.4C88.9346 405.786 89.1055 406.13 89.3301 406.433C89.5547 406.73 89.833 406.965 90.165 407.136C90.4971 407.307 90.8804 407.392 91.3149 407.392C91.7446 407.392 92.123 407.307 92.4502 407.136C92.7822 406.965 93.0605 406.73 93.2852 406.433C93.5098 406.13 93.6782 405.786 93.7905 405.4C93.9077 405.009 93.9663 404.597 93.9663 404.162V403.92C93.9663 403.491 93.9077 403.083 93.7905 402.697C93.6782 402.312 93.5073 401.967 93.2778 401.665C93.0532 401.362 92.7749 401.123 92.4429 400.947C92.1108 400.771 91.73 400.683 91.3003 400.683C90.8706 400.683 90.4897 400.771 90.1577 400.947C89.8306 401.123 89.5522 401.362 89.3228 401.665C89.0981 401.967 88.9272 402.312 88.8101 402.697C88.6978 403.083 88.6416 403.491 88.6416 403.92ZM101.737 406.169V400.075H102.616V408H101.774L101.737 406.169ZM101.898 404.704L102.353 404.689C102.353 405.188 102.294 405.646 102.177 406.066C102.06 406.486 101.876 406.853 101.627 407.165C101.378 407.478 101.056 407.719 100.661 407.89C100.265 408.061 99.7891 408.146 99.2324 408.146C98.8467 408.146 98.4927 408.093 98.1704 407.985C97.853 407.873 97.5796 407.697 97.3501 407.458C97.1206 407.219 96.9424 406.909 96.8154 406.528C96.6934 406.147 96.6323 405.686 96.6323 405.144V400.075H97.5039V405.158C97.5039 405.583 97.5503 405.937 97.6431 406.22C97.7407 406.503 97.8726 406.73 98.0386 406.901C98.2095 407.072 98.4048 407.194 98.6245 407.268C98.8442 407.341 99.0811 407.377 99.335 407.377C99.9795 407.377 100.487 407.253 100.858 407.004C101.234 406.755 101.5 406.428 101.657 406.022C101.818 405.612 101.898 405.173 101.898 404.704ZM107.904 400.075V400.793H103.935V400.075H107.904ZM105.392 398.039H106.264V406.074C106.264 406.44 106.312 406.716 106.41 406.901C106.508 407.087 106.635 407.211 106.791 407.275C106.947 407.338 107.116 407.37 107.296 407.37C107.428 407.37 107.555 407.363 107.677 407.348C107.799 407.329 107.909 407.309 108.007 407.29L108.043 408.029C107.936 408.063 107.797 408.09 107.626 408.11C107.455 408.134 107.284 408.146 107.113 408.146C106.776 408.146 106.479 408.085 106.22 407.963C105.961 407.836 105.758 407.622 105.612 407.319C105.465 407.011 105.392 406.594 105.392 406.066V398.039ZM110.614 396.75V408H109.743V396.75H110.614ZM110.417 403.547L110.028 403.327C110.058 402.858 110.153 402.419 110.314 402.009C110.475 401.599 110.692 401.237 110.966 400.925C111.244 400.612 111.569 400.368 111.94 400.192C112.316 400.017 112.731 399.929 113.185 399.929C113.581 399.929 113.935 399.982 114.247 400.09C114.56 400.197 114.826 400.368 115.045 400.603C115.265 400.837 115.431 401.137 115.543 401.503C115.661 401.87 115.719 402.316 115.719 402.844V408H114.84V402.836C114.84 402.29 114.765 401.862 114.613 401.555C114.462 401.242 114.247 401.02 113.969 400.888C113.69 400.756 113.361 400.69 112.98 400.69C112.56 400.69 112.191 400.783 111.874 400.969C111.562 401.149 111.298 401.386 111.083 401.679C110.873 401.967 110.712 402.277 110.6 402.609C110.487 402.937 110.426 403.249 110.417 403.547ZM120.172 406.147L122.084 400.075H122.699L122.333 401.708L120.333 408H119.718L120.172 406.147ZM118.188 400.075L119.865 406.184L120.224 408H119.586L117.287 400.075H118.188ZM125.08 406.162L126.713 400.075H127.614L125.314 408H124.684L125.08 406.162ZM122.824 400.075L124.706 406.096L125.182 408H124.567L122.523 401.701L122.179 400.075H122.824ZM132.36 408.146C131.842 408.146 131.366 408.051 130.932 407.861C130.502 407.67 130.126 407.402 129.804 407.055C129.486 406.708 129.24 406.298 129.064 405.825C128.893 405.346 128.808 404.824 128.808 404.257V403.942C128.808 403.332 128.898 402.78 129.079 402.287C129.259 401.794 129.508 401.372 129.826 401.02C130.143 400.668 130.504 400.4 130.91 400.214C131.32 400.024 131.75 399.929 132.199 399.929C132.702 399.929 133.148 400.019 133.539 400.2C133.93 400.375 134.257 400.627 134.521 400.954C134.789 401.276 134.992 401.66 135.128 402.104C135.265 402.543 135.333 403.029 135.333 403.562V404.096H129.335V403.349H134.462V403.247C134.452 402.802 134.362 402.387 134.191 402.001C134.025 401.611 133.776 401.293 133.444 401.049C133.112 400.805 132.697 400.683 132.199 400.683C131.828 400.683 131.486 400.761 131.173 400.917C130.866 401.074 130.6 401.298 130.375 401.591C130.155 401.879 129.984 402.224 129.862 402.624C129.745 403.02 129.687 403.459 129.687 403.942V404.257C129.687 404.697 129.75 405.107 129.877 405.488C130.009 405.864 130.194 406.196 130.434 406.484C130.678 406.772 130.966 406.997 131.298 407.158C131.63 407.319 131.996 407.399 132.396 407.399C132.865 407.399 133.28 407.314 133.642 407.143C134.003 406.967 134.328 406.691 134.616 406.315L135.165 406.74C134.994 406.994 134.779 407.229 134.521 407.443C134.267 407.658 133.961 407.829 133.605 407.956C133.249 408.083 132.833 408.146 132.36 408.146ZM141.808 405.979C141.808 405.764 141.754 405.551 141.647 405.341C141.54 405.131 141.332 404.938 141.024 404.763C140.722 404.587 140.275 404.438 139.684 404.316C139.245 404.218 138.852 404.108 138.505 403.986C138.163 403.864 137.875 403.718 137.641 403.547C137.406 403.376 137.228 403.171 137.106 402.932C136.984 402.692 136.923 402.409 136.923 402.082C136.923 401.789 136.986 401.513 137.113 401.254C137.245 400.991 137.431 400.761 137.67 400.566C137.914 400.366 138.207 400.209 138.549 400.097C138.896 399.985 139.284 399.929 139.713 399.929C140.324 399.929 140.846 400.034 141.281 400.244C141.72 400.449 142.055 400.729 142.284 401.086C142.519 401.442 142.636 401.845 142.636 402.294H141.764C141.764 402.021 141.684 401.762 141.522 401.518C141.366 401.274 141.134 401.074 140.827 400.917C140.524 400.761 140.153 400.683 139.713 400.683C139.259 400.683 138.891 400.751 138.607 400.888C138.324 401.025 138.117 401.198 137.985 401.408C137.858 401.618 137.794 401.835 137.794 402.06C137.794 402.236 137.821 402.397 137.875 402.543C137.934 402.685 138.036 402.817 138.183 402.939C138.334 403.061 138.549 403.176 138.827 403.283C139.105 403.391 139.467 403.496 139.911 403.598C140.551 403.74 141.073 403.913 141.479 404.118C141.889 404.318 142.191 404.567 142.387 404.865C142.582 405.158 142.68 405.515 142.68 405.935C142.68 406.262 142.611 406.562 142.475 406.835C142.338 407.104 142.14 407.336 141.881 407.531C141.627 407.727 141.32 407.878 140.958 407.985C140.602 408.093 140.202 408.146 139.757 408.146C139.088 408.146 138.522 408.037 138.058 407.817C137.599 407.592 137.25 407.299 137.011 406.938C136.776 406.572 136.659 406.184 136.659 405.773H137.531C137.56 406.184 137.689 406.508 137.919 406.748C138.148 406.982 138.429 407.148 138.761 407.246C139.098 407.343 139.43 407.392 139.757 407.392C140.207 407.392 140.583 407.326 140.885 407.194C141.188 407.062 141.417 406.889 141.574 406.674C141.73 406.459 141.808 406.228 141.808 405.979ZM147.66 400.075V400.793H143.69V400.075H147.66ZM145.148 398.039H146.02V406.074C146.02 406.44 146.068 406.716 146.166 406.901C146.264 407.087 146.391 407.211 146.547 407.275C146.703 407.338 146.872 407.37 147.052 407.37C147.184 407.37 147.311 407.363 147.433 407.348C147.555 407.329 147.665 407.309 147.763 407.29L147.799 408.029C147.692 408.063 147.553 408.09 147.382 408.11C147.211 408.134 147.04 408.146 146.869 408.146C146.532 408.146 146.234 408.085 145.976 407.963C145.717 407.836 145.514 407.622 145.368 407.319C145.221 407.011 145.148 406.594 145.148 406.066V398.039ZM160.009 404.675H160.91C160.836 405.393 160.639 406.013 160.316 406.535C159.994 407.053 159.555 407.451 158.998 407.729C158.441 408.007 157.77 408.146 156.984 408.146C156.378 408.146 155.829 408.032 155.336 407.802C154.848 407.573 154.428 407.248 154.076 406.828C153.725 406.403 153.454 405.896 153.263 405.305C153.073 404.714 152.978 404.057 152.978 403.334V402.001C152.978 401.279 153.073 400.625 153.263 400.039C153.454 399.448 153.727 398.94 154.083 398.515C154.44 398.09 154.867 397.763 155.365 397.534C155.863 397.304 156.425 397.189 157.05 397.189C157.807 397.189 158.461 397.329 159.013 397.607C159.564 397.88 159.999 398.276 160.316 398.793C160.639 399.311 160.836 399.936 160.91 400.668H160.009C159.94 400.092 159.789 399.604 159.555 399.204C159.32 398.803 158.996 398.498 158.581 398.288C158.17 398.073 157.66 397.966 157.05 397.966C156.552 397.966 156.107 398.061 155.717 398.251C155.326 398.442 154.994 398.715 154.721 399.072C154.447 399.423 154.237 399.846 154.091 400.339C153.949 400.832 153.878 401.381 153.878 401.987V403.334C153.878 403.92 153.947 404.46 154.083 404.953C154.22 405.446 154.42 405.874 154.684 406.235C154.953 406.596 155.28 406.877 155.666 407.077C156.051 407.277 156.491 407.377 156.984 407.377C157.614 407.377 158.139 407.277 158.559 407.077C158.983 406.872 159.313 406.569 159.547 406.169C159.782 405.769 159.936 405.271 160.009 404.675ZM163.773 396.75V408H162.902V396.75H163.773ZM163.576 403.547L163.188 403.327C163.217 402.858 163.312 402.419 163.473 402.009C163.634 401.599 163.852 401.237 164.125 400.925C164.403 400.612 164.728 400.368 165.099 400.192C165.475 400.017 165.89 399.929 166.344 399.929C166.74 399.929 167.094 399.982 167.406 400.09C167.719 400.197 167.985 400.368 168.205 400.603C168.424 400.837 168.59 401.137 168.703 401.503C168.82 401.87 168.878 402.316 168.878 402.844V408H168V402.836C168 402.29 167.924 401.862 167.772 401.555C167.621 401.242 167.406 401.02 167.128 400.888C166.85 400.756 166.52 400.69 166.139 400.69C165.719 400.69 165.351 400.783 165.033 400.969C164.721 401.149 164.457 401.386 164.242 401.679C164.032 401.967 163.871 402.277 163.759 402.609C163.646 402.937 163.585 403.249 163.576 403.547ZM172.108 400.075V408H171.237V400.075H172.108ZM171.083 397.783C171.083 397.617 171.134 397.478 171.237 397.365C171.344 397.248 171.491 397.189 171.676 397.189C171.862 397.189 172.008 397.248 172.116 397.365C172.228 397.478 172.284 397.617 172.284 397.783C172.284 397.944 172.228 398.083 172.116 398.2C172.008 398.312 171.862 398.369 171.676 398.369C171.491 398.369 171.344 398.312 171.237 398.2C171.134 398.083 171.083 397.944 171.083 397.783ZM175.375 401.767V408H174.503V400.075H175.338L175.375 401.767ZM175.177 403.547L174.789 403.327C174.818 402.858 174.914 402.419 175.075 402.009C175.236 401.599 175.453 401.237 175.727 400.925C176.005 400.612 176.33 400.368 176.701 400.192C177.077 400.017 177.492 399.929 177.946 399.929C178.341 399.929 178.695 399.982 179.008 400.09C179.32 400.197 179.586 400.368 179.806 400.603C180.026 400.837 180.192 401.137 180.304 401.503C180.421 401.87 180.48 402.316 180.48 402.844V408H179.601V402.836C179.601 402.29 179.525 401.862 179.374 401.555C179.223 401.242 179.008 401.02 178.729 400.888C178.451 400.756 178.122 400.69 177.741 400.69C177.321 400.69 176.952 400.783 176.635 400.969C176.322 401.149 176.059 401.386 175.844 401.679C175.634 401.967 175.473 402.277 175.36 402.609C175.248 402.937 175.187 403.249 175.177 403.547ZM187.57 406.579V402.492C187.57 402.116 187.492 401.792 187.335 401.518C187.179 401.245 186.95 401.035 186.647 400.888C186.344 400.742 185.971 400.668 185.526 400.668C185.116 400.668 184.75 400.742 184.428 400.888C184.11 401.03 183.859 401.223 183.673 401.467C183.493 401.706 183.402 401.972 183.402 402.265L182.523 402.258C182.523 401.96 182.597 401.672 182.743 401.394C182.89 401.115 183.097 400.866 183.366 400.646C183.634 400.427 183.954 400.253 184.325 400.126C184.701 399.995 185.114 399.929 185.563 399.929C186.129 399.929 186.627 400.024 187.057 400.214C187.492 400.405 187.831 400.69 188.075 401.071C188.319 401.452 188.441 401.931 188.441 402.507V406.337C188.441 406.611 188.461 406.894 188.5 407.187C188.544 407.48 188.605 407.722 188.683 407.912V408H187.753C187.694 407.824 187.648 407.604 187.614 407.341C187.584 407.072 187.57 406.818 187.57 406.579ZM187.775 403.386L187.79 404.06H186.068C185.619 404.06 185.216 404.101 184.86 404.184C184.508 404.262 184.21 404.379 183.966 404.536C183.722 404.687 183.534 404.87 183.402 405.085C183.275 405.3 183.212 405.544 183.212 405.817C183.212 406.101 183.283 406.359 183.424 406.594C183.571 406.828 183.776 407.016 184.04 407.158C184.308 407.294 184.625 407.363 184.992 407.363C185.48 407.363 185.91 407.272 186.281 407.092C186.657 406.911 186.967 406.674 187.211 406.381C187.455 406.088 187.619 405.769 187.702 405.422L188.083 405.927C188.019 406.171 187.902 406.423 187.731 406.682C187.565 406.936 187.348 407.175 187.079 407.399C186.811 407.619 186.493 407.8 186.127 407.941C185.766 408.078 185.355 408.146 184.896 408.146C184.379 408.146 183.927 408.049 183.542 407.854C183.161 407.658 182.863 407.392 182.648 407.055C182.438 406.713 182.333 406.328 182.333 405.898C182.333 405.507 182.416 405.158 182.582 404.851C182.748 404.538 182.987 404.274 183.3 404.06C183.617 403.84 183.998 403.674 184.442 403.562C184.892 403.444 185.395 403.386 185.951 403.386H187.775Z" fill="black"/>
<path d="M25.8906 384.188V388.531C25.7292 388.745 25.4766 388.979 25.1328 389.234C24.7943 389.484 24.3438 389.701 23.7812 389.883C23.2188 390.065 22.5182 390.156 21.6797 390.156C20.9661 390.156 20.3125 390.036 19.7188 389.797C19.125 389.552 18.612 389.195 18.1797 388.727C17.7526 388.258 17.4219 387.688 17.1875 387.016C16.9531 386.339 16.8359 385.568 16.8359 384.703V383.914C16.8359 383.055 16.9427 382.289 17.1562 381.617C17.375 380.94 17.6875 380.367 18.0938 379.898C18.5 379.43 18.9896 379.076 19.5625 378.836C20.1406 378.591 20.7943 378.469 21.5234 378.469C22.4557 378.469 23.2266 378.625 23.8359 378.938C24.4505 379.245 24.9245 379.672 25.2578 380.219C25.5911 380.766 25.8021 381.391 25.8906 382.094H23.9688C23.9062 381.698 23.7839 381.344 23.6016 381.031C23.4245 380.719 23.1693 380.474 22.8359 380.297C22.5078 380.115 22.0807 380.023 21.5547 380.023C21.1016 380.023 20.7031 380.109 20.3594 380.281C20.0156 380.453 19.7292 380.706 19.5 381.039C19.276 381.372 19.1068 381.779 18.9922 382.258C18.8776 382.737 18.8203 383.284 18.8203 383.898V384.703C18.8203 385.328 18.8854 385.883 19.0156 386.367C19.151 386.852 19.3438 387.26 19.5938 387.594C19.849 387.927 20.1589 388.18 20.5234 388.352C20.888 388.518 21.2995 388.602 21.7578 388.602C22.2057 388.602 22.5729 388.565 22.8594 388.492C23.1458 388.414 23.3724 388.323 23.5391 388.219C23.7109 388.109 23.8438 388.005 23.9375 387.906V385.648H21.5703V384.188H25.8906ZM30.1562 378.625V390H28.1953V378.625H30.1562ZM37.1641 380.141L33.7656 390H31.7109L35.9922 378.625H37.3047L37.1641 380.141ZM40.0078 390L36.6016 380.141L36.4531 378.625H37.7734L42.0703 390H40.0078ZM39.8438 385.781V387.336H33.6562V385.781H39.8438ZM52.3672 378.625V390H50.4062L45.3047 381.852V390H43.3438V378.625H45.3047L50.4219 386.789V378.625H52.3672ZM59.1484 378.625V390H57.2031V378.625H59.1484ZM62.7188 378.625V380.188H53.6641V378.625H62.7188ZM72.1484 385.758H69.1875V384.203H72.1484C72.6641 384.203 73.0807 384.12 73.3984 383.953C73.7161 383.786 73.9479 383.557 74.0938 383.266C74.2448 382.969 74.3203 382.63 74.3203 382.25C74.3203 381.891 74.2448 381.555 74.0938 381.242C73.9479 380.924 73.7161 380.669 73.3984 380.477C73.0807 380.284 72.6641 380.188 72.1484 380.188H69.7891V390H67.8281V378.625H72.1484C73.0286 378.625 73.776 378.781 74.3906 379.094C75.0104 379.401 75.4818 379.828 75.8047 380.375C76.1276 380.917 76.2891 381.536 76.2891 382.234C76.2891 382.969 76.1276 383.599 75.8047 384.125C75.4818 384.651 75.0104 385.055 74.3906 385.336C73.776 385.617 73.0286 385.758 72.1484 385.758ZM81.2891 380.141L77.8906 390H75.8359L80.1172 378.625H81.4297L81.2891 380.141ZM84.1328 390L80.7266 380.141L80.5781 378.625H81.8984L86.1953 390H84.1328ZM83.9688 385.781V387.336H77.7812V385.781H83.9688ZM96.4922 378.625V390H94.5312L89.4297 381.852V390H87.4688V378.625H89.4297L94.5469 386.789V378.625H96.4922ZM102.133 390H99.7031L99.7188 388.445H102.133C102.836 388.445 103.424 388.292 103.898 387.984C104.378 387.677 104.737 387.237 104.977 386.664C105.221 386.091 105.344 385.409 105.344 384.617V384C105.344 383.385 105.273 382.841 105.133 382.367C104.997 381.893 104.794 381.495 104.523 381.172C104.258 380.849 103.93 380.604 103.539 380.438C103.154 380.271 102.708 380.188 102.203 380.188H99.6562V378.625H102.203C102.958 378.625 103.648 378.753 104.273 379.008C104.898 379.258 105.438 379.62 105.891 380.094C106.349 380.568 106.701 381.135 106.945 381.797C107.19 382.458 107.312 383.198 107.312 384.016V384.617C107.312 385.435 107.19 386.174 106.945 386.836C106.701 387.497 106.349 388.065 105.891 388.539C105.432 389.008 104.885 389.37 104.25 389.625C103.62 389.875 102.914 390 102.133 390ZM100.789 378.625V390H98.8281V378.625H100.789ZM113.539 380.141L110.141 390H108.086L112.367 378.625H113.68L113.539 380.141ZM116.383 390L112.977 380.141L112.828 378.625H114.148L118.445 390H116.383ZM116.219 385.781V387.336H110.031V385.781H116.219ZM125.703 387.07C125.703 386.836 125.667 386.628 125.594 386.445C125.526 386.263 125.404 386.096 125.227 385.945C125.049 385.794 124.799 385.648 124.477 385.508C124.159 385.362 123.753 385.214 123.258 385.062C122.716 384.896 122.216 384.711 121.758 384.508C121.305 384.299 120.909 384.06 120.57 383.789C120.232 383.513 119.969 383.198 119.781 382.844C119.594 382.484 119.5 382.07 119.5 381.602C119.5 381.138 119.596 380.716 119.789 380.336C119.987 379.956 120.266 379.628 120.625 379.352C120.99 379.07 121.419 378.854 121.914 378.703C122.409 378.547 122.956 378.469 123.555 378.469C124.398 378.469 125.125 378.625 125.734 378.938C126.349 379.25 126.82 379.669 127.148 380.195C127.482 380.721 127.648 381.302 127.648 381.938H125.703C125.703 381.562 125.622 381.232 125.461 380.945C125.305 380.654 125.065 380.424 124.742 380.258C124.424 380.091 124.021 380.008 123.531 380.008C123.068 380.008 122.682 380.078 122.375 380.219C122.068 380.359 121.839 380.549 121.688 380.789C121.536 381.029 121.461 381.299 121.461 381.602C121.461 381.815 121.51 382.01 121.609 382.188C121.708 382.359 121.859 382.521 122.062 382.672C122.266 382.818 122.521 382.956 122.828 383.086C123.135 383.216 123.497 383.341 123.914 383.461C124.544 383.648 125.094 383.857 125.562 384.086C126.031 384.31 126.422 384.565 126.734 384.852C127.047 385.138 127.281 385.464 127.438 385.828C127.594 386.188 127.672 386.596 127.672 387.055C127.672 387.534 127.576 387.966 127.383 388.352C127.19 388.732 126.914 389.057 126.555 389.328C126.201 389.594 125.773 389.799 125.273 389.945C124.779 390.086 124.227 390.156 123.617 390.156C123.07 390.156 122.531 390.083 122 389.938C121.474 389.792 120.995 389.57 120.562 389.273C120.13 388.971 119.786 388.596 119.531 388.148C119.276 387.695 119.148 387.167 119.148 386.562H121.109C121.109 386.932 121.172 387.247 121.297 387.508C121.427 387.768 121.607 387.982 121.836 388.148C122.065 388.31 122.331 388.43 122.633 388.508C122.94 388.586 123.268 388.625 123.617 388.625C124.076 388.625 124.458 388.56 124.766 388.43C125.078 388.299 125.312 388.117 125.469 387.883C125.625 387.648 125.703 387.378 125.703 387.07Z" fill="black"/>
<path fill-rule="evenodd" clip-rule="evenodd" d="M345.398 407.625C344.937 405.981 343.564 404.05 342.494 401.964C343.411 403.752 344.328 405.539 345.398 407.625ZM347.982 407.437C346.455 405.208 345.536 402.67 344.617 400.132C343.855 399.393 343.248 399.702 342.64 400.011C341.579 400.927 340.515 401.093 341.733 401.975C343.26 404.204 344.33 406.29 345.096 408.53C345.4 408.375 346.007 408.066 346.311 407.912C346.918 407.602 347.069 407.15 347.982 407.437ZM341.424 399.879C340.963 398.235 339.589 396.304 338.519 394.218C339.436 396.006 340.354 397.793 341.424 399.879ZM337.296 391.835C336.989 390.488 335.462 388.26 334.545 386.472C335.462 388.26 336.226 389.749 337.449 392.133C337.449 392.133 337.449 392.133 337.296 391.835ZM339.881 391.647C338.507 389.716 337.588 387.178 336.516 384.342C335.906 383.901 335.299 384.21 334.692 384.519C333.63 385.435 332.566 385.6 333.785 386.483C335.158 388.414 336.381 390.797 337.148 393.038C337.451 392.883 338.059 392.574 338.362 392.419C338.817 391.812 339.12 391.658 339.881 391.647ZM333.322 384.089C333.014 382.742 331.488 380.513 330.571 378.726C331.488 380.513 332.252 382.003 333.475 384.386L333.322 384.089ZM335.906 383.901C334.533 381.97 333.613 379.432 332.541 376.596C331.932 376.155 331.325 376.464 330.717 376.773C329.656 377.689 328.439 377.556 329.811 378.737C331.184 380.668 332.407 383.051 333.173 385.291C333.477 385.137 334.084 384.828 334.235 384.375C334.842 384.066 335.146 383.912 335.906 383.901ZM335.322 392.464C334.105 392.332 333.192 392.045 331.975 391.913C333.192 392.045 333.952 392.034 335.322 392.464C333.496 391.89 332.126 391.46 330.453 391.185C331.822 391.615 333.039 391.747 334.865 392.321C332.886 391.449 331.213 391.173 329.691 390.445C331.06 390.875 332.43 391.306 334.409 392.177C332.733 391.151 330.907 390.578 329.081 390.004C330.907 390.578 332.886 391.449 335.322 392.464C335.778 392.607 335.778 392.607 335.322 392.464ZM334.714 392.773C334.714 392.773 334.411 392.928 334.258 392.63C331.977 392.663 330.001 392.542 328.177 392.719C329.85 392.994 331.674 392.818 333.498 392.641C331.674 392.818 330.153 392.84 328.786 393.16C330.306 393.138 332.13 392.961 333.954 392.784C332.434 392.806 331.066 393.127 329.699 393.447C331.523 393.27 332.89 392.95 334.411 392.928C333.347 393.093 332.283 393.259 331.219 393.425C332.283 393.259 333.347 393.093 334.411 392.928C334.714 392.773 334.714 392.773 334.714 392.773ZM335.632 394.561C335.024 394.87 334.57 395.477 333.659 395.94C334.266 395.631 334.721 395.024 335.632 394.561C334.721 395.024 333.659 395.94 332.748 396.404C333.659 395.94 334.417 395.179 335.328 394.715C334.113 395.333 332.899 395.951 331.837 396.867C332.595 396.106 333.81 395.488 335.024 394.87C333.81 395.488 332.595 396.106 331.38 396.724C332.595 396.106 333.96 395.035 335.479 394.263C335.782 394.108 335.935 394.406 335.632 394.561ZM335.784 394.858C335.481 395.013 335.481 395.013 335.481 395.013C334.268 396.382 333.359 397.596 332.754 398.655C333.359 397.596 334.268 396.382 335.026 395.62C334.421 396.679 333.663 397.441 333.058 398.5C333.663 397.441 334.572 396.227 335.177 395.168C334.572 396.227 334.27 397.132 333.816 397.739C334.27 397.132 334.876 396.072 335.481 395.013C335.179 395.918 334.725 396.525 334.574 396.977C335.028 396.37 335.026 395.62 335.481 395.013L335.784 394.858ZM336.542 394.097C336.846 393.942 336.846 393.942 337.15 393.788C337.303 394.086 337.303 394.086 337.759 394.229C339.286 396.458 340.356 398.544 341.122 400.784C341.426 400.629 342.033 400.32 342.337 400.165C342.791 399.558 343.095 399.404 343.855 399.393C342.481 397.462 341.562 394.924 340.49 392.088C339.881 391.647 339.273 391.956 338.666 392.265C337.908 393.026 337.148 393.038 336.997 393.49C336.844 393.192 336.388 393.049 336.235 392.751C336.082 392.453 335.625 392.309 334.863 391.57C332.884 390.699 329.689 389.695 328.016 389.419C328.474 390.313 330.909 391.328 332.888 392.199C330.912 392.078 328.327 392.266 326.809 393.039C328.332 393.767 333.956 393.535 335.627 393.06C335.627 393.06 335.931 392.905 336.084 393.203C336.54 393.347 336.997 393.49 337.15 393.788C336.846 393.942 336.542 394.097 336.086 393.954C336.086 393.954 335.782 394.108 335.175 394.417C333.504 394.892 331.531 396.272 330.47 397.188C331.383 397.474 333.204 396.547 334.57 395.477C333.661 396.691 332.601 398.357 331.996 399.416C333.363 399.096 335.786 395.609 335.935 394.406C336.239 394.251 336.239 394.251 336.542 394.097Z" fill="#468E0D"/>
<path d="M349.174 386.239L349.178 386.225L349.178 386.211L349.082 380.153L349.082 380.143L349.08 380.133C349.031 379.911 349.138 379.696 349.374 379.522C349.61 379.348 349.962 379.228 350.354 379.205C351.129 379.159 352.032 379.494 352.473 380.498C352.284 381.374 352.177 382.238 352.071 383.097L352.07 383.099C351.963 383.971 351.855 384.837 351.665 385.714L351.655 385.756L351.68 385.792C354.141 389.377 354.411 393.285 353.199 396.818C351.985 400.353 349.285 403.515 345.803 405.594C342.322 407.673 338.066 408.667 333.742 407.874C329.425 407.082 325.032 404.505 321.273 399.43C321.134 398.848 321.078 398.362 321.108 397.975C321.138 397.583 321.255 397.302 321.452 397.12C321.649 396.937 321.941 396.838 322.352 396.843C322.763 396.848 323.284 396.957 323.925 397.182C334.417 401.538 346.039 397.47 349.174 386.239Z" fill="#FFEE2E" stroke="#468E0D" stroke-width="0.2"/>
<rect x="0.5" y="0.5" width="365" height="425" rx="4.5" stroke="url(#paint0_linear_126_33)" shape-rendering="crispEdges"/>
</g>
<defs>
<filter id="filter0_d_126_33" x="-4" y="0" width="374" height="434" filterUnits="userSpaceOnUse" color-interpolation-filters="sRGB">
<feFlood flood-opacity="0" result="BackgroundImageFix"/>
<feColorMatrix in="SourceAlpha" type="matrix" values="0 0 0 0 0 0 0 0 0 0 0 0 0 0 0 0 0 0 127 0" result="hardAlpha"/>
<feOffset dy="4"/>
<feGaussianBlur stdDeviation="2"/>
<feComposite in2="hardAlpha" operator="out"/>
<feColorMatrix type="matrix" values="0 0 0 0 0 0 0 0 0 0 0 0 0 0 0 0 0 0 0.25 0"/>
<feBlend mode="normal" in2="BackgroundImageFix" result="effect1_dropShadow_126_33"/>
<feBlend mode="normal" in="SourceGraphic" in2="effect1_dropShadow_126_33" result="shape"/>
</filter>
<linearGradient id="paint0_linear_126_33" x1="-16.2152" y1="63.1111" x2="444.96" y2="239.218" gradientUnits="userSpaceOnUse">
<stop stop-color="#FE9114"/>
<stop offset="0.784006" stop-color="#FE9013"/>
<stop offset="1" stop-color="#FE9013"/>
</linearGradient>
</defs>
</svg>
