<svg width="366" height="426" viewBox="0 0 366 426" fill="none" xmlns="http://www.w3.org/2000/svg">
<path d="M25.2944 397.336V408H24.3862L18.2559 398.889V408H17.355V397.336H18.2559L24.4009 406.447V397.336H25.2944ZM32.6333 406.579V402.492C32.6333 402.116 32.5552 401.792 32.3989 401.518C32.2427 401.245 32.0132 401.035 31.7104 400.888C31.4077 400.742 31.0342 400.668 30.5898 400.668C30.1797 400.668 29.8135 400.742 29.4912 400.888C29.1738 401.03 28.9224 401.223 28.7368 401.467C28.5562 401.706 28.4658 401.972 28.4658 402.265L27.5869 402.258C27.5869 401.96 27.6602 401.672 27.8066 401.394C27.9531 401.115 28.1606 400.866 28.4292 400.646C28.6978 400.427 29.0176 400.253 29.3887 400.126C29.7646 399.995 30.1772 399.929 30.6265 399.929C31.1929 399.929 31.6909 400.024 32.1206 400.214C32.5552 400.405 32.8945 400.69 33.1387 401.071C33.3828 401.452 33.5049 401.931 33.5049 402.507V406.337C33.5049 406.611 33.5244 406.894 33.5635 407.187C33.6074 407.48 33.6685 407.722 33.7466 407.912V408H32.8164C32.7578 407.824 32.7114 407.604 32.6772 407.341C32.6479 407.072 32.6333 406.818 32.6333 406.579ZM32.8384 403.386L32.853 404.06H31.1318C30.6826 404.06 30.2798 404.101 29.9233 404.184C29.5718 404.262 29.2739 404.379 29.0298 404.536C28.7856 404.687 28.5977 404.87 28.4658 405.085C28.3389 405.3 28.2754 405.544 28.2754 405.817C28.2754 406.101 28.3462 406.359 28.4878 406.594C28.6343 406.828 28.8394 407.016 29.103 407.158C29.3716 407.294 29.689 407.363 30.0552 407.363C30.5435 407.363 30.9731 407.272 31.3442 407.092C31.7202 406.911 32.0303 406.674 32.2744 406.381C32.5186 406.088 32.6821 405.769 32.7651 405.422L33.146 405.927C33.0825 406.171 32.9653 406.423 32.7944 406.682C32.6284 406.936 32.4111 407.175 32.1426 407.399C31.874 407.619 31.5566 407.8 31.1904 407.941C30.8291 408.078 30.4189 408.146 29.96 408.146C29.4424 408.146 28.9907 408.049 28.605 407.854C28.2241 407.658 27.9263 407.392 27.7114 407.055C27.5015 406.713 27.3965 406.328 27.3965 405.898C27.3965 405.507 27.4795 405.158 27.6455 404.851C27.8115 404.538 28.0508 404.274 28.3633 404.06C28.6807 403.84 29.0615 403.674 29.5059 403.562C29.9551 403.444 30.458 403.386 31.0146 403.386H32.8384ZM38.8516 400.075V400.793H34.8818V400.075H38.8516ZM36.3394 398.039H37.2109V406.074C37.2109 406.44 37.2598 406.716 37.3574 406.901C37.4551 407.087 37.582 407.211 37.7383 407.275C37.8945 407.338 38.063 407.37 38.2437 407.37C38.3755 407.37 38.5024 407.363 38.6245 407.348C38.7466 407.329 38.8564 407.309 38.9541 407.29L38.9907 408.029C38.8833 408.063 38.7441 408.09 38.5732 408.11C38.4023 408.134 38.2314 408.146 38.0605 408.146C37.7236 408.146 37.4258 408.085 37.167 407.963C36.9082 407.836 36.7056 407.622 36.5591 407.319C36.4126 407.011 36.3394 406.594 36.3394 406.066V398.039ZM41.6641 400.075V408H40.7925V400.075H41.6641ZM40.6387 397.783C40.6387 397.617 40.6899 397.478 40.7925 397.365C40.8999 397.248 41.0464 397.189 41.2319 397.189C41.4175 397.189 41.564 397.248 41.6714 397.365C41.7837 397.478 41.8398 397.617 41.8398 397.783C41.8398 397.944 41.7837 398.083 41.6714 398.2C41.564 398.312 41.4175 398.369 41.2319 398.369C41.0464 398.369 40.8999 398.312 40.7925 398.2C40.6899 398.083 40.6387 397.944 40.6387 397.783ZM46.3955 407.158L48.937 400.075H49.8379L46.8716 408H46.2344L46.3955 407.158ZM44.0957 400.075L46.6665 407.18L46.8057 408H46.1611L43.1875 400.075H44.0957ZM54.2397 408.146C53.7222 408.146 53.2461 408.051 52.8115 407.861C52.3818 407.67 52.0059 407.402 51.6836 407.055C51.3662 406.708 51.1196 406.298 50.9438 405.825C50.7729 405.346 50.6875 404.824 50.6875 404.257V403.942C50.6875 403.332 50.7778 402.78 50.9585 402.287C51.1392 401.794 51.3882 401.372 51.7056 401.02C52.0229 400.668 52.3843 400.4 52.7896 400.214C53.1997 400.024 53.6294 399.929 54.0786 399.929C54.5815 399.929 55.0283 400.019 55.4189 400.2C55.8096 400.375 56.1367 400.627 56.4004 400.954C56.6689 401.276 56.8716 401.66 57.0083 402.104C57.145 402.543 57.2134 403.029 57.2134 403.562V404.096H51.2148V403.349H56.3418V403.247C56.332 402.802 56.2417 402.387 56.0708 402.001C55.9048 401.611 55.6558 401.293 55.3237 401.049C54.9917 400.805 54.5767 400.683 54.0786 400.683C53.7075 400.683 53.3657 400.761 53.0532 400.917C52.7456 401.074 52.4795 401.298 52.2549 401.591C52.0352 401.879 51.8643 402.224 51.7422 402.624C51.625 403.02 51.5664 403.459 51.5664 403.942V404.257C51.5664 404.697 51.6299 405.107 51.7568 405.488C51.8887 405.864 52.0742 406.196 52.3135 406.484C52.5576 406.772 52.8457 406.997 53.1777 407.158C53.5098 407.319 53.876 407.399 54.2764 407.399C54.7451 407.399 55.1602 407.314 55.5215 407.143C55.8828 406.967 56.2075 406.691 56.4956 406.315L57.0449 406.74C56.874 406.994 56.6592 407.229 56.4004 407.443C56.1465 407.658 55.8413 407.829 55.4849 407.956C55.1284 408.083 54.7134 408.146 54.2397 408.146ZM65.5996 400.075V400.793H61.6299V400.075H65.5996ZM63.0874 398.039H63.959V406.074C63.959 406.44 64.0078 406.716 64.1055 406.901C64.2031 407.087 64.3301 407.211 64.4863 407.275C64.6426 407.338 64.811 407.37 64.9917 407.37C65.1235 407.37 65.2505 407.363 65.3726 407.348C65.4946 407.329 65.6045 407.309 65.7021 407.29L65.7388 408.029C65.6313 408.063 65.4922 408.09 65.3213 408.11C65.1504 408.134 64.9795 408.146 64.8086 408.146C64.4717 408.146 64.1738 408.085 63.915 407.963C63.6562 407.836 63.4536 407.622 63.3071 407.319C63.1606 407.011 63.0874 406.594 63.0874 406.066V398.039ZM66.8081 404.162V403.92C66.8081 403.344 66.8911 402.812 67.0571 402.324C67.2231 401.835 67.46 401.413 67.7676 401.057C68.0801 400.7 68.4536 400.424 68.8882 400.229C69.3228 400.029 69.8062 399.929 70.3384 399.929C70.8755 399.929 71.3613 400.029 71.7959 400.229C72.2305 400.424 72.604 400.7 72.9165 401.057C73.229 401.413 73.4683 401.835 73.6343 402.324C73.8003 402.812 73.8833 403.344 73.8833 403.92V404.162C73.8833 404.738 73.8003 405.271 73.6343 405.759C73.4683 406.242 73.229 406.662 72.9165 407.019C72.6089 407.375 72.2378 407.653 71.8032 407.854C71.3687 408.049 70.8853 408.146 70.353 408.146C69.8159 408.146 69.3301 408.049 68.8955 407.854C68.4609 407.653 68.0874 407.375 67.7749 407.019C67.4624 406.662 67.2231 406.242 67.0571 405.759C66.8911 405.271 66.8081 404.738 66.8081 404.162ZM67.6797 403.92V404.162C67.6797 404.597 67.7383 405.009 67.8555 405.4C67.9727 405.786 68.1436 406.13 68.3682 406.433C68.5928 406.73 68.8711 406.965 69.2031 407.136C69.5352 407.307 69.9185 407.392 70.353 407.392C70.7827 407.392 71.1611 407.307 71.4883 407.136C71.8203 406.965 72.0986 406.73 72.3232 406.433C72.5479 406.13 72.7163 405.786 72.8286 405.4C72.9458 405.009 73.0044 404.597 73.0044 404.162V403.92C73.0044 403.491 72.9458 403.083 72.8286 402.697C72.7163 402.312 72.5454 401.967 72.3159 401.665C72.0913 401.362 71.813 401.123 71.481 400.947C71.1489 400.771 70.7681 400.683 70.3384 400.683C69.9087 400.683 69.5278 400.771 69.1958 400.947C68.8687 401.123 68.5903 401.362 68.3608 401.665C68.1362 401.967 67.9653 402.312 67.8481 402.697C67.7358 403.083 67.6797 403.491 67.6797 403.92ZM83.0679 397.973L79.3765 408H78.439L82.4673 397.336H83.1191L83.0679 397.973ZM86.4224 408L82.7236 397.973L82.6724 397.336H83.3242L87.3599 408H86.4224ZM85.7632 404.235V405.012H80.1016V404.235H85.7632ZM89.6084 401.767V408H88.7368V400.075H89.5718L89.6084 401.767ZM89.4106 403.547L89.0225 403.327C89.0518 402.858 89.147 402.419 89.3081 402.009C89.4692 401.599 89.6865 401.237 89.96 400.925C90.2383 400.612 90.563 400.368 90.9341 400.192C91.3101 400.017 91.7251 399.929 92.1792 399.929C92.5747 399.929 92.9287 399.982 93.2412 400.09C93.5537 400.197 93.8198 400.368 94.0396 400.603C94.2593 400.837 94.4253 401.137 94.5376 401.503C94.6548 401.87 94.7134 402.316 94.7134 402.844V408H93.8345V402.836C93.8345 402.29 93.7588 401.862 93.6074 401.555C93.4561 401.242 93.2412 401.02 92.9629 400.888C92.6846 400.756 92.355 400.69 91.9741 400.69C91.5542 400.69 91.1855 400.783 90.8682 400.969C90.5557 401.149 90.292 401.386 90.0771 401.679C89.8672 401.967 89.7061 402.277 89.5938 402.609C89.4814 402.937 89.4204 403.249 89.4106 403.547ZM99.9795 400.075V400.793H96.0098V400.075H99.9795ZM97.4673 398.039H98.3389V406.074C98.3389 406.44 98.3877 406.716 98.4854 406.901C98.583 407.087 98.71 407.211 98.8662 407.275C99.0225 407.338 99.1909 407.37 99.3716 407.37C99.5034 407.37 99.6304 407.363 99.7524 407.348C99.8745 407.329 99.9844 407.309 100.082 407.29L100.119 408.029C100.011 408.063 99.8721 408.09 99.7012 408.11C99.5303 408.134 99.3594 408.146 99.1885 408.146C98.8516 408.146 98.5537 408.085 98.2949 407.963C98.0361 407.836 97.8335 407.622 97.687 407.319C97.5405 407.011 97.4673 406.594 97.4673 406.066V398.039ZM106.637 406.579V402.492C106.637 402.116 106.559 401.792 106.403 401.518C106.247 401.245 106.017 401.035 105.714 400.888C105.412 400.742 105.038 400.668 104.594 400.668C104.184 400.668 103.817 400.742 103.495 400.888C103.178 401.03 102.926 401.223 102.741 401.467C102.56 401.706 102.47 401.972 102.47 402.265L101.591 402.258C101.591 401.96 101.664 401.672 101.811 401.394C101.957 401.115 102.165 400.866 102.433 400.646C102.702 400.427 103.021 400.253 103.393 400.126C103.769 399.995 104.181 399.929 104.63 399.929C105.197 399.929 105.695 400.024 106.125 400.214C106.559 400.405 106.898 400.69 107.143 401.071C107.387 401.452 107.509 401.931 107.509 402.507V406.337C107.509 406.611 107.528 406.894 107.567 407.187C107.611 407.48 107.672 407.722 107.75 407.912V408H106.82C106.762 407.824 106.715 407.604 106.681 407.341C106.652 407.072 106.637 406.818 106.637 406.579ZM106.842 403.386L106.857 404.06H105.136C104.687 404.06 104.284 404.101 103.927 404.184C103.576 404.262 103.278 404.379 103.034 404.536C102.79 404.687 102.602 404.87 102.47 405.085C102.343 405.3 102.279 405.544 102.279 405.817C102.279 406.101 102.35 406.359 102.492 406.594C102.638 406.828 102.843 407.016 103.107 407.158C103.375 407.294 103.693 407.363 104.059 407.363C104.547 407.363 104.977 407.272 105.348 407.092C105.724 406.911 106.034 406.674 106.278 406.381C106.522 406.088 106.686 405.769 106.769 405.422L107.15 405.927C107.086 406.171 106.969 406.423 106.798 406.682C106.632 406.936 106.415 407.175 106.146 407.399C105.878 407.619 105.561 407.8 105.194 407.941C104.833 408.078 104.423 408.146 103.964 408.146C103.446 408.146 102.995 408.049 102.609 407.854C102.228 407.658 101.93 407.392 101.715 407.055C101.505 406.713 101.4 406.328 101.4 405.898C101.4 405.507 101.483 405.158 101.649 404.851C101.815 404.538 102.055 404.274 102.367 404.06C102.685 403.84 103.065 403.674 103.51 403.562C103.959 403.444 104.462 403.386 105.019 403.386H106.842ZM110.731 401.386V408H109.86V400.075H110.709L110.731 401.386ZM113.537 400.017L113.515 400.822C113.417 400.808 113.322 400.795 113.229 400.786C113.136 400.776 113.036 400.771 112.929 400.771C112.548 400.771 112.213 400.842 111.925 400.983C111.642 401.12 111.403 401.313 111.208 401.562C111.012 401.806 110.863 402.094 110.761 402.426C110.658 402.753 110.6 403.105 110.585 403.481L110.263 403.605C110.263 403.088 110.316 402.607 110.424 402.163C110.531 401.718 110.695 401.33 110.915 400.998C111.139 400.661 111.42 400.4 111.757 400.214C112.099 400.024 112.499 399.929 112.958 399.929C113.07 399.929 113.18 399.938 113.288 399.958C113.4 399.973 113.483 399.992 113.537 400.017ZM117.689 407.392C118.061 407.392 118.407 407.324 118.729 407.187C119.057 407.045 119.325 406.838 119.535 406.564C119.75 406.286 119.872 405.947 119.901 405.546H120.736C120.712 406.049 120.558 406.499 120.275 406.894C119.997 407.285 119.63 407.592 119.176 407.817C118.727 408.037 118.231 408.146 117.689 408.146C117.138 408.146 116.649 408.046 116.225 407.846C115.805 407.646 115.453 407.368 115.17 407.011C114.887 406.65 114.672 406.23 114.525 405.751C114.384 405.268 114.313 404.748 114.313 404.191V403.884C114.313 403.327 114.384 402.81 114.525 402.331C114.672 401.848 114.887 401.428 115.17 401.071C115.453 400.71 115.805 400.429 116.225 400.229C116.645 400.029 117.13 399.929 117.682 399.929C118.249 399.929 118.756 400.043 119.206 400.273C119.66 400.502 120.021 400.827 120.29 401.247C120.563 401.667 120.712 402.165 120.736 402.741H119.901C119.877 402.316 119.765 401.95 119.564 401.643C119.364 401.335 119.101 401.098 118.773 400.932C118.446 400.766 118.083 400.683 117.682 400.683C117.233 400.683 116.85 400.771 116.532 400.947C116.215 401.118 115.956 401.354 115.756 401.657C115.561 401.955 115.417 402.297 115.324 402.683C115.231 403.063 115.185 403.464 115.185 403.884V404.191C115.185 404.616 115.229 405.021 115.316 405.407C115.409 405.788 115.553 406.127 115.749 406.425C115.949 406.723 116.208 406.96 116.525 407.136C116.847 407.307 117.235 407.392 117.689 407.392ZM125.497 400.075V400.793H121.527V400.075H125.497ZM122.985 398.039H123.856V406.074C123.856 406.44 123.905 406.716 124.003 406.901C124.101 407.087 124.228 407.211 124.384 407.275C124.54 407.338 124.708 407.37 124.889 407.37C125.021 407.37 125.148 407.363 125.27 407.348C125.392 407.329 125.502 407.309 125.6 407.29L125.636 408.029C125.529 408.063 125.39 408.09 125.219 408.11C125.048 408.134 124.877 408.146 124.706 408.146C124.369 408.146 124.071 408.085 123.812 407.963C123.554 407.836 123.351 407.622 123.205 407.319C123.058 407.011 122.985 406.594 122.985 406.066V398.039ZM128.31 400.075V408H127.438V400.075H128.31ZM127.284 397.783C127.284 397.617 127.335 397.478 127.438 397.365C127.545 397.248 127.692 397.189 127.877 397.189C128.063 397.189 128.209 397.248 128.317 397.365C128.429 397.478 128.485 397.617 128.485 397.783C128.485 397.944 128.429 398.083 128.317 398.2C128.209 398.312 128.063 398.369 127.877 398.369C127.692 398.369 127.545 398.312 127.438 398.2C127.335 398.083 127.284 397.944 127.284 397.783ZM133.627 407.392C133.998 407.392 134.345 407.324 134.667 407.187C134.994 407.045 135.263 406.838 135.473 406.564C135.688 406.286 135.81 405.947 135.839 405.546H136.674C136.649 406.049 136.496 406.499 136.212 406.894C135.934 407.285 135.568 407.592 135.114 407.817C134.665 408.037 134.169 408.146 133.627 408.146C133.075 408.146 132.587 408.046 132.162 407.846C131.742 407.646 131.391 407.368 131.107 407.011C130.824 406.65 130.609 406.23 130.463 405.751C130.321 405.268 130.25 404.748 130.25 404.191V403.884C130.25 403.327 130.321 402.81 130.463 402.331C130.609 401.848 130.824 401.428 131.107 401.071C131.391 400.71 131.742 400.429 132.162 400.229C132.582 400.029 133.068 399.929 133.62 399.929C134.186 399.929 134.694 400.043 135.143 400.273C135.597 400.502 135.958 400.827 136.227 401.247C136.5 401.667 136.649 402.165 136.674 402.741H135.839C135.814 402.316 135.702 401.95 135.502 401.643C135.302 401.335 135.038 401.098 134.711 400.932C134.384 400.766 134.02 400.683 133.62 400.683C133.17 400.683 132.787 400.771 132.47 400.947C132.152 401.118 131.894 401.354 131.693 401.657C131.498 401.955 131.354 402.297 131.261 402.683C131.168 403.063 131.122 403.464 131.122 403.884V404.191C131.122 404.616 131.166 405.021 131.254 405.407C131.347 405.788 131.491 406.127 131.686 406.425C131.886 406.723 132.145 406.96 132.462 407.136C132.785 407.307 133.173 407.392 133.627 407.392ZM143.258 406.579V402.492C143.258 402.116 143.18 401.792 143.024 401.518C142.868 401.245 142.638 401.035 142.335 400.888C142.033 400.742 141.659 400.668 141.215 400.668C140.805 400.668 140.438 400.742 140.116 400.888C139.799 401.03 139.547 401.223 139.362 401.467C139.181 401.706 139.091 401.972 139.091 402.265L138.212 402.258C138.212 401.96 138.285 401.672 138.432 401.394C138.578 401.115 138.786 400.866 139.054 400.646C139.323 400.427 139.643 400.253 140.014 400.126C140.39 399.995 140.802 399.929 141.251 399.929C141.818 399.929 142.316 400.024 142.746 400.214C143.18 400.405 143.52 400.69 143.764 401.071C144.008 401.452 144.13 401.931 144.13 402.507V406.337C144.13 406.611 144.149 406.894 144.188 407.187C144.232 407.48 144.293 407.722 144.372 407.912V408H143.441C143.383 407.824 143.336 407.604 143.302 407.341C143.273 407.072 143.258 406.818 143.258 406.579ZM143.463 403.386L143.478 404.06H141.757C141.308 404.06 140.905 404.101 140.548 404.184C140.197 404.262 139.899 404.379 139.655 404.536C139.411 404.687 139.223 404.87 139.091 405.085C138.964 405.3 138.9 405.544 138.9 405.817C138.9 406.101 138.971 406.359 139.113 406.594C139.259 406.828 139.464 407.016 139.728 407.158C139.997 407.294 140.314 407.363 140.68 407.363C141.168 407.363 141.598 407.272 141.969 407.092C142.345 406.911 142.655 406.674 142.899 406.381C143.144 406.088 143.307 405.769 143.39 405.422L143.771 405.927C143.708 406.171 143.59 406.423 143.419 406.682C143.253 406.936 143.036 407.175 142.768 407.399C142.499 407.619 142.182 407.8 141.815 407.941C141.454 408.078 141.044 408.146 140.585 408.146C140.067 408.146 139.616 408.049 139.23 407.854C138.849 407.658 138.551 407.392 138.336 407.055C138.126 406.713 138.021 406.328 138.021 405.898C138.021 405.507 138.104 405.158 138.271 404.851C138.437 404.538 138.676 404.274 138.988 404.06C139.306 403.84 139.687 403.674 140.131 403.562C140.58 403.444 141.083 403.386 141.64 403.386H143.463Z" fill="black"/>
<path d="M21.4766 385.758H18.5156V384.203H21.4766C21.9922 384.203 22.4089 384.12 22.7266 383.953C23.0443 383.786 23.276 383.557 23.4219 383.266C23.5729 382.969 23.6484 382.63 23.6484 382.25C23.6484 381.891 23.5729 381.555 23.4219 381.242C23.276 380.924 23.0443 380.669 22.7266 380.477C22.4089 380.284 21.9922 380.188 21.4766 380.188H19.1172V390H17.1562V378.625H21.4766C22.3568 378.625 23.1042 378.781 23.7188 379.094C24.3385 379.401 24.8099 379.828 25.1328 380.375C25.4557 380.917 25.6172 381.536 25.6172 382.234C25.6172 382.969 25.4557 383.599 25.1328 384.125C24.8099 384.651 24.3385 385.055 23.7188 385.336C23.1042 385.617 22.3568 385.758 21.4766 385.758ZM34.8203 388.445V390H28.7812V388.445H34.8203ZM29.3359 378.625V390H27.375V378.625H29.3359ZM34.0312 383.375V384.906H28.7812V383.375H34.0312ZM34.7812 378.625V380.188H28.7812V378.625H34.7812ZM45.4453 378.625V390H43.4844L38.3828 381.852V390H36.4219V378.625H38.3828L43.5 386.789V378.625H45.4453ZM56.5156 384.188V388.531C56.3542 388.745 56.1016 388.979 55.7578 389.234C55.4193 389.484 54.9688 389.701 54.4062 389.883C53.8438 390.065 53.1432 390.156 52.3047 390.156C51.5911 390.156 50.9375 390.036 50.3438 389.797C49.75 389.552 49.237 389.195 48.8047 388.727C48.3776 388.258 48.0469 387.688 47.8125 387.016C47.5781 386.339 47.4609 385.568 47.4609 384.703V383.914C47.4609 383.055 47.5677 382.289 47.7812 381.617C48 380.94 48.3125 380.367 48.7188 379.898C49.125 379.43 49.6146 379.076 50.1875 378.836C50.7656 378.591 51.4193 378.469 52.1484 378.469C53.0807 378.469 53.8516 378.625 54.4609 378.938C55.0755 379.245 55.5495 379.672 55.8828 380.219C56.2161 380.766 56.4271 381.391 56.5156 382.094H54.5938C54.5312 381.698 54.4089 381.344 54.2266 381.031C54.0495 380.719 53.7943 380.474 53.4609 380.297C53.1328 380.115 52.7057 380.023 52.1797 380.023C51.7266 380.023 51.3281 380.109 50.9844 380.281C50.6406 380.453 50.3542 380.706 50.125 381.039C49.901 381.372 49.7318 381.779 49.6172 382.258C49.5026 382.737 49.4453 383.284 49.4453 383.898V384.703C49.4453 385.328 49.5104 385.883 49.6406 386.367C49.776 386.852 49.9688 387.26 50.2188 387.594C50.474 387.927 50.7839 388.18 51.1484 388.352C51.513 388.518 51.9245 388.602 52.3828 388.602C52.8307 388.602 53.1979 388.565 53.4844 388.492C53.7708 388.414 53.9974 388.323 54.1641 388.219C54.3359 388.109 54.4688 388.005 54.5625 387.906V385.648H52.1953V384.188H56.5156ZM65.0703 378.625H67.0234V386.227C67.0234 387.091 66.8359 387.815 66.4609 388.398C66.0859 388.982 65.5755 389.422 64.9297 389.719C64.2891 390.01 63.5729 390.156 62.7812 390.156C61.9635 390.156 61.2344 390.01 60.5938 389.719C59.9531 389.422 59.4479 388.982 59.0781 388.398C58.7135 387.815 58.5312 387.091 58.5312 386.227V378.625H60.4844V386.227C60.4844 386.773 60.5781 387.224 60.7656 387.578C60.9531 387.927 61.2188 388.185 61.5625 388.352C61.9062 388.518 62.3125 388.602 62.7812 388.602C63.25 388.602 63.6536 388.518 63.9922 388.352C64.3359 388.185 64.6016 387.927 64.7891 387.578C64.9766 387.224 65.0703 386.773 65.0703 386.227V378.625ZM71.25 378.625V390H69.2891V378.625H71.25ZM82.7109 378.625V390H80.75L75.6484 381.852V390H73.6875V378.625H75.6484L80.7656 386.789V378.625H82.7109ZM91.0312 387.07C91.0312 386.836 90.9948 386.628 90.9219 386.445C90.8542 386.263 90.7318 386.096 90.5547 385.945C90.3776 385.794 90.1276 385.648 89.8047 385.508C89.487 385.362 89.0807 385.214 88.5859 385.062C88.0443 384.896 87.5443 384.711 87.0859 384.508C86.6328 384.299 86.237 384.06 85.8984 383.789C85.5599 383.513 85.2969 383.198 85.1094 382.844C84.9219 382.484 84.8281 382.07 84.8281 381.602C84.8281 381.138 84.9245 380.716 85.1172 380.336C85.3151 379.956 85.5938 379.628 85.9531 379.352C86.3177 379.07 86.7474 378.854 87.2422 378.703C87.737 378.547 88.2839 378.469 88.8828 378.469C89.7266 378.469 90.4531 378.625 91.0625 378.938C91.6771 379.25 92.1484 379.669 92.4766 380.195C92.8099 380.721 92.9766 381.302 92.9766 381.938H91.0312C91.0312 381.562 90.9505 381.232 90.7891 380.945C90.6328 380.654 90.3932 380.424 90.0703 380.258C89.7526 380.091 89.349 380.008 88.8594 380.008C88.3958 380.008 88.0104 380.078 87.7031 380.219C87.3958 380.359 87.1667 380.549 87.0156 380.789C86.8646 381.029 86.7891 381.299 86.7891 381.602C86.7891 381.815 86.8385 382.01 86.9375 382.188C87.0365 382.359 87.1875 382.521 87.3906 382.672C87.5938 382.818 87.849 382.956 88.1562 383.086C88.4635 383.216 88.8255 383.341 89.2422 383.461C89.8724 383.648 90.4219 383.857 90.8906 384.086C91.3594 384.31 91.75 384.565 92.0625 384.852C92.375 385.138 92.6094 385.464 92.7656 385.828C92.9219 386.188 93 386.596 93 387.055C93 387.534 92.9036 387.966 92.7109 388.352C92.5182 388.732 92.2422 389.057 91.8828 389.328C91.5286 389.594 91.1016 389.799 90.6016 389.945C90.1068 390.086 89.5547 390.156 88.9453 390.156C88.3984 390.156 87.8594 390.083 87.3281 389.938C86.8021 389.792 86.3229 389.57 85.8906 389.273C85.4583 388.971 85.1146 388.596 84.8594 388.148C84.6042 387.695 84.4766 387.167 84.4766 386.562H86.4375C86.4375 386.932 86.5 387.247 86.625 387.508C86.7552 387.768 86.9349 387.982 87.1641 388.148C87.3932 388.31 87.6589 388.43 87.9609 388.508C88.2682 388.586 88.5964 388.625 88.9453 388.625C89.4036 388.625 89.7865 388.56 90.0938 388.43C90.4062 388.299 90.6406 388.117 90.7969 387.883C90.9531 387.648 91.0312 387.378 91.0312 387.07Z" fill="black"/>
<path fill-rule="evenodd" clip-rule="evenodd" d="M322.102 382.988C322.007 383.072 321.912 383.156 321.818 383.242C321.603 383.438 321.391 383.636 321.182 383.836C319.387 385.566 317.788 387.544 316.639 389.757C315.488 391.972 314.805 394.421 314.869 396.828C314.897 397.914 315.082 399.067 315.719 400.034C315.829 400.201 315.952 400.361 316.087 400.51L318.365 403.067L318.387 403.092C318.649 403.385 318.961 403.641 319.324 403.838C319.868 404.135 320.514 404.29 321.199 404.232C321.792 404.183 322.35 403.98 322.846 403.712C323.338 403.445 323.767 403.117 324.153 402.787C324.925 402.127 325.551 401.46 326.216 401.028C327.403 400.256 328.942 400.034 330.492 399.998C332.052 399.961 333.726 400.084 335.483 399.67C337.621 399.168 339.603 397.883 341.011 396.153C342.416 394.425 343.22 392.301 343.318 390.214C343.42 388.02 342.745 385.898 341.423 384.276C341.347 384.183 341.268 384.092 341.188 384.002L338.889 381.421C337.576 379.942 335.729 378.955 333.68 378.652C331.419 378.316 329.03 378.814 326.885 379.8C325.13 380.607 323.539 381.726 322.104 382.988L322.102 382.988ZM323.101 384.039C323.203 383.949 323.306 383.862 323.409 383.775C324.649 382.727 325.985 381.822 327.412 381.166C329.308 380.294 331.391 379.876 333.289 380.157C335.1 380.425 336.752 381.349 337.859 382.706C338.966 384.064 339.542 385.873 339.456 387.712C339.374 389.46 338.69 391.258 337.528 392.686C336.368 394.112 334.706 395.185 332.967 395.594C331.525 395.933 329.965 395.839 328.309 395.878C326.645 395.918 324.782 396.127 323.149 397.188C322.233 397.783 321.56 398.521 320.897 399.089C320.565 399.372 320.235 399.618 319.902 399.798C319.571 399.977 319.231 400.092 318.921 400.118C318.565 400.148 318.19 400.065 317.869 399.89C317.545 399.714 317.262 399.441 317.046 399.113C316.612 398.452 316.442 397.564 316.417 396.623C316.361 394.521 316.963 392.329 318.003 390.326C319.044 388.321 320.517 386.488 322.203 384.865C322.496 384.583 322.796 384.307 323.101 384.039L323.101 384.039ZM324.015 385.075C323.73 385.323 323.451 385.581 323.176 385.846C321.596 387.369 320.243 389.062 319.304 390.87C318.37 392.67 317.845 394.617 317.893 396.428C317.914 397.231 318.071 397.867 318.313 398.235C318.43 398.413 318.573 398.539 318.688 398.601C318.796 398.66 318.913 398.675 318.955 398.672C318.996 398.668 319.129 398.638 319.302 398.543C319.483 398.446 319.72 398.277 319.999 398.039C320.559 397.56 321.277 396.753 322.431 396.003C324.488 394.666 326.661 394.469 328.434 394.427C330.181 394.385 331.632 394.452 332.774 394.184C334.134 393.864 335.489 392.994 336.414 391.858C337.343 390.715 337.914 389.228 337.98 387.803C338.051 386.303 337.57 384.793 336.668 383.686C335.766 382.581 334.388 381.811 332.916 381.593C331.365 381.363 329.574 381.706 327.914 382.47C326.657 383.048 325.447 383.861 324.3 384.83C324.205 384.911 324.11 384.993 324.015 385.075L324.015 385.075ZM330.783 387.019C331.329 386.537 331.98 386.218 332.594 386.133C333.209 386.049 333.735 386.205 334.058 386.567C334.38 386.929 334.473 387.468 334.315 388.065C334.157 388.662 333.762 389.268 333.216 389.75C332.946 389.989 332.647 390.19 332.336 390.342C332.025 390.494 331.709 390.594 331.405 390.636C331.1 390.678 330.815 390.661 330.564 390.587C330.313 390.512 330.101 390.382 329.941 390.202C329.782 390.023 329.677 389.798 329.632 389.541C329.588 389.284 329.606 389 329.684 388.704C329.762 388.409 329.899 388.108 330.088 387.818C330.276 387.529 330.513 387.257 330.783 387.019Z" fill="#EE8383"/>
<path d="M353.06 386.664C350.626 388.795 350.333 392.902 350.333 392.902C327.313 388.178 322.689 405.507 322.689 405.507C322.689 405.507 337.887 415.124 351.592 396.11C351.592 396.11 354.604 398.932 357.844 398.854C357.844 398.854 355.025 396.697 353.741 393.425C352.458 390.153 353.06 386.664 353.06 386.664ZM328.479 403.047C327.939 403.257 327.313 402.946 327.08 402.352C326.847 401.758 327.095 401.106 327.635 400.896C328.174 400.687 328.8 400.998 329.033 401.591C329.266 402.185 329.018 402.837 328.479 403.047ZM333.678 405.705C333.652 405.837 333.566 405.934 333.457 405.976C333.387 406.004 333.306 406.008 333.225 405.983C333.02 405.92 332.889 405.694 332.934 405.478C333.738 401.587 330.821 399.796 330.698 399.722C330.508 399.609 330.43 399.36 330.522 399.165C330.613 398.97 330.84 398.902 331.03 399.013C331.066 399.035 334.613 401.186 333.678 405.705Z" fill="#7A7871"/>
<rect x="0.5" y="0.5" width="365" height="425" rx="4.5" stroke="url(#paint0_linear_126_27)"/>
<defs>
<linearGradient id="paint0_linear_126_27" x1="-16.2152" y1="63.1111" x2="444.96" y2="239.218" gradientUnits="userSpaceOnUse">
<stop stop-color="#FA6F32"/>
<stop offset="1" stop-color="#FE9013"/>
</linearGradient>
</defs>
</svg>
