<svg width="366" height="426" viewBox="0 0 366 426" fill="none" xmlns="http://www.w3.org/2000/svg">
<path d="M25.2944 397.336V408H24.3862L18.2559 398.889V408H17.355V397.336H18.2559L24.4009 406.447V397.336H25.2944ZM32.6333 406.579V402.492C32.6333 402.116 32.5552 401.792 32.3989 401.518C32.2427 401.245 32.0132 401.035 31.7104 400.888C31.4077 400.742 31.0342 400.668 30.5898 400.668C30.1797 400.668 29.8135 400.742 29.4912 400.888C29.1738 401.03 28.9224 401.223 28.7368 401.467C28.5562 401.706 28.4658 401.972 28.4658 402.265L27.5869 402.258C27.5869 401.96 27.6602 401.672 27.8066 401.394C27.9531 401.115 28.1606 400.866 28.4292 400.646C28.6978 400.427 29.0176 400.253 29.3887 400.126C29.7646 399.995 30.1772 399.929 30.6265 399.929C31.1929 399.929 31.6909 400.024 32.1206 400.214C32.5552 400.405 32.8945 400.69 33.1387 401.071C33.3828 401.452 33.5049 401.931 33.5049 402.507V406.337C33.5049 406.611 33.5244 406.894 33.5635 407.187C33.6074 407.48 33.6685 407.722 33.7466 407.912V408H32.8164C32.7578 407.824 32.7114 407.604 32.6772 407.341C32.6479 407.072 32.6333 406.818 32.6333 406.579ZM32.8384 403.386L32.853 404.06H31.1318C30.6826 404.06 30.2798 404.101 29.9233 404.184C29.5718 404.262 29.2739 404.379 29.0298 404.536C28.7856 404.687 28.5977 404.87 28.4658 405.085C28.3389 405.3 28.2754 405.544 28.2754 405.817C28.2754 406.101 28.3462 406.359 28.4878 406.594C28.6343 406.828 28.8394 407.016 29.103 407.158C29.3716 407.294 29.689 407.363 30.0552 407.363C30.5435 407.363 30.9731 407.272 31.3442 407.092C31.7202 406.911 32.0303 406.674 32.2744 406.381C32.5186 406.088 32.6821 405.769 32.7651 405.422L33.146 405.927C33.0825 406.171 32.9653 406.423 32.7944 406.682C32.6284 406.936 32.4111 407.175 32.1426 407.399C31.874 407.619 31.5566 407.8 31.1904 407.941C30.8291 408.078 30.4189 408.146 29.96 408.146C29.4424 408.146 28.9907 408.049 28.605 407.854C28.2241 407.658 27.9263 407.392 27.7114 407.055C27.5015 406.713 27.3965 406.328 27.3965 405.898C27.3965 405.507 27.4795 405.158 27.6455 404.851C27.8115 404.538 28.0508 404.274 28.3633 404.06C28.6807 403.84 29.0615 403.674 29.5059 403.562C29.9551 403.444 30.458 403.386 31.0146 403.386H32.8384ZM38.8516 400.075V400.793H34.8818V400.075H38.8516ZM36.3394 398.039H37.2109V406.074C37.2109 406.44 37.2598 406.716 37.3574 406.901C37.4551 407.087 37.582 407.211 37.7383 407.275C37.8945 407.338 38.063 407.37 38.2437 407.37C38.3755 407.37 38.5024 407.363 38.6245 407.348C38.7466 407.329 38.8564 407.309 38.9541 407.29L38.9907 408.029C38.8833 408.063 38.7441 408.09 38.5732 408.11C38.4023 408.134 38.2314 408.146 38.0605 408.146C37.7236 408.146 37.4258 408.085 37.167 407.963C36.9082 407.836 36.7056 407.622 36.5591 407.319C36.4126 407.011 36.3394 406.594 36.3394 406.066V398.039ZM41.6641 400.075V408H40.7925V400.075H41.6641ZM40.6387 397.783C40.6387 397.617 40.6899 397.478 40.7925 397.365C40.8999 397.248 41.0464 397.189 41.2319 397.189C41.4175 397.189 41.564 397.248 41.6714 397.365C41.7837 397.478 41.8398 397.617 41.8398 397.783C41.8398 397.944 41.7837 398.083 41.6714 398.2C41.564 398.312 41.4175 398.369 41.2319 398.369C41.0464 398.369 40.8999 398.312 40.7925 398.2C40.6899 398.083 40.6387 397.944 40.6387 397.783ZM46.3955 407.158L48.937 400.075H49.8379L46.8716 408H46.2344L46.3955 407.158ZM44.0957 400.075L46.6665 407.18L46.8057 408H46.1611L43.1875 400.075H44.0957ZM54.2397 408.146C53.7222 408.146 53.2461 408.051 52.8115 407.861C52.3818 407.67 52.0059 407.402 51.6836 407.055C51.3662 406.708 51.1196 406.298 50.9438 405.825C50.7729 405.346 50.6875 404.824 50.6875 404.257V403.942C50.6875 403.332 50.7778 402.78 50.9585 402.287C51.1392 401.794 51.3882 401.372 51.7056 401.02C52.0229 400.668 52.3843 400.4 52.7896 400.214C53.1997 400.024 53.6294 399.929 54.0786 399.929C54.5815 399.929 55.0283 400.019 55.4189 400.2C55.8096 400.375 56.1367 400.627 56.4004 400.954C56.6689 401.276 56.8716 401.66 57.0083 402.104C57.145 402.543 57.2134 403.029 57.2134 403.562V404.096H51.2148V403.349H56.3418V403.247C56.332 402.802 56.2417 402.387 56.0708 402.001C55.9048 401.611 55.6558 401.293 55.3237 401.049C54.9917 400.805 54.5767 400.683 54.0786 400.683C53.7075 400.683 53.3657 400.761 53.0532 400.917C52.7456 401.074 52.4795 401.298 52.2549 401.591C52.0352 401.879 51.8643 402.224 51.7422 402.624C51.625 403.02 51.5664 403.459 51.5664 403.942V404.257C51.5664 404.697 51.6299 405.107 51.7568 405.488C51.8887 405.864 52.0742 406.196 52.3135 406.484C52.5576 406.772 52.8457 406.997 53.1777 407.158C53.5098 407.319 53.876 407.399 54.2764 407.399C54.7451 407.399 55.1602 407.314 55.5215 407.143C55.8828 406.967 56.2075 406.691 56.4956 406.315L57.0449 406.74C56.874 406.994 56.6592 407.229 56.4004 407.443C56.1465 407.658 55.8413 407.829 55.4849 407.956C55.1284 408.083 54.7134 408.146 54.2397 408.146ZM65.5996 400.075V400.793H61.6299V400.075H65.5996ZM63.0874 398.039H63.959V406.074C63.959 406.44 64.0078 406.716 64.1055 406.901C64.2031 407.087 64.3301 407.211 64.4863 407.275C64.6426 407.338 64.811 407.37 64.9917 407.37C65.1235 407.37 65.2505 407.363 65.3726 407.348C65.4946 407.329 65.6045 407.309 65.7021 407.29L65.7388 408.029C65.6313 408.063 65.4922 408.09 65.3213 408.11C65.1504 408.134 64.9795 408.146 64.8086 408.146C64.4717 408.146 64.1738 408.085 63.915 407.963C63.6562 407.836 63.4536 407.622 63.3071 407.319C63.1606 407.011 63.0874 406.594 63.0874 406.066V398.039ZM66.8081 404.162V403.92C66.8081 403.344 66.8911 402.812 67.0571 402.324C67.2231 401.835 67.46 401.413 67.7676 401.057C68.0801 400.7 68.4536 400.424 68.8882 400.229C69.3228 400.029 69.8062 399.929 70.3384 399.929C70.8755 399.929 71.3613 400.029 71.7959 400.229C72.2305 400.424 72.604 400.7 72.9165 401.057C73.229 401.413 73.4683 401.835 73.6343 402.324C73.8003 402.812 73.8833 403.344 73.8833 403.92V404.162C73.8833 404.738 73.8003 405.271 73.6343 405.759C73.4683 406.242 73.229 406.662 72.9165 407.019C72.6089 407.375 72.2378 407.653 71.8032 407.854C71.3687 408.049 70.8853 408.146 70.353 408.146C69.8159 408.146 69.3301 408.049 68.8955 407.854C68.4609 407.653 68.0874 407.375 67.7749 407.019C67.4624 406.662 67.2231 406.242 67.0571 405.759C66.8911 405.271 66.8081 404.738 66.8081 404.162ZM67.6797 403.92V404.162C67.6797 404.597 67.7383 405.009 67.8555 405.4C67.9727 405.786 68.1436 406.13 68.3682 406.433C68.5928 406.73 68.8711 406.965 69.2031 407.136C69.5352 407.307 69.9185 407.392 70.353 407.392C70.7827 407.392 71.1611 407.307 71.4883 407.136C71.8203 406.965 72.0986 406.73 72.3232 406.433C72.5479 406.13 72.7163 405.786 72.8286 405.4C72.9458 405.009 73.0044 404.597 73.0044 404.162V403.92C73.0044 403.491 72.9458 403.083 72.8286 402.697C72.7163 402.312 72.5454 401.967 72.3159 401.665C72.0913 401.362 71.813 401.123 71.481 400.947C71.1489 400.771 70.7681 400.683 70.3384 400.683C69.9087 400.683 69.5278 400.771 69.1958 400.947C68.8687 401.123 68.5903 401.362 68.3608 401.665C68.1362 401.967 67.9653 402.312 67.8481 402.697C67.7358 403.083 67.6797 403.491 67.6797 403.92ZM83.0679 397.973L79.3765 408H78.439L82.4673 397.336H83.1191L83.0679 397.973ZM86.4224 408L82.7236 397.973L82.6724 397.336H83.3242L87.3599 408H86.4224ZM85.7632 404.235V405.012H80.1016V404.235H85.7632ZM90.2383 408H89.3667V399.094C89.3667 398.552 89.4595 398.095 89.645 397.724C89.8354 397.353 90.104 397.072 90.4507 396.882C90.8022 396.691 91.2197 396.596 91.7031 396.596C91.8545 396.596 92.0107 396.606 92.1719 396.625C92.333 396.64 92.4893 396.672 92.6406 396.721L92.5747 397.46C92.4526 397.426 92.3281 397.404 92.2012 397.395C92.0791 397.38 91.9351 397.373 91.769 397.373C91.4517 397.373 91.1782 397.441 90.9487 397.578C90.7192 397.709 90.5435 397.902 90.4214 398.156C90.2993 398.41 90.2383 398.723 90.2383 399.094V408ZM92.1279 400.075V400.793H88.0557V400.075H92.1279ZM94.5742 401.386V408H93.7026V400.075H94.5522L94.5742 401.386ZM97.3794 400.017L97.3574 400.822C97.2598 400.808 97.1646 400.795 97.0718 400.786C96.979 400.776 96.8789 400.771 96.7715 400.771C96.3906 400.771 96.0562 400.842 95.7681 400.983C95.4849 401.12 95.2456 401.313 95.0503 401.562C94.855 401.806 94.7061 402.094 94.6035 402.426C94.501 402.753 94.4424 403.105 94.4277 403.481L94.1055 403.605C94.1055 403.088 94.1592 402.607 94.2666 402.163C94.374 401.718 94.5376 401.33 94.7573 400.998C94.9819 400.661 95.2627 400.4 95.5996 400.214C95.9414 400.024 96.3418 399.929 96.8008 399.929C96.9131 399.929 97.0229 399.938 97.1304 399.958C97.2427 399.973 97.3257 399.992 97.3794 400.017ZM99.7305 400.075V408H98.8589V400.075H99.7305ZM98.7051 397.783C98.7051 397.617 98.7563 397.478 98.8589 397.365C98.9663 397.248 99.1128 397.189 99.2983 397.189C99.4839 397.189 99.6304 397.248 99.7378 397.365C99.8501 397.478 99.9062 397.617 99.9062 397.783C99.9062 397.944 99.8501 398.083 99.7378 398.2C99.6304 398.312 99.4839 398.369 99.2983 398.369C99.1128 398.369 98.9663 398.312 98.8589 398.2C98.7563 398.083 98.7051 397.944 98.7051 397.783ZM105.048 407.392C105.419 407.392 105.766 407.324 106.088 407.187C106.415 407.045 106.684 406.838 106.894 406.564C107.108 406.286 107.23 405.947 107.26 405.546H108.095C108.07 406.049 107.917 406.499 107.633 406.894C107.355 407.285 106.989 407.592 106.535 407.817C106.085 408.037 105.59 408.146 105.048 408.146C104.496 408.146 104.008 408.046 103.583 407.846C103.163 407.646 102.812 407.368 102.528 407.011C102.245 406.65 102.03 406.23 101.884 405.751C101.742 405.268 101.671 404.748 101.671 404.191V403.884C101.671 403.327 101.742 402.81 101.884 402.331C102.03 401.848 102.245 401.428 102.528 401.071C102.812 400.71 103.163 400.429 103.583 400.229C104.003 400.029 104.489 399.929 105.041 399.929C105.607 399.929 106.115 400.043 106.564 400.273C107.018 400.502 107.379 400.827 107.648 401.247C107.921 401.667 108.07 402.165 108.095 402.741H107.26C107.235 402.316 107.123 401.95 106.923 401.643C106.723 401.335 106.459 401.098 106.132 400.932C105.805 400.766 105.441 400.683 105.041 400.683C104.591 400.683 104.208 400.771 103.891 400.947C103.573 401.118 103.314 401.354 103.114 401.657C102.919 401.955 102.775 402.297 102.682 402.683C102.589 403.063 102.543 403.464 102.543 403.884V404.191C102.543 404.616 102.587 405.021 102.675 405.407C102.768 405.788 102.912 406.127 103.107 406.425C103.307 406.723 103.566 406.96 103.883 407.136C104.206 407.307 104.594 407.392 105.048 407.392ZM114.679 406.579V402.492C114.679 402.116 114.601 401.792 114.445 401.518C114.289 401.245 114.059 401.035 113.756 400.888C113.454 400.742 113.08 400.668 112.636 400.668C112.226 400.668 111.859 400.742 111.537 400.888C111.22 401.03 110.968 401.223 110.783 401.467C110.602 401.706 110.512 401.972 110.512 402.265L109.633 402.258C109.633 401.96 109.706 401.672 109.853 401.394C109.999 401.115 110.207 400.866 110.475 400.646C110.744 400.427 111.063 400.253 111.435 400.126C111.811 399.995 112.223 399.929 112.672 399.929C113.239 399.929 113.737 400.024 114.167 400.214C114.601 400.405 114.94 400.69 115.185 401.071C115.429 401.452 115.551 401.931 115.551 402.507V406.337C115.551 406.611 115.57 406.894 115.609 407.187C115.653 407.48 115.714 407.722 115.792 407.912V408H114.862C114.804 407.824 114.757 407.604 114.723 407.341C114.694 407.072 114.679 406.818 114.679 406.579ZM114.884 403.386L114.899 404.06H113.178C112.729 404.06 112.326 404.101 111.969 404.184C111.618 404.262 111.32 404.379 111.076 404.536C110.832 404.687 110.644 404.87 110.512 405.085C110.385 405.3 110.321 405.544 110.321 405.817C110.321 406.101 110.392 406.359 110.534 406.594C110.68 406.828 110.885 407.016 111.149 407.158C111.417 407.294 111.735 407.363 112.101 407.363C112.589 407.363 113.019 407.272 113.39 407.092C113.766 406.911 114.076 406.674 114.32 406.381C114.564 406.088 114.728 405.769 114.811 405.422L115.192 405.927C115.128 406.171 115.011 406.423 114.84 406.682C114.674 406.936 114.457 407.175 114.188 407.399C113.92 407.619 113.603 407.8 113.236 407.941C112.875 408.078 112.465 408.146 112.006 408.146C111.488 408.146 111.037 408.049 110.651 407.854C110.27 407.658 109.972 407.392 109.757 407.055C109.547 406.713 109.442 406.328 109.442 405.898C109.442 405.507 109.525 405.158 109.691 404.851C109.857 404.538 110.097 404.274 110.409 404.06C110.727 403.84 111.107 403.674 111.552 403.562C112.001 403.444 112.504 403.386 113.061 403.386H114.884Z" fill="black"/>
<path d="M23.875 386.297H25.8281C25.7656 387.042 25.5573 387.706 25.2031 388.289C24.849 388.867 24.3516 389.323 23.7109 389.656C23.0703 389.99 22.2917 390.156 21.375 390.156C20.6719 390.156 20.0391 390.031 19.4766 389.781C18.9141 389.526 18.4323 389.167 18.0312 388.703C17.6302 388.234 17.3229 387.669 17.1094 387.008C16.901 386.346 16.7969 385.607 16.7969 384.789V383.844C16.7969 383.026 16.9036 382.286 17.1172 381.625C17.3359 380.964 17.6484 380.398 18.0547 379.93C18.4609 379.456 18.9479 379.094 19.5156 378.844C20.0885 378.594 20.7318 378.469 21.4453 378.469C22.3516 378.469 23.1172 378.635 23.7422 378.969C24.3672 379.302 24.8516 379.763 25.1953 380.352C25.5443 380.94 25.7578 381.615 25.8359 382.375H23.8828C23.8307 381.885 23.7161 381.466 23.5391 381.117C23.3672 380.768 23.112 380.503 22.7734 380.32C22.4349 380.133 21.9922 380.039 21.4453 380.039C20.9974 380.039 20.6068 380.122 20.2734 380.289C19.9401 380.456 19.6615 380.701 19.4375 381.023C19.2135 381.346 19.0443 381.745 18.9297 382.219C18.8203 382.688 18.7656 383.224 18.7656 383.828V384.789C18.7656 385.362 18.8151 385.883 18.9141 386.352C19.0182 386.815 19.1745 387.214 19.3828 387.547C19.5964 387.88 19.8672 388.138 20.1953 388.32C20.5234 388.503 20.9167 388.594 21.375 388.594C21.9323 388.594 22.3828 388.505 22.7266 388.328C23.0755 388.151 23.3385 387.893 23.5156 387.555C23.6979 387.211 23.8177 386.792 23.875 386.297ZM35.125 383.375V384.93H29.0859V383.375H35.125ZM29.5703 378.625V390H27.6094V378.625H29.5703ZM36.6328 378.625V390H34.6797V378.625H36.6328ZM46.4141 388.445V390H40.375V388.445H46.4141ZM40.9297 378.625V390H38.9688V378.625H40.9297ZM45.625 383.375V384.906H40.375V383.375H45.625ZM46.375 378.625V380.188H40.375V378.625H46.375ZM55.4609 388.445V390H49.4219V388.445H55.4609ZM49.9766 378.625V390H48.0156V378.625H49.9766ZM54.6719 383.375V384.906H49.4219V383.375H54.6719ZM55.4219 378.625V380.188H49.4219V378.625H55.4219ZM61.8984 378.625V390H59.9531V378.625H61.8984ZM65.4688 378.625V380.188H56.4141V378.625H65.4688ZM70.6484 380.141L67.25 390H65.1953L69.4766 378.625H70.7891L70.6484 380.141ZM73.4922 390L70.0859 380.141L69.9375 378.625H71.2578L75.5547 390H73.4922ZM73.3281 385.781V387.336H67.1406V385.781H73.3281ZM84.3438 383.375V384.93H78.3047V383.375H84.3438ZM78.7891 378.625V390H76.8281V378.625H78.7891ZM85.8516 378.625V390H83.8984V378.625H85.8516ZM94.1719 387.07C94.1719 386.836 94.1354 386.628 94.0625 386.445C93.9948 386.263 93.8724 386.096 93.6953 385.945C93.5182 385.794 93.2682 385.648 92.9453 385.508C92.6276 385.362 92.2214 385.214 91.7266 385.062C91.1849 384.896 90.6849 384.711 90.2266 384.508C89.7734 384.299 89.3776 384.06 89.0391 383.789C88.7005 383.513 88.4375 383.198 88.25 382.844C88.0625 382.484 87.9688 382.07 87.9688 381.602C87.9688 381.138 88.0651 380.716 88.2578 380.336C88.4557 379.956 88.7344 379.628 89.0938 379.352C89.4583 379.07 89.888 378.854 90.3828 378.703C90.8776 378.547 91.4245 378.469 92.0234 378.469C92.8672 378.469 93.5938 378.625 94.2031 378.938C94.8177 379.25 95.2891 379.669 95.6172 380.195C95.9505 380.721 96.1172 381.302 96.1172 381.938H94.1719C94.1719 381.562 94.0911 381.232 93.9297 380.945C93.7734 380.654 93.5339 380.424 93.2109 380.258C92.8932 380.091 92.4896 380.008 92 380.008C91.5365 380.008 91.151 380.078 90.8438 380.219C90.5365 380.359 90.3073 380.549 90.1562 380.789C90.0052 381.029 89.9297 381.299 89.9297 381.602C89.9297 381.815 89.9792 382.01 90.0781 382.188C90.1771 382.359 90.3281 382.521 90.5312 382.672C90.7344 382.818 90.9896 382.956 91.2969 383.086C91.6042 383.216 91.9661 383.341 92.3828 383.461C93.013 383.648 93.5625 383.857 94.0312 384.086C94.5 384.31 94.8906 384.565 95.2031 384.852C95.5156 385.138 95.75 385.464 95.9062 385.828C96.0625 386.188 96.1406 386.596 96.1406 387.055C96.1406 387.534 96.0443 387.966 95.8516 388.352C95.6589 388.732 95.3828 389.057 95.0234 389.328C94.6693 389.594 94.2422 389.799 93.7422 389.945C93.2474 390.086 92.6953 390.156 92.0859 390.156C91.5391 390.156 91 390.083 90.4688 389.938C89.9427 389.792 89.4635 389.57 89.0312 389.273C88.599 388.971 88.2552 388.596 88 388.148C87.7448 387.695 87.6172 387.167 87.6172 386.562H89.5781C89.5781 386.932 89.6406 387.247 89.7656 387.508C89.8958 387.768 90.0755 387.982 90.3047 388.148C90.5339 388.31 90.7995 388.43 91.1016 388.508C91.4089 388.586 91.737 388.625 92.0859 388.625C92.5443 388.625 92.9271 388.56 93.2344 388.43C93.5469 388.299 93.7812 388.117 93.9375 387.883C94.0938 387.648 94.1719 387.378 94.1719 387.07Z" fill="black"/>
<path fill-rule="evenodd" clip-rule="evenodd" d="M322.102 382.988C322.007 383.072 321.912 383.156 321.818 383.242C321.603 383.438 321.391 383.636 321.182 383.836C319.387 385.566 317.788 387.544 316.639 389.757C315.488 391.972 314.805 394.421 314.869 396.828C314.897 397.914 315.082 399.067 315.719 400.034C315.829 400.201 315.952 400.361 316.087 400.51L318.365 403.067L318.387 403.092C318.649 403.385 318.961 403.641 319.324 403.838C319.868 404.135 320.514 404.29 321.199 404.232C321.792 404.183 322.35 403.98 322.846 403.712C323.338 403.445 323.767 403.117 324.153 402.787C324.925 402.127 325.551 401.46 326.216 401.028C327.403 400.256 328.942 400.034 330.492 399.998C332.052 399.961 333.726 400.084 335.483 399.67C337.621 399.168 339.603 397.883 341.011 396.153C342.416 394.425 343.22 392.301 343.318 390.214C343.42 388.02 342.745 385.898 341.423 384.276C341.347 384.183 341.268 384.092 341.188 384.002L338.889 381.421C337.576 379.942 335.729 378.955 333.68 378.652C331.419 378.316 329.03 378.814 326.885 379.8C325.13 380.607 323.539 381.726 322.104 382.988L322.102 382.988ZM323.101 384.039C323.203 383.949 323.306 383.862 323.409 383.775C324.649 382.727 325.985 381.822 327.412 381.166C329.308 380.294 331.391 379.876 333.289 380.157C335.1 380.425 336.752 381.349 337.859 382.706C338.966 384.064 339.542 385.873 339.456 387.712C339.374 389.46 338.69 391.258 337.528 392.686C336.368 394.112 334.706 395.185 332.967 395.594C331.525 395.933 329.965 395.839 328.309 395.878C326.645 395.918 324.782 396.127 323.149 397.188C322.233 397.783 321.56 398.521 320.897 399.089C320.565 399.372 320.235 399.618 319.902 399.798C319.571 399.977 319.231 400.092 318.921 400.118C318.565 400.148 318.19 400.065 317.869 399.89C317.545 399.714 317.262 399.441 317.046 399.113C316.612 398.452 316.442 397.564 316.417 396.623C316.361 394.521 316.963 392.329 318.003 390.326C319.044 388.321 320.517 386.488 322.203 384.865C322.496 384.583 322.796 384.307 323.101 384.039L323.101 384.039ZM324.015 385.075C323.73 385.323 323.451 385.581 323.176 385.846C321.596 387.369 320.243 389.062 319.304 390.87C318.37 392.67 317.845 394.617 317.893 396.428C317.914 397.231 318.071 397.867 318.313 398.235C318.43 398.413 318.573 398.539 318.688 398.601C318.796 398.66 318.913 398.675 318.955 398.672C318.996 398.668 319.129 398.638 319.302 398.543C319.483 398.446 319.72 398.277 319.999 398.039C320.559 397.56 321.277 396.753 322.431 396.003C324.488 394.666 326.661 394.469 328.434 394.427C330.181 394.385 331.632 394.452 332.774 394.184C334.134 393.864 335.489 392.994 336.414 391.858C337.343 390.715 337.914 389.228 337.98 387.803C338.051 386.303 337.57 384.793 336.668 383.686C335.766 382.581 334.388 381.811 332.916 381.593C331.365 381.363 329.574 381.706 327.914 382.47C326.657 383.048 325.447 383.861 324.3 384.83C324.205 384.911 324.11 384.993 324.015 385.075L324.015 385.075ZM330.783 387.019C331.329 386.537 331.98 386.218 332.594 386.133C333.209 386.049 333.735 386.205 334.058 386.567C334.38 386.929 334.473 387.468 334.315 388.065C334.157 388.662 333.762 389.268 333.216 389.75C332.946 389.989 332.647 390.19 332.336 390.342C332.025 390.494 331.709 390.594 331.405 390.636C331.1 390.678 330.815 390.661 330.564 390.587C330.313 390.512 330.101 390.382 329.941 390.202C329.782 390.023 329.677 389.798 329.632 389.541C329.588 389.284 329.606 389 329.684 388.704C329.762 388.409 329.899 388.108 330.088 387.818C330.276 387.529 330.513 387.257 330.783 387.019Z" fill="#EE8383"/>
<path d="M353.06 386.664C350.626 388.795 350.333 392.902 350.333 392.902C327.313 388.178 322.689 405.507 322.689 405.507C322.689 405.507 337.887 415.124 351.592 396.11C351.592 396.11 354.604 398.932 357.844 398.854C357.844 398.854 355.025 396.697 353.741 393.425C352.458 390.153 353.06 386.664 353.06 386.664ZM328.479 403.047C327.939 403.257 327.313 402.946 327.08 402.352C326.847 401.758 327.095 401.106 327.635 400.896C328.174 400.687 328.8 400.998 329.033 401.591C329.266 402.185 329.018 402.837 328.479 403.047ZM333.678 405.705C333.652 405.837 333.566 405.934 333.457 405.976C333.387 406.004 333.306 406.008 333.225 405.983C333.02 405.92 332.889 405.694 332.934 405.478C333.738 401.587 330.821 399.796 330.698 399.722C330.508 399.609 330.43 399.36 330.522 399.165C330.613 398.97 330.84 398.902 331.03 399.013C331.066 399.035 334.613 401.186 333.678 405.705Z" fill="#7A7871"/>
<path fill-rule="evenodd" clip-rule="evenodd" d="M345.398 407.625C344.937 405.981 343.564 404.05 342.494 401.964C343.411 403.752 344.328 405.539 345.398 407.625ZM347.982 407.437C346.455 405.208 345.536 402.67 344.617 400.132C343.855 399.393 343.248 399.702 342.64 400.011C341.579 400.927 340.515 401.093 341.733 401.975C343.26 404.204 344.33 406.29 345.096 408.53C345.4 408.375 346.007 408.066 346.311 407.912C346.918 407.602 347.069 407.15 347.982 407.437ZM341.424 399.879C340.963 398.235 339.589 396.304 338.519 394.218C339.436 396.006 340.354 397.793 341.424 399.879ZM337.296 391.835C336.989 390.488 335.462 388.26 334.545 386.472C335.462 388.26 336.226 389.749 337.449 392.133C337.449 392.133 337.449 392.133 337.296 391.835ZM339.881 391.647C338.507 389.716 337.588 387.178 336.516 384.342C335.906 383.901 335.299 384.21 334.692 384.519C333.63 385.435 332.566 385.6 333.785 386.483C335.158 388.414 336.381 390.797 337.148 393.038C337.451 392.883 338.059 392.574 338.362 392.419C338.817 391.812 339.12 391.658 339.881 391.647ZM333.322 384.089C333.014 382.742 331.488 380.513 330.571 378.726C331.488 380.513 332.252 382.003 333.475 384.386L333.322 384.089ZM335.906 383.901C334.533 381.97 333.613 379.432 332.541 376.596C331.932 376.155 331.325 376.464 330.717 376.773C329.656 377.689 328.439 377.556 329.811 378.737C331.184 380.668 332.407 383.051 333.173 385.291C333.477 385.137 334.084 384.828 334.235 384.375C334.842 384.066 335.146 383.912 335.906 383.901ZM335.322 392.464C334.105 392.332 333.192 392.045 331.975 391.913C333.192 392.045 333.952 392.034 335.322 392.464C333.496 391.89 332.126 391.46 330.453 391.185C331.822 391.615 333.039 391.747 334.865 392.321C332.886 391.449 331.213 391.173 329.691 390.445C331.06 390.875 332.43 391.306 334.409 392.177C332.733 391.151 330.907 390.578 329.081 390.004C330.907 390.578 332.886 391.449 335.322 392.464C335.778 392.607 335.778 392.607 335.322 392.464ZM334.714 392.773C334.714 392.773 334.411 392.928 334.258 392.63C331.977 392.663 330.001 392.542 328.177 392.719C329.85 392.994 331.674 392.818 333.498 392.641C331.674 392.818 330.153 392.84 328.786 393.16C330.306 393.138 332.13 392.961 333.954 392.784C332.434 392.806 331.066 393.127 329.699 393.447C331.523 393.27 332.89 392.95 334.411 392.928C333.347 393.093 332.283 393.259 331.219 393.425C332.283 393.259 333.347 393.093 334.411 392.928C334.714 392.773 334.714 392.773 334.714 392.773ZM335.632 394.561C335.024 394.87 334.57 395.477 333.659 395.94C334.266 395.631 334.721 395.024 335.632 394.561C334.721 395.024 333.659 395.94 332.748 396.404C333.659 395.94 334.417 395.179 335.328 394.715C334.113 395.333 332.899 395.951 331.837 396.867C332.595 396.106 333.81 395.488 335.024 394.87C333.81 395.488 332.595 396.106 331.38 396.724C332.595 396.106 333.96 395.035 335.479 394.263C335.782 394.108 335.935 394.406 335.632 394.561ZM335.784 394.858C335.481 395.013 335.481 395.013 335.481 395.013C334.268 396.382 333.359 397.596 332.754 398.655C333.359 397.596 334.268 396.382 335.026 395.62C334.421 396.679 333.663 397.441 333.058 398.5C333.663 397.441 334.572 396.227 335.177 395.168C334.572 396.227 334.27 397.132 333.816 397.739C334.27 397.132 334.876 396.072 335.481 395.013C335.179 395.918 334.725 396.525 334.574 396.977C335.028 396.37 335.026 395.62 335.481 395.013L335.784 394.858ZM336.542 394.097C336.846 393.942 336.846 393.942 337.15 393.788C337.303 394.086 337.303 394.086 337.759 394.229C339.286 396.458 340.356 398.544 341.122 400.784C341.426 400.629 342.033 400.32 342.337 400.165C342.791 399.558 343.095 399.404 343.855 399.393C342.481 397.462 341.562 394.924 340.49 392.088C339.881 391.647 339.273 391.956 338.666 392.265C337.908 393.026 337.148 393.038 336.997 393.49C336.844 393.192 336.388 393.049 336.235 392.751C336.082 392.453 335.625 392.309 334.863 391.57C332.884 390.699 329.689 389.695 328.016 389.419C328.474 390.313 330.909 391.328 332.888 392.199C330.912 392.078 328.327 392.266 326.809 393.039C328.332 393.767 333.956 393.535 335.627 393.06C335.627 393.06 335.931 392.905 336.084 393.203C336.54 393.347 336.997 393.49 337.15 393.788C336.846 393.942 336.542 394.097 336.086 393.954C336.086 393.954 335.782 394.108 335.175 394.417C333.504 394.892 331.531 396.272 330.47 397.188C331.383 397.474 333.204 396.547 334.57 395.477C333.661 396.691 332.601 398.357 331.996 399.416C333.363 399.096 335.786 395.609 335.935 394.406C336.239 394.251 336.239 394.251 336.542 394.097Z" fill="#468E0D"/>
<path d="M349.174 386.239L349.178 386.225L349.178 386.211L349.082 380.153L349.082 380.143L349.08 380.133C349.031 379.911 349.138 379.696 349.374 379.522C349.61 379.348 349.962 379.228 350.354 379.205C351.129 379.159 352.032 379.494 352.473 380.498C352.284 381.374 352.177 382.238 352.071 383.097L352.07 383.099C351.963 383.971 351.855 384.837 351.665 385.714L351.655 385.756L351.68 385.792C354.141 389.377 354.411 393.285 353.199 396.818C351.985 400.353 349.285 403.515 345.803 405.594C342.322 407.673 338.066 408.667 333.742 407.874C329.425 407.082 325.032 404.505 321.273 399.43C321.134 398.848 321.078 398.362 321.108 397.975C321.138 397.583 321.255 397.303 321.452 397.12C321.649 396.937 321.941 396.838 322.352 396.843C322.763 396.848 323.284 396.957 323.925 397.182C334.417 401.538 346.039 397.47 349.174 386.239Z" fill="#FFEE2E" stroke="#468E0D" stroke-width="0.2"/>
<rect x="0.5" y="0.5" width="365" height="425" rx="4.5" stroke="url(#paint0_linear_126_30)"/>
<defs>
<linearGradient id="paint0_linear_126_30" x1="-16.2152" y1="63.1111" x2="444.96" y2="239.218" gradientUnits="userSpaceOnUse">
<stop stop-color="#FA6F32"/>
<stop offset="1" stop-color="#FE9013"/>
</linearGradient>
</defs>
</svg>
