<svg width="366" height="426" viewBox="0 0 366 426" fill="none" xmlns="http://www.w3.org/2000/svg">
<path d="M17.6333 397.336H18.5415L22.4819 406.726L26.4297 397.336H27.3306L22.8262 408H22.1377L17.6333 397.336ZM17.355 397.336H18.1533L18.2485 403.342V408H17.355V397.336ZM26.8252 397.336H27.6235V408H26.7227V403.342L26.8252 397.336ZM33.1899 408.146C32.6724 408.146 32.1963 408.051 31.7617 407.861C31.332 407.67 30.9561 407.402 30.6338 407.055C30.3164 406.708 30.0698 406.298 29.894 405.825C29.7231 405.346 29.6377 404.824 29.6377 404.257V403.942C29.6377 403.332 29.728 402.78 29.9087 402.287C30.0894 401.794 30.3384 401.372 30.6558 401.02C30.9731 400.668 31.3345 400.4 31.7397 400.214C32.1499 400.024 32.5796 399.929 33.0288 399.929C33.5317 399.929 33.9785 400.019 34.3691 400.2C34.7598 400.375 35.0869 400.627 35.3506 400.954C35.6191 401.276 35.8218 401.66 35.9585 402.104C36.0952 402.543 36.1636 403.029 36.1636 403.562V404.096H30.165V403.349H35.292V403.247C35.2822 402.802 35.1919 402.387 35.021 402.001C34.855 401.611 34.606 401.293 34.2739 401.049C33.9419 400.805 33.5269 400.683 33.0288 400.683C32.6577 400.683 32.3159 400.761 32.0034 400.917C31.6958 401.074 31.4297 401.298 31.2051 401.591C30.9854 401.879 30.8145 402.224 30.6924 402.624C30.5752 403.02 30.5166 403.459 30.5166 403.942V404.257C30.5166 404.697 30.5801 405.107 30.707 405.488C30.8389 405.864 31.0244 406.196 31.2637 406.484C31.5078 406.772 31.7959 406.997 32.1279 407.158C32.46 407.319 32.8262 407.399 33.2266 407.399C33.6953 407.399 34.1104 407.314 34.4717 407.143C34.833 406.967 35.1577 406.691 35.4458 406.315L35.9951 406.74C35.8242 406.994 35.6094 407.229 35.3506 407.443C35.0967 407.658 34.7915 407.829 34.4351 407.956C34.0786 408.083 33.6636 408.146 33.1899 408.146ZM42.6382 405.979C42.6382 405.764 42.5845 405.551 42.4771 405.341C42.3696 405.131 42.1621 404.938 41.8545 404.763C41.5518 404.587 41.105 404.438 40.5142 404.316C40.0747 404.218 39.6816 404.108 39.335 403.986C38.9932 403.864 38.7051 403.718 38.4707 403.547C38.2363 403.376 38.0581 403.171 37.936 402.932C37.814 402.692 37.7529 402.409 37.7529 402.082C37.7529 401.789 37.8164 401.513 37.9434 401.254C38.0752 400.991 38.2607 400.761 38.5 400.566C38.7441 400.366 39.0371 400.209 39.3789 400.097C39.7256 399.985 40.1138 399.929 40.5435 399.929C41.1538 399.929 41.6763 400.034 42.1108 400.244C42.5503 400.449 42.8848 400.729 43.1143 401.086C43.3486 401.442 43.4658 401.845 43.4658 402.294H42.5942C42.5942 402.021 42.5137 401.762 42.3525 401.518C42.1963 401.274 41.9644 401.074 41.6567 400.917C41.354 400.761 40.9829 400.683 40.5435 400.683C40.0894 400.683 39.7207 400.751 39.4375 400.888C39.1543 401.025 38.9468 401.198 38.8149 401.408C38.688 401.618 38.6245 401.835 38.6245 402.06C38.6245 402.236 38.6514 402.397 38.7051 402.543C38.7637 402.685 38.8662 402.817 39.0127 402.939C39.1641 403.061 39.3789 403.176 39.6572 403.283C39.9355 403.391 40.2969 403.496 40.7412 403.598C41.3809 403.74 41.9033 403.913 42.3086 404.118C42.7188 404.318 43.0215 404.567 43.2168 404.865C43.4121 405.158 43.5098 405.515 43.5098 405.935C43.5098 406.262 43.4414 406.562 43.3047 406.835C43.168 407.104 42.9702 407.336 42.7114 407.531C42.4575 407.727 42.1499 407.878 41.7886 407.985C41.4321 408.093 41.0317 408.146 40.5874 408.146C39.9185 408.146 39.3521 408.037 38.8882 407.817C38.4292 407.592 38.0801 407.299 37.8408 406.938C37.6064 406.572 37.4893 406.184 37.4893 405.773H38.3608C38.3901 406.184 38.5195 406.508 38.749 406.748C38.9785 406.982 39.2593 407.148 39.5913 407.246C39.9282 407.343 40.2603 407.392 40.5874 407.392C41.0366 407.392 41.4126 407.326 41.7153 407.194C42.0181 407.062 42.2476 406.889 42.4038 406.674C42.5601 406.459 42.6382 406.228 42.6382 405.979ZM45.0112 404.162V403.92C45.0112 403.344 45.0942 402.812 45.2603 402.324C45.4263 401.835 45.6631 401.413 45.9707 401.057C46.2832 400.7 46.6567 400.424 47.0913 400.229C47.5259 400.029 48.0093 399.929 48.5415 399.929C49.0786 399.929 49.5645 400.029 49.999 400.229C50.4336 400.424 50.8071 400.7 51.1196 401.057C51.4321 401.413 51.6714 401.835 51.8374 402.324C52.0034 402.812 52.0864 403.344 52.0864 403.92V404.162C52.0864 404.738 52.0034 405.271 51.8374 405.759C51.6714 406.242 51.4321 406.662 51.1196 407.019C50.812 407.375 50.4409 407.653 50.0063 407.854C49.5718 408.049 49.0884 408.146 48.5562 408.146C48.019 408.146 47.5332 408.049 47.0986 407.854C46.6641 407.653 46.2905 407.375 45.978 407.019C45.6655 406.662 45.4263 406.242 45.2603 405.759C45.0942 405.271 45.0112 404.738 45.0112 404.162ZM45.8828 403.92V404.162C45.8828 404.597 45.9414 405.009 46.0586 405.4C46.1758 405.786 46.3467 406.13 46.5713 406.433C46.7959 406.73 47.0742 406.965 47.4062 407.136C47.7383 407.307 48.1216 407.392 48.5562 407.392C48.9858 407.392 49.3643 407.307 49.6914 407.136C50.0234 406.965 50.3018 406.73 50.5264 406.433C50.751 406.13 50.9194 405.786 51.0317 405.4C51.1489 405.009 51.2075 404.597 51.2075 404.162V403.92C51.2075 403.491 51.1489 403.083 51.0317 402.697C50.9194 402.312 50.7485 401.967 50.519 401.665C50.2944 401.362 50.0161 401.123 49.6841 400.947C49.3521 400.771 48.9712 400.683 48.5415 400.683C48.1118 400.683 47.731 400.771 47.3989 400.947C47.0718 401.123 46.7935 401.362 46.564 401.665C46.3394 401.967 46.1685 402.312 46.0513 402.697C45.939 403.083 45.8828 403.491 45.8828 403.92ZM58.7222 406.579V402.492C58.7222 402.116 58.644 401.792 58.4878 401.518C58.3315 401.245 58.1021 401.035 57.7993 400.888C57.4966 400.742 57.123 400.668 56.6787 400.668C56.2686 400.668 55.9023 400.742 55.5801 400.888C55.2627 401.03 55.0112 401.223 54.8257 401.467C54.645 401.706 54.5547 401.972 54.5547 402.265L53.6758 402.258C53.6758 401.96 53.749 401.672 53.8955 401.394C54.042 401.115 54.2495 400.866 54.5181 400.646C54.7866 400.427 55.1064 400.253 55.4775 400.126C55.8535 399.995 56.2661 399.929 56.7153 399.929C57.2817 399.929 57.7798 400.024 58.2095 400.214C58.644 400.405 58.9834 400.69 59.2275 401.071C59.4717 401.452 59.5938 401.931 59.5938 402.507V406.337C59.5938 406.611 59.6133 406.894 59.6523 407.187C59.6963 407.48 59.7573 407.722 59.8354 407.912V408H58.9053C58.8467 407.824 58.8003 407.604 58.7661 407.341C58.7368 407.072 58.7222 406.818 58.7222 406.579ZM58.9272 403.386L58.9419 404.06H57.2207C56.7715 404.06 56.3687 404.101 56.0122 404.184C55.6606 404.262 55.3628 404.379 55.1187 404.536C54.8745 404.687 54.6865 404.87 54.5547 405.085C54.4277 405.3 54.3643 405.544 54.3643 405.817C54.3643 406.101 54.4351 406.359 54.5767 406.594C54.7231 406.828 54.9282 407.016 55.1919 407.158C55.4604 407.294 55.7778 407.363 56.144 407.363C56.6323 407.363 57.062 407.272 57.4331 407.092C57.8091 406.911 58.1191 406.674 58.3633 406.381C58.6074 406.088 58.771 405.769 58.854 405.422L59.2349 405.927C59.1714 406.171 59.0542 406.423 58.8833 406.682C58.7173 406.936 58.5 407.175 58.2314 407.399C57.9629 407.619 57.6455 407.8 57.2793 407.941C56.918 408.078 56.5078 408.146 56.0488 408.146C55.5312 408.146 55.0796 408.049 54.6938 407.854C54.313 407.658 54.0151 407.392 53.8003 407.055C53.5903 406.713 53.4854 406.328 53.4854 405.898C53.4854 405.507 53.5684 405.158 53.7344 404.851C53.9004 404.538 54.1396 404.274 54.4521 404.06C54.7695 403.84 55.1504 403.674 55.5947 403.562C56.0439 403.444 56.5469 403.386 57.1035 403.386H58.9272ZM62.7725 401.716V408H61.8936V400.075H62.7358L62.7725 401.716ZM62.6113 403.547L62.1865 403.327C62.2158 402.858 62.3037 402.419 62.4502 402.009C62.6016 401.599 62.8115 401.237 63.0801 400.925C63.3486 400.612 63.6709 400.368 64.0469 400.192C64.4229 400.017 64.8501 399.929 65.3286 399.929C65.7144 399.929 66.0635 399.982 66.376 400.09C66.6934 400.192 66.9619 400.356 67.1816 400.581C67.4062 400.8 67.5796 401.088 67.7017 401.445C67.8237 401.801 67.8848 402.229 67.8848 402.727V408H67.0132V402.756C67.0132 402.229 66.9302 401.816 66.7642 401.518C66.603 401.22 66.376 401.008 66.083 400.881C65.7949 400.754 65.4604 400.69 65.0796 400.69C64.6304 400.69 64.2495 400.783 63.937 400.969C63.6294 401.149 63.3779 401.386 63.1826 401.679C62.9922 401.967 62.8506 402.277 62.7578 402.609C62.665 402.937 62.6162 403.249 62.6113 403.547ZM67.8774 402.858L67.2915 402.873C67.3159 402.487 67.4038 402.119 67.5552 401.767C67.7114 401.416 67.9238 401.103 68.1924 400.83C68.4609 400.551 68.7808 400.332 69.1519 400.17C69.5278 400.009 69.9502 399.929 70.4189 399.929C70.8291 399.929 71.1953 399.985 71.5176 400.097C71.8398 400.205 72.1108 400.378 72.3306 400.617C72.5552 400.852 72.7261 401.152 72.8433 401.518C72.9604 401.884 73.019 402.324 73.019 402.836V408H72.1401V402.829C72.1401 402.268 72.0571 401.833 71.8911 401.525C71.73 401.213 71.5054 400.996 71.2173 400.874C70.9292 400.751 70.5923 400.69 70.2065 400.69C69.8257 400.695 69.4912 400.766 69.2031 400.903C68.915 401.035 68.6733 401.21 68.478 401.43C68.2876 401.645 68.1411 401.877 68.0386 402.126C67.9409 402.375 67.8872 402.619 67.8774 402.858ZM78.3071 408.146C77.7896 408.146 77.3135 408.051 76.8789 407.861C76.4492 407.67 76.0732 407.402 75.751 407.055C75.4336 406.708 75.187 406.298 75.0112 405.825C74.8403 405.346 74.7549 404.824 74.7549 404.257V403.942C74.7549 403.332 74.8452 402.78 75.0259 402.287C75.2065 401.794 75.4556 401.372 75.7729 401.02C76.0903 400.668 76.4517 400.4 76.8569 400.214C77.2671 400.024 77.6968 399.929 78.146 399.929C78.6489 399.929 79.0957 400.019 79.4863 400.2C79.877 400.375 80.2041 400.627 80.4678 400.954C80.7363 401.276 80.939 401.66 81.0757 402.104C81.2124 402.543 81.2808 403.029 81.2808 403.562V404.096H75.2822V403.349H80.4092V403.247C80.3994 402.802 80.3091 402.387 80.1382 402.001C79.9722 401.611 79.7231 401.293 79.3911 401.049C79.0591 400.805 78.644 400.683 78.146 400.683C77.7749 400.683 77.4331 400.761 77.1206 400.917C76.813 401.074 76.5469 401.298 76.3223 401.591C76.1025 401.879 75.9316 402.224 75.8096 402.624C75.6924 403.02 75.6338 403.459 75.6338 403.942V404.257C75.6338 404.697 75.6973 405.107 75.8242 405.488C75.9561 405.864 76.1416 406.196 76.3809 406.484C76.625 406.772 76.9131 406.997 77.2451 407.158C77.5771 407.319 77.9434 407.399 78.3438 407.399C78.8125 407.399 79.2275 407.314 79.5889 407.143C79.9502 406.967 80.2749 406.691 80.563 406.315L81.1123 406.74C80.9414 406.994 80.7266 407.229 80.4678 407.443C80.2139 407.658 79.9087 407.829 79.5522 407.956C79.1958 408.083 78.7808 408.146 78.3071 408.146ZM83.8809 401.386V408H83.0093V400.075H83.8589L83.8809 401.386ZM86.686 400.017L86.6641 400.822C86.5664 400.808 86.4712 400.795 86.3784 400.786C86.2856 400.776 86.1855 400.771 86.0781 400.771C85.6973 400.771 85.3628 400.842 85.0747 400.983C84.7915 401.12 84.5522 401.313 84.3569 401.562C84.1616 401.806 84.0127 402.094 83.9102 402.426C83.8076 402.753 83.749 403.105 83.7344 403.481L83.4121 403.605C83.4121 403.088 83.4658 402.607 83.5732 402.163C83.6807 401.718 83.8442 401.33 84.064 400.998C84.2886 400.661 84.5693 400.4 84.9062 400.214C85.248 400.024 85.6484 399.929 86.1074 399.929C86.2197 399.929 86.3296 399.938 86.437 399.958C86.5493 399.973 86.6323 399.992 86.686 400.017ZM89.0371 400.075V408H88.1655V400.075H89.0371ZM88.0117 397.783C88.0117 397.617 88.063 397.478 88.1655 397.365C88.2729 397.248 88.4194 397.189 88.605 397.189C88.7905 397.189 88.937 397.248 89.0444 397.365C89.1567 397.478 89.2129 397.617 89.2129 397.783C89.2129 397.944 89.1567 398.083 89.0444 398.2C88.937 398.312 88.7905 398.369 88.605 398.369C88.4194 398.369 88.2729 398.312 88.1655 398.2C88.063 398.083 88.0117 397.944 88.0117 397.783ZM94.3545 407.392C94.7256 407.392 95.0723 407.324 95.3945 407.187C95.7217 407.045 95.9902 406.838 96.2002 406.564C96.415 406.286 96.5371 405.947 96.5664 405.546H97.4014C97.377 406.049 97.2231 406.499 96.9399 406.894C96.6616 407.285 96.2954 407.592 95.8413 407.817C95.3921 408.037 94.8965 408.146 94.3545 408.146C93.8027 408.146 93.3145 408.046 92.8896 407.846C92.4697 407.646 92.1182 407.368 91.835 407.011C91.5518 406.65 91.3369 406.23 91.1904 405.751C91.0488 405.268 90.978 404.748 90.978 404.191V403.884C90.978 403.327 91.0488 402.81 91.1904 402.331C91.3369 401.848 91.5518 401.428 91.835 401.071C92.1182 400.71 92.4697 400.429 92.8896 400.229C93.3096 400.029 93.7954 399.929 94.3472 399.929C94.9136 399.929 95.4214 400.043 95.8706 400.273C96.3247 400.502 96.686 400.827 96.9546 401.247C97.228 401.667 97.377 402.165 97.4014 402.741H96.5664C96.542 402.316 96.4297 401.95 96.2295 401.643C96.0293 401.335 95.7656 401.098 95.4385 400.932C95.1113 400.766 94.7476 400.683 94.3472 400.683C93.8979 400.683 93.5146 400.771 93.1973 400.947C92.8799 401.118 92.6211 401.354 92.4209 401.657C92.2256 401.955 92.0815 402.297 91.9888 402.683C91.896 403.063 91.8496 403.464 91.8496 403.884V404.191C91.8496 404.616 91.8936 405.021 91.9814 405.407C92.0742 405.788 92.2183 406.127 92.4136 406.425C92.6138 406.723 92.8726 406.96 93.1899 407.136C93.5122 407.307 93.9004 407.392 94.3545 407.392ZM103.986 406.579V402.492C103.986 402.116 103.908 401.792 103.751 401.518C103.595 401.245 103.366 401.035 103.063 400.888C102.76 400.742 102.387 400.668 101.942 400.668C101.532 400.668 101.166 400.742 100.844 400.888C100.526 401.03 100.275 401.223 100.089 401.467C99.9087 401.706 99.8184 401.972 99.8184 402.265L98.9395 402.258C98.9395 401.96 99.0127 401.672 99.1592 401.394C99.3057 401.115 99.5132 400.866 99.7817 400.646C100.05 400.427 100.37 400.253 100.741 400.126C101.117 399.995 101.53 399.929 101.979 399.929C102.545 399.929 103.043 400.024 103.473 400.214C103.908 400.405 104.247 400.69 104.491 401.071C104.735 401.452 104.857 401.931 104.857 402.507V406.337C104.857 406.611 104.877 406.894 104.916 407.187C104.96 407.48 105.021 407.722 105.099 407.912V408H104.169C104.11 407.824 104.064 407.604 104.03 407.341C104 407.072 103.986 406.818 103.986 406.579ZM104.191 403.386L104.206 404.06H102.484C102.035 404.06 101.632 404.101 101.276 404.184C100.924 404.262 100.626 404.379 100.382 404.536C100.138 404.687 99.9502 404.87 99.8184 405.085C99.6914 405.3 99.6279 405.544 99.6279 405.817C99.6279 406.101 99.6987 406.359 99.8403 406.594C99.9868 406.828 100.192 407.016 100.456 407.158C100.724 407.294 101.042 407.363 101.408 407.363C101.896 407.363 102.326 407.272 102.697 407.092C103.073 406.911 103.383 406.674 103.627 406.381C103.871 406.088 104.035 405.769 104.118 405.422L104.499 405.927C104.435 406.171 104.318 406.423 104.147 406.682C103.981 406.936 103.764 407.175 103.495 407.399C103.227 407.619 102.909 407.8 102.543 407.941C102.182 408.078 101.771 408.146 101.312 408.146C100.795 408.146 100.343 408.049 99.9575 407.854C99.5767 407.658 99.2788 407.392 99.064 407.055C98.854 406.713 98.749 406.328 98.749 405.898C98.749 405.507 98.832 405.158 98.998 404.851C99.1641 404.538 99.4033 404.274 99.7158 404.06C100.033 403.84 100.414 403.674 100.858 403.562C101.308 403.444 101.811 403.386 102.367 403.386H104.191ZM108.051 406.616V407.641C108.051 408.09 107.958 408.522 107.772 408.938C107.587 409.357 107.335 409.711 107.018 410L106.505 409.619C106.657 409.414 106.784 409.208 106.886 409.003C106.989 408.803 107.064 408.593 107.113 408.374C107.167 408.154 107.194 407.917 107.194 407.663V406.616H108.051ZM119.997 405.378C119.997 405.085 119.948 404.824 119.85 404.594C119.752 404.365 119.591 404.16 119.367 403.979C119.147 403.793 118.849 403.623 118.473 403.466C118.102 403.305 117.638 403.146 117.082 402.99C116.549 402.839 116.068 402.673 115.639 402.492C115.209 402.312 114.84 402.104 114.533 401.87C114.23 401.635 113.998 401.362 113.837 401.049C113.676 400.732 113.595 400.363 113.595 399.943C113.595 399.533 113.683 399.16 113.859 398.823C114.035 398.486 114.281 398.195 114.599 397.951C114.921 397.707 115.299 397.519 115.734 397.387C116.173 397.255 116.654 397.189 117.177 397.189C117.924 397.189 118.568 397.331 119.11 397.614C119.657 397.897 120.08 398.281 120.377 398.764C120.68 399.243 120.832 399.78 120.832 400.375H119.931C119.931 399.912 119.821 399.499 119.601 399.138C119.386 398.771 119.074 398.486 118.664 398.281C118.258 398.071 117.763 397.966 117.177 397.966C116.591 397.966 116.098 398.056 115.697 398.237C115.302 398.413 115.001 398.649 114.796 398.947C114.596 399.24 114.496 399.567 114.496 399.929C114.496 400.183 114.545 400.417 114.643 400.632C114.74 400.842 114.899 401.04 115.119 401.225C115.343 401.406 115.639 401.577 116.005 401.738C116.371 401.894 116.823 402.043 117.36 402.185C117.926 402.341 118.429 402.514 118.869 402.705C119.308 402.895 119.679 403.115 119.982 403.364C120.285 403.608 120.514 403.894 120.67 404.221C120.827 404.548 120.905 404.929 120.905 405.363C120.905 405.798 120.812 406.188 120.626 406.535C120.446 406.877 120.189 407.167 119.857 407.407C119.53 407.646 119.142 407.829 118.693 407.956C118.249 408.083 117.763 408.146 117.235 408.146C116.762 408.146 116.291 408.085 115.822 407.963C115.353 407.841 114.923 407.653 114.533 407.399C114.147 407.141 113.837 406.809 113.603 406.403C113.373 405.998 113.258 405.515 113.258 404.953H114.152C114.152 405.402 114.242 405.781 114.423 406.088C114.604 406.396 114.843 406.645 115.141 406.835C115.443 407.026 115.775 407.165 116.137 407.253C116.503 407.336 116.869 407.377 117.235 407.377C117.797 407.377 118.283 407.294 118.693 407.128C119.108 406.962 119.428 406.73 119.652 406.433C119.882 406.13 119.997 405.778 119.997 405.378ZM122.165 404.162V403.92C122.165 403.344 122.248 402.812 122.414 402.324C122.58 401.835 122.816 401.413 123.124 401.057C123.437 400.7 123.81 400.424 124.245 400.229C124.679 400.029 125.163 399.929 125.695 399.929C126.232 399.929 126.718 400.029 127.152 400.229C127.587 400.424 127.96 400.7 128.273 401.057C128.585 401.413 128.825 401.835 128.991 402.324C129.157 402.812 129.24 403.344 129.24 403.92V404.162C129.24 404.738 129.157 405.271 128.991 405.759C128.825 406.242 128.585 406.662 128.273 407.019C127.965 407.375 127.594 407.653 127.16 407.854C126.725 408.049 126.242 408.146 125.709 408.146C125.172 408.146 124.687 408.049 124.252 407.854C123.817 407.653 123.444 407.375 123.131 407.019C122.819 406.662 122.58 406.242 122.414 405.759C122.248 405.271 122.165 404.738 122.165 404.162ZM123.036 403.92V404.162C123.036 404.597 123.095 405.009 123.212 405.4C123.329 405.786 123.5 406.13 123.725 406.433C123.949 406.73 124.228 406.965 124.56 407.136C124.892 407.307 125.275 407.392 125.709 407.392C126.139 407.392 126.518 407.307 126.845 407.136C127.177 406.965 127.455 406.73 127.68 406.433C127.904 406.13 128.073 405.786 128.185 405.4C128.302 405.009 128.361 404.597 128.361 404.162V403.92C128.361 403.491 128.302 403.083 128.185 402.697C128.073 402.312 127.902 401.967 127.672 401.665C127.448 401.362 127.169 401.123 126.837 400.947C126.505 400.771 126.125 400.683 125.695 400.683C125.265 400.683 124.884 400.771 124.552 400.947C124.225 401.123 123.947 401.362 123.717 401.665C123.493 401.967 123.322 402.312 123.205 402.697C123.092 403.083 123.036 403.491 123.036 403.92ZM136.132 406.169V400.075H137.011V408H136.168L136.132 406.169ZM136.293 404.704L136.747 404.689C136.747 405.188 136.688 405.646 136.571 406.066C136.454 406.486 136.271 406.853 136.022 407.165C135.773 407.478 135.451 407.719 135.055 407.89C134.66 408.061 134.184 408.146 133.627 408.146C133.241 408.146 132.887 408.093 132.565 407.985C132.248 407.873 131.974 407.697 131.745 407.458C131.515 407.219 131.337 406.909 131.21 406.528C131.088 406.147 131.027 405.686 131.027 405.144V400.075H131.898V405.158C131.898 405.583 131.945 405.937 132.038 406.22C132.135 406.503 132.267 406.73 132.433 406.901C132.604 407.072 132.799 407.194 133.019 407.268C133.239 407.341 133.476 407.377 133.729 407.377C134.374 407.377 134.882 407.253 135.253 407.004C135.629 406.755 135.895 406.428 136.051 406.022C136.212 405.612 136.293 405.173 136.293 404.704ZM142.299 400.075V400.793H138.329V400.075H142.299ZM139.787 398.039H140.658V406.074C140.658 406.44 140.707 406.716 140.805 406.901C140.902 407.087 141.029 407.211 141.186 407.275C141.342 407.338 141.51 407.37 141.691 407.37C141.823 407.37 141.95 407.363 142.072 407.348C142.194 407.329 142.304 407.309 142.401 407.29L142.438 408.029C142.331 408.063 142.191 408.09 142.021 408.11C141.85 408.134 141.679 408.146 141.508 408.146C141.171 408.146 140.873 408.085 140.614 407.963C140.355 407.836 140.153 407.622 140.006 407.319C139.86 407.011 139.787 406.594 139.787 406.066V398.039ZM145.009 396.75V408H144.137V396.75H145.009ZM144.811 403.547L144.423 403.327C144.452 402.858 144.547 402.419 144.708 402.009C144.87 401.599 145.087 401.237 145.36 400.925C145.639 400.612 145.963 400.368 146.334 400.192C146.71 400.017 147.125 399.929 147.58 399.929C147.975 399.929 148.329 399.982 148.642 400.09C148.954 400.197 149.22 400.368 149.44 400.603C149.66 400.837 149.826 401.137 149.938 401.503C150.055 401.87 150.114 402.316 150.114 402.844V408H149.235V402.836C149.235 402.29 149.159 401.862 149.008 401.555C148.856 401.242 148.642 401.02 148.363 400.888C148.085 400.756 147.755 400.69 147.375 400.69C146.955 400.69 146.586 400.783 146.269 400.969C145.956 401.149 145.692 401.386 145.478 401.679C145.268 401.967 145.106 402.277 144.994 402.609C144.882 402.937 144.821 403.249 144.811 403.547ZM159.738 397.973L156.046 408H155.109L159.137 397.336H159.789L159.738 397.973ZM163.092 408L159.394 397.973L159.342 397.336H159.994L164.03 408H163.092ZM162.433 404.235V405.012H156.771V404.235H162.433ZM166.234 401.716V408H165.355V400.075H166.198L166.234 401.716ZM166.073 403.547L165.648 403.327C165.678 402.858 165.766 402.419 165.912 402.009C166.063 401.599 166.273 401.237 166.542 400.925C166.811 400.612 167.133 400.368 167.509 400.192C167.885 400.017 168.312 399.929 168.791 399.929C169.176 399.929 169.525 399.982 169.838 400.09C170.155 400.192 170.424 400.356 170.644 400.581C170.868 400.8 171.042 401.088 171.164 401.445C171.286 401.801 171.347 402.229 171.347 402.727V408H170.475V402.756C170.475 402.229 170.392 401.816 170.226 401.518C170.065 401.22 169.838 401.008 169.545 400.881C169.257 400.754 168.922 400.69 168.542 400.69C168.092 400.69 167.711 400.783 167.399 400.969C167.091 401.149 166.84 401.386 166.645 401.679C166.454 401.967 166.312 402.277 166.22 402.609C166.127 402.937 166.078 403.249 166.073 403.547ZM171.339 402.858L170.753 402.873C170.778 402.487 170.866 402.119 171.017 401.767C171.173 401.416 171.386 401.103 171.654 400.83C171.923 400.551 172.243 400.332 172.614 400.17C172.99 400.009 173.412 399.929 173.881 399.929C174.291 399.929 174.657 399.985 174.979 400.097C175.302 400.205 175.573 400.378 175.792 400.617C176.017 400.852 176.188 401.152 176.305 401.518C176.422 401.884 176.481 402.324 176.481 402.836V408H175.602V402.829C175.602 402.268 175.519 401.833 175.353 401.525C175.192 401.213 174.967 400.996 174.679 400.874C174.391 400.751 174.054 400.69 173.668 400.69C173.288 400.695 172.953 400.766 172.665 400.903C172.377 401.035 172.135 401.21 171.94 401.43C171.75 401.645 171.603 401.877 171.5 402.126C171.403 402.375 171.349 402.619 171.339 402.858ZM181.769 408.146C181.251 408.146 180.775 408.051 180.341 407.861C179.911 407.67 179.535 407.402 179.213 407.055C178.896 406.708 178.649 406.298 178.473 405.825C178.302 405.346 178.217 404.824 178.217 404.257V403.942C178.217 403.332 178.307 402.78 178.488 402.287C178.668 401.794 178.917 401.372 179.235 401.02C179.552 400.668 179.914 400.4 180.319 400.214C180.729 400.024 181.159 399.929 181.608 399.929C182.111 399.929 182.558 400.019 182.948 400.2C183.339 400.375 183.666 400.627 183.93 400.954C184.198 401.276 184.401 401.66 184.538 402.104C184.674 402.543 184.743 403.029 184.743 403.562V404.096H178.744V403.349H183.871V403.247C183.861 402.802 183.771 402.387 183.6 402.001C183.434 401.611 183.185 401.293 182.853 401.049C182.521 400.805 182.106 400.683 181.608 400.683C181.237 400.683 180.895 400.761 180.583 400.917C180.275 401.074 180.009 401.298 179.784 401.591C179.564 401.879 179.394 402.224 179.271 402.624C179.154 403.02 179.096 403.459 179.096 403.942V404.257C179.096 404.697 179.159 405.107 179.286 405.488C179.418 405.864 179.604 406.196 179.843 406.484C180.087 406.772 180.375 406.997 180.707 407.158C181.039 407.319 181.405 407.399 181.806 407.399C182.274 407.399 182.689 407.314 183.051 407.143C183.412 406.967 183.737 406.691 184.025 406.315L184.574 406.74C184.403 406.994 184.188 407.229 183.93 407.443C183.676 407.658 183.371 407.829 183.014 407.956C182.658 408.083 182.243 408.146 181.769 408.146ZM187.343 401.386V408H186.471V400.075H187.321L187.343 401.386ZM190.148 400.017L190.126 400.822C190.028 400.808 189.933 400.795 189.84 400.786C189.748 400.776 189.647 400.771 189.54 400.771C189.159 400.771 188.825 400.842 188.537 400.983C188.253 401.12 188.014 401.313 187.819 401.562C187.624 401.806 187.475 402.094 187.372 402.426C187.27 402.753 187.211 403.105 187.196 403.481L186.874 403.605C186.874 403.088 186.928 402.607 187.035 402.163C187.143 401.718 187.306 401.33 187.526 400.998C187.75 400.661 188.031 400.4 188.368 400.214C188.71 400.024 189.11 399.929 189.569 399.929C189.682 399.929 189.792 399.938 189.899 399.958C190.011 399.973 190.094 399.992 190.148 400.017ZM192.499 400.075V408H191.627V400.075H192.499ZM191.474 397.783C191.474 397.617 191.525 397.478 191.627 397.365C191.735 397.248 191.881 397.189 192.067 397.189C192.252 397.189 192.399 397.248 192.506 397.365C192.619 397.478 192.675 397.617 192.675 397.783C192.675 397.944 192.619 398.083 192.506 398.2C192.399 398.312 192.252 398.369 192.067 398.369C191.881 398.369 191.735 398.312 191.627 398.2C191.525 398.083 191.474 397.944 191.474 397.783ZM197.816 407.392C198.188 407.392 198.534 407.324 198.856 407.187C199.184 407.045 199.452 406.838 199.662 406.564C199.877 406.286 199.999 405.947 200.028 405.546H200.863C200.839 406.049 200.685 406.499 200.402 406.894C200.124 407.285 199.757 407.592 199.303 407.817C198.854 408.037 198.358 408.146 197.816 408.146C197.265 408.146 196.776 408.046 196.352 407.846C195.932 407.646 195.58 407.368 195.297 407.011C195.014 406.65 194.799 406.23 194.652 405.751C194.511 405.268 194.44 404.748 194.44 404.191V403.884C194.44 403.327 194.511 402.81 194.652 402.331C194.799 401.848 195.014 401.428 195.297 401.071C195.58 400.71 195.932 400.429 196.352 400.229C196.771 400.029 197.257 399.929 197.809 399.929C198.375 399.929 198.883 400.043 199.333 400.273C199.787 400.502 200.148 400.827 200.417 401.247C200.69 401.667 200.839 402.165 200.863 402.741H200.028C200.004 402.316 199.892 401.95 199.691 401.643C199.491 401.335 199.228 401.098 198.9 400.932C198.573 400.766 198.209 400.683 197.809 400.683C197.36 400.683 196.977 400.771 196.659 400.947C196.342 401.118 196.083 401.354 195.883 401.657C195.688 401.955 195.543 402.297 195.451 402.683C195.358 403.063 195.312 403.464 195.312 403.884V404.191C195.312 404.616 195.355 405.021 195.443 405.407C195.536 405.788 195.68 406.127 195.875 406.425C196.076 406.723 196.334 406.96 196.652 407.136C196.974 407.307 197.362 407.392 197.816 407.392ZM207.448 406.579V402.492C207.448 402.116 207.37 401.792 207.213 401.518C207.057 401.245 206.828 401.035 206.525 400.888C206.222 400.742 205.849 400.668 205.404 400.668C204.994 400.668 204.628 400.742 204.306 400.888C203.988 401.03 203.737 401.223 203.551 401.467C203.371 401.706 203.28 401.972 203.28 402.265L202.401 402.258C202.401 401.96 202.475 401.672 202.621 401.394C202.768 401.115 202.975 400.866 203.244 400.646C203.512 400.427 203.832 400.253 204.203 400.126C204.579 399.995 204.992 399.929 205.441 399.929C206.007 399.929 206.505 400.024 206.935 400.214C207.37 400.405 207.709 400.69 207.953 401.071C208.197 401.452 208.319 401.931 208.319 402.507V406.337C208.319 406.611 208.339 406.894 208.378 407.187C208.422 407.48 208.483 407.722 208.561 407.912V408H207.631C207.572 407.824 207.526 407.604 207.492 407.341C207.462 407.072 207.448 406.818 207.448 406.579ZM207.653 403.386L207.667 404.06H205.946C205.497 404.06 205.094 404.101 204.738 404.184C204.386 404.262 204.088 404.379 203.844 404.536C203.6 404.687 203.412 404.87 203.28 405.085C203.153 405.3 203.09 405.544 203.09 405.817C203.09 406.101 203.161 406.359 203.302 406.594C203.449 406.828 203.654 407.016 203.917 407.158C204.186 407.294 204.503 407.363 204.87 407.363C205.358 407.363 205.788 407.272 206.159 407.092C206.535 406.911 206.845 406.674 207.089 406.381C207.333 406.088 207.497 405.769 207.58 405.422L207.96 405.927C207.897 406.171 207.78 406.423 207.609 406.682C207.443 406.936 207.226 407.175 206.957 407.399C206.688 407.619 206.371 407.8 206.005 407.941C205.644 408.078 205.233 408.146 204.774 408.146C204.257 408.146 203.805 408.049 203.419 407.854C203.039 407.658 202.741 407.392 202.526 407.055C202.316 406.713 202.211 406.328 202.211 405.898C202.211 405.507 202.294 405.158 202.46 404.851C202.626 404.538 202.865 404.274 203.178 404.06C203.495 403.84 203.876 403.674 204.32 403.562C204.77 403.444 205.272 403.386 205.829 403.386H207.653Z" fill="black"/>
<path d="M21.8359 378.625V390H19.8906V378.625H21.8359ZM25.4062 378.625V380.188H16.3516V378.625H25.4062ZM29.8828 387.445L32.1484 378.625H33.3359L33.2031 380.898L30.7812 390H29.5469L29.8828 387.445ZM28.1875 378.625L30.0234 387.375L30.1875 390H28.875L26.2422 378.625H28.1875ZM35.9062 387.352L37.7188 378.625H39.6719L37.0391 390H35.7266L35.9062 387.352ZM33.7969 378.625L36.0391 387.469L36.3672 390H35.1328L32.75 380.898L32.625 378.625H33.7969ZM50.1953 384V384.625C50.1953 385.484 50.0833 386.255 49.8594 386.938C49.6354 387.62 49.3151 388.201 48.8984 388.68C48.487 389.159 47.9922 389.526 47.4141 389.781C46.8359 390.031 46.1953 390.156 45.4922 390.156C44.7943 390.156 44.1562 390.031 43.5781 389.781C43.0052 389.526 42.5078 389.159 42.0859 388.68C41.6641 388.201 41.3359 387.62 41.1016 386.938C40.8724 386.255 40.7578 385.484 40.7578 384.625V384C40.7578 383.141 40.8724 382.372 41.1016 381.695C41.3307 381.013 41.6536 380.432 42.0703 379.953C42.4922 379.469 42.9896 379.102 43.5625 378.852C44.1406 378.596 44.7786 378.469 45.4766 378.469C46.1797 378.469 46.8203 378.596 47.3984 378.852C47.9766 379.102 48.474 379.469 48.8906 379.953C49.3073 380.432 49.6276 381.013 49.8516 381.695C50.0807 382.372 50.1953 383.141 50.1953 384ZM48.2344 384.625V383.984C48.2344 383.349 48.1719 382.789 48.0469 382.305C47.9271 381.815 47.7474 381.406 47.5078 381.078C47.2734 380.745 46.9844 380.495 46.6406 380.328C46.2969 380.156 45.9089 380.07 45.4766 380.07C45.0443 380.07 44.6589 380.156 44.3203 380.328C43.9818 380.495 43.6927 380.745 43.4531 381.078C43.2188 381.406 43.0391 381.815 42.9141 382.305C42.7891 382.789 42.7266 383.349 42.7266 383.984V384.625C42.7266 385.26 42.7891 385.823 42.9141 386.312C43.0391 386.802 43.2214 387.216 43.4609 387.555C43.7057 387.888 43.9974 388.141 44.3359 388.312C44.6745 388.479 45.0599 388.562 45.4922 388.562C45.9297 388.562 46.3177 388.479 46.6562 388.312C46.9948 388.141 47.2812 387.888 47.5156 387.555C47.75 387.216 47.9271 386.802 48.0469 386.312C48.1719 385.823 48.2344 385.26 48.2344 384.625ZM55.7578 384.391V385.891H51.625V384.391H55.7578ZM62.2734 378.625V390H60.3281V378.625H62.2734ZM65.8438 378.625V380.188H56.7891V378.625H65.8438ZM76.1953 384V384.625C76.1953 385.484 76.0833 386.255 75.8594 386.938C75.6354 387.62 75.3151 388.201 74.8984 388.68C74.487 389.159 73.9922 389.526 73.4141 389.781C72.8359 390.031 72.1953 390.156 71.4922 390.156C70.7943 390.156 70.1562 390.031 69.5781 389.781C69.0052 389.526 68.5078 389.159 68.0859 388.68C67.6641 388.201 67.3359 387.62 67.1016 386.938C66.8724 386.255 66.7578 385.484 66.7578 384.625V384C66.7578 383.141 66.8724 382.372 67.1016 381.695C67.3307 381.013 67.6536 380.432 68.0703 379.953C68.4922 379.469 68.9896 379.102 69.5625 378.852C70.1406 378.596 70.7786 378.469 71.4766 378.469C72.1797 378.469 72.8203 378.596 73.3984 378.852C73.9766 379.102 74.474 379.469 74.8906 379.953C75.3073 380.432 75.6276 381.013 75.8516 381.695C76.0807 382.372 76.1953 383.141 76.1953 384ZM74.2344 384.625V383.984C74.2344 383.349 74.1719 382.789 74.0469 382.305C73.9271 381.815 73.7474 381.406 73.5078 381.078C73.2734 380.745 72.9844 380.495 72.6406 380.328C72.2969 380.156 71.9089 380.07 71.4766 380.07C71.0443 380.07 70.6589 380.156 70.3203 380.328C69.9818 380.495 69.6927 380.745 69.4531 381.078C69.2188 381.406 69.0391 381.815 68.9141 382.305C68.7891 382.789 68.7266 383.349 68.7266 383.984V384.625C68.7266 385.26 68.7891 385.823 68.9141 386.312C69.0391 386.802 69.2214 387.216 69.4609 387.555C69.7057 387.888 69.9974 388.141 70.3359 388.312C70.6745 388.479 71.0599 388.562 71.4922 388.562C71.9297 388.562 72.3177 388.479 72.6562 388.312C72.9948 388.141 73.2812 387.888 73.5156 387.555C73.75 387.216 73.9271 386.802 74.0469 386.312C74.1719 385.823 74.2344 385.26 74.2344 384.625ZM85.6016 388.445V390H79.5625V388.445H85.6016ZM80.1172 378.625V390H78.1562V378.625H80.1172ZM84.8125 383.375V384.906H79.5625V383.375H84.8125ZM85.5625 378.625V380.188H79.5625V378.625H85.5625ZM90.5078 390H88.0781L88.0938 388.445H90.5078C91.2109 388.445 91.7995 388.292 92.2734 387.984C92.7526 387.677 93.112 387.237 93.3516 386.664C93.5964 386.091 93.7188 385.409 93.7188 384.617V384C93.7188 383.385 93.6484 382.841 93.5078 382.367C93.3724 381.893 93.1693 381.495 92.8984 381.172C92.6328 380.849 92.3047 380.604 91.9141 380.438C91.5286 380.271 91.0833 380.188 90.5781 380.188H88.0312V378.625H90.5781C91.3333 378.625 92.0234 378.753 92.6484 379.008C93.2734 379.258 93.8125 379.62 94.2656 380.094C94.724 380.568 95.0755 381.135 95.3203 381.797C95.5651 382.458 95.6875 383.198 95.6875 384.016V384.617C95.6875 385.435 95.5651 386.174 95.3203 386.836C95.0755 387.497 94.724 388.065 94.2656 388.539C93.8073 389.008 93.2604 389.37 92.625 389.625C91.9948 389.875 91.2891 390 90.5078 390ZM89.1641 378.625V390H87.2031V378.625H89.1641ZM107.625 387.07C107.625 386.836 107.589 386.628 107.516 386.445C107.448 386.263 107.326 386.096 107.148 385.945C106.971 385.794 106.721 385.648 106.398 385.508C106.081 385.362 105.674 385.214 105.18 385.062C104.638 384.896 104.138 384.711 103.68 384.508C103.227 384.299 102.831 384.06 102.492 383.789C102.154 383.513 101.891 383.198 101.703 382.844C101.516 382.484 101.422 382.07 101.422 381.602C101.422 381.138 101.518 380.716 101.711 380.336C101.909 379.956 102.188 379.628 102.547 379.352C102.911 379.07 103.341 378.854 103.836 378.703C104.331 378.547 104.878 378.469 105.477 378.469C106.32 378.469 107.047 378.625 107.656 378.938C108.271 379.25 108.742 379.669 109.07 380.195C109.404 380.721 109.57 381.302 109.57 381.938H107.625C107.625 381.562 107.544 381.232 107.383 380.945C107.227 380.654 106.987 380.424 106.664 380.258C106.346 380.091 105.943 380.008 105.453 380.008C104.99 380.008 104.604 380.078 104.297 380.219C103.99 380.359 103.76 380.549 103.609 380.789C103.458 381.029 103.383 381.299 103.383 381.602C103.383 381.815 103.432 382.01 103.531 382.188C103.63 382.359 103.781 382.521 103.984 382.672C104.188 382.818 104.443 382.956 104.75 383.086C105.057 383.216 105.419 383.341 105.836 383.461C106.466 383.648 107.016 383.857 107.484 384.086C107.953 384.31 108.344 384.565 108.656 384.852C108.969 385.138 109.203 385.464 109.359 385.828C109.516 386.188 109.594 386.596 109.594 387.055C109.594 387.534 109.497 387.966 109.305 388.352C109.112 388.732 108.836 389.057 108.477 389.328C108.122 389.594 107.695 389.799 107.195 389.945C106.701 390.086 106.148 390.156 105.539 390.156C104.992 390.156 104.453 390.083 103.922 389.938C103.396 389.792 102.917 389.57 102.484 389.273C102.052 388.971 101.708 388.596 101.453 388.148C101.198 387.695 101.07 387.167 101.07 386.562H103.031C103.031 386.932 103.094 387.247 103.219 387.508C103.349 387.768 103.529 387.982 103.758 388.148C103.987 388.31 104.253 388.43 104.555 388.508C104.862 388.586 105.19 388.625 105.539 388.625C105.997 388.625 106.38 388.56 106.688 388.43C107 388.299 107.234 388.117 107.391 387.883C107.547 387.648 107.625 387.378 107.625 387.07ZM118.453 388.445V390H112.742V388.445H118.453ZM113.289 378.625V390H111.328V378.625H113.289ZM128.523 384V384.625C128.523 385.484 128.411 386.255 128.188 386.938C127.964 387.62 127.643 388.201 127.227 388.68C126.815 389.159 126.32 389.526 125.742 389.781C125.164 390.031 124.523 390.156 123.82 390.156C123.122 390.156 122.484 390.031 121.906 389.781C121.333 389.526 120.836 389.159 120.414 388.68C119.992 388.201 119.664 387.62 119.43 386.938C119.201 386.255 119.086 385.484 119.086 384.625V384C119.086 383.141 119.201 382.372 119.43 381.695C119.659 381.013 119.982 380.432 120.398 379.953C120.82 379.469 121.318 379.102 121.891 378.852C122.469 378.596 123.107 378.469 123.805 378.469C124.508 378.469 125.148 378.596 125.727 378.852C126.305 379.102 126.802 379.469 127.219 379.953C127.635 380.432 127.956 381.013 128.18 381.695C128.409 382.372 128.523 383.141 128.523 384ZM126.562 384.625V383.984C126.562 383.349 126.5 382.789 126.375 382.305C126.255 381.815 126.076 381.406 125.836 381.078C125.602 380.745 125.312 380.495 124.969 380.328C124.625 380.156 124.237 380.07 123.805 380.07C123.372 380.07 122.987 380.156 122.648 380.328C122.31 380.495 122.021 380.745 121.781 381.078C121.547 381.406 121.367 381.815 121.242 382.305C121.117 382.789 121.055 383.349 121.055 383.984V384.625C121.055 385.26 121.117 385.823 121.242 386.312C121.367 386.802 121.549 387.216 121.789 387.555C122.034 387.888 122.326 388.141 122.664 388.312C123.003 388.479 123.388 388.562 123.82 388.562C124.258 388.562 124.646 388.479 124.984 388.312C125.323 388.141 125.609 387.888 125.844 387.555C126.078 387.216 126.255 386.802 126.375 386.312C126.5 385.823 126.562 385.26 126.562 384.625ZM134.773 378.625V390H132.828V378.625H134.773ZM138.344 378.625V380.188H129.289V378.625H138.344ZM147.359 383.375V384.93H141.32V383.375H147.359ZM141.805 378.625V390H139.844V378.625H141.805ZM148.867 378.625V390H146.914V378.625H148.867Z" fill="black"/>
<path fill-rule="evenodd" clip-rule="evenodd" d="M322.102 382.988C322.007 383.072 321.912 383.156 321.818 383.242C321.603 383.438 321.391 383.636 321.182 383.836C319.387 385.566 317.788 387.544 316.639 389.757C315.488 391.972 314.805 394.421 314.869 396.828C314.897 397.914 315.082 399.067 315.719 400.034C315.829 400.201 315.952 400.361 316.087 400.51L318.365 403.067L318.387 403.092C318.649 403.385 318.961 403.641 319.324 403.838C319.868 404.135 320.514 404.29 321.199 404.232C321.792 404.183 322.35 403.98 322.846 403.712C323.338 403.445 323.767 403.117 324.153 402.787C324.925 402.127 325.551 401.46 326.216 401.028C327.403 400.256 328.942 400.034 330.492 399.998C332.052 399.961 333.726 400.084 335.483 399.67C337.621 399.168 339.603 397.883 341.011 396.153C342.416 394.425 343.22 392.301 343.318 390.214C343.42 388.02 342.745 385.898 341.423 384.276C341.347 384.183 341.268 384.092 341.188 384.002L338.889 381.421C337.576 379.942 335.729 378.955 333.68 378.652C331.419 378.316 329.03 378.814 326.885 379.8C325.13 380.607 323.539 381.726 322.104 382.988L322.102 382.988ZM323.101 384.039C323.203 383.949 323.306 383.862 323.409 383.775C324.649 382.727 325.985 381.822 327.412 381.166C329.308 380.294 331.391 379.876 333.289 380.157C335.1 380.425 336.752 381.349 337.859 382.706C338.966 384.064 339.542 385.873 339.456 387.712C339.374 389.46 338.69 391.258 337.528 392.686C336.368 394.112 334.706 395.185 332.967 395.594C331.525 395.933 329.965 395.839 328.309 395.878C326.645 395.918 324.782 396.127 323.149 397.188C322.233 397.783 321.56 398.521 320.897 399.089C320.565 399.372 320.235 399.618 319.902 399.798C319.571 399.977 319.231 400.092 318.921 400.118C318.565 400.148 318.19 400.065 317.869 399.89C317.545 399.714 317.262 399.441 317.046 399.113C316.612 398.452 316.442 397.564 316.417 396.623C316.361 394.521 316.963 392.329 318.003 390.326C319.044 388.321 320.517 386.488 322.203 384.865C322.496 384.583 322.796 384.307 323.101 384.039L323.101 384.039ZM324.015 385.075C323.73 385.323 323.451 385.581 323.176 385.846C321.596 387.369 320.243 389.062 319.304 390.87C318.37 392.67 317.845 394.617 317.893 396.428C317.914 397.231 318.071 397.867 318.313 398.235C318.43 398.413 318.573 398.539 318.688 398.601C318.796 398.66 318.913 398.675 318.955 398.672C318.996 398.668 319.129 398.638 319.302 398.543C319.483 398.446 319.72 398.277 319.999 398.039C320.559 397.56 321.277 396.753 322.431 396.003C324.488 394.666 326.661 394.469 328.434 394.427C330.181 394.385 331.632 394.452 332.774 394.184C334.134 393.864 335.489 392.994 336.414 391.858C337.343 390.715 337.914 389.228 337.98 387.803C338.051 386.303 337.57 384.793 336.668 383.686C335.766 382.581 334.388 381.811 332.916 381.593C331.365 381.363 329.574 381.706 327.914 382.47C326.657 383.048 325.447 383.861 324.3 384.83C324.205 384.911 324.11 384.993 324.015 385.075L324.015 385.075ZM330.783 387.019C331.329 386.537 331.98 386.218 332.594 386.133C333.209 386.049 333.735 386.205 334.058 386.567C334.38 386.929 334.473 387.468 334.315 388.065C334.157 388.662 333.762 389.268 333.216 389.75C332.946 389.989 332.647 390.19 332.336 390.342C332.025 390.494 331.709 390.594 331.405 390.636C331.1 390.678 330.815 390.661 330.564 390.587C330.313 390.512 330.101 390.382 329.941 390.202C329.782 390.023 329.677 389.798 329.632 389.541C329.588 389.284 329.606 389 329.684 388.704C329.762 388.409 329.899 388.108 330.088 387.818C330.276 387.529 330.513 387.257 330.783 387.019Z" fill="#EE8383"/>
<path d="M353.06 386.664C350.626 388.795 350.333 392.902 350.333 392.902C327.313 388.178 322.689 405.507 322.689 405.507C322.689 405.507 337.887 415.124 351.592 396.11C351.592 396.11 354.604 398.932 357.844 398.854C357.844 398.854 355.025 396.697 353.741 393.425C352.458 390.153 353.06 386.664 353.06 386.664ZM328.479 403.047C327.939 403.257 327.313 402.946 327.08 402.352C326.847 401.758 327.095 401.106 327.635 400.896C328.174 400.687 328.8 400.998 329.033 401.591C329.266 402.185 329.018 402.837 328.479 403.047ZM333.678 405.705C333.652 405.837 333.566 405.934 333.457 405.976C333.387 406.004 333.306 406.008 333.225 405.983C333.02 405.92 332.889 405.694 332.934 405.478C333.738 401.587 330.821 399.796 330.698 399.722C330.508 399.609 330.43 399.36 330.522 399.165C330.613 398.97 330.84 398.902 331.03 399.013C331.066 399.035 334.613 401.186 333.678 405.705Z" fill="#7A7871"/>
<path fill-rule="evenodd" clip-rule="evenodd" d="M345.398 407.625C344.937 405.981 343.564 404.05 342.494 401.964C343.411 403.752 344.328 405.539 345.398 407.625ZM347.982 407.437C346.455 405.208 345.536 402.67 344.617 400.132C343.855 399.393 343.248 399.702 342.64 400.011C341.579 400.927 340.515 401.093 341.733 401.975C343.26 404.204 344.33 406.29 345.096 408.53C345.4 408.375 346.007 408.066 346.311 407.912C346.918 407.602 347.069 407.15 347.982 407.437ZM341.424 399.879C340.963 398.235 339.589 396.304 338.519 394.218C339.436 396.006 340.354 397.793 341.424 399.879ZM337.296 391.835C336.989 390.488 335.462 388.26 334.545 386.472C335.462 388.26 336.226 389.749 337.449 392.133C337.449 392.133 337.449 392.133 337.296 391.835ZM339.881 391.647C338.507 389.716 337.588 387.178 336.516 384.342C335.906 383.901 335.299 384.21 334.692 384.519C333.63 385.435 332.566 385.6 333.785 386.483C335.158 388.414 336.381 390.797 337.148 393.038C337.451 392.883 338.059 392.574 338.362 392.419C338.817 391.812 339.12 391.658 339.881 391.647ZM333.322 384.089C333.014 382.742 331.488 380.513 330.571 378.726C331.488 380.513 332.252 382.003 333.475 384.386L333.322 384.089ZM335.906 383.901C334.533 381.97 333.613 379.432 332.541 376.596C331.932 376.155 331.325 376.464 330.717 376.773C329.656 377.689 328.439 377.556 329.811 378.737C331.184 380.668 332.407 383.051 333.173 385.291C333.477 385.137 334.084 384.828 334.235 384.375C334.842 384.066 335.146 383.912 335.906 383.901ZM335.322 392.464C334.105 392.332 333.192 392.045 331.975 391.913C333.192 392.045 333.952 392.034 335.322 392.464C333.496 391.89 332.126 391.46 330.453 391.185C331.822 391.615 333.039 391.747 334.865 392.321C332.886 391.449 331.213 391.173 329.691 390.445C331.06 390.875 332.43 391.306 334.409 392.177C332.733 391.151 330.907 390.578 329.081 390.004C330.907 390.578 332.886 391.449 335.322 392.464C335.778 392.607 335.778 392.607 335.322 392.464ZM334.714 392.773C334.714 392.773 334.411 392.928 334.258 392.63C331.977 392.663 330.001 392.542 328.177 392.719C329.85 392.994 331.674 392.818 333.498 392.641C331.674 392.818 330.153 392.84 328.786 393.16C330.306 393.138 332.13 392.961 333.954 392.784C332.434 392.806 331.066 393.127 329.699 393.447C331.523 393.27 332.89 392.95 334.411 392.928C333.347 393.093 332.283 393.259 331.219 393.425C332.283 393.259 333.347 393.093 334.411 392.928C334.714 392.773 334.714 392.773 334.714 392.773ZM335.632 394.561C335.024 394.87 334.57 395.477 333.659 395.94C334.266 395.631 334.721 395.024 335.632 394.561C334.721 395.024 333.659 395.94 332.748 396.404C333.659 395.94 334.417 395.179 335.328 394.715C334.113 395.333 332.899 395.951 331.837 396.867C332.595 396.106 333.81 395.488 335.024 394.87C333.81 395.488 332.595 396.106 331.38 396.724C332.595 396.106 333.96 395.035 335.479 394.263C335.782 394.108 335.935 394.406 335.632 394.561ZM335.784 394.858C335.481 395.013 335.481 395.013 335.481 395.013C334.268 396.382 333.359 397.596 332.754 398.655C333.359 397.596 334.268 396.382 335.026 395.62C334.421 396.679 333.663 397.441 333.058 398.5C333.663 397.441 334.572 396.227 335.177 395.168C334.572 396.227 334.27 397.132 333.816 397.739C334.27 397.132 334.876 396.072 335.481 395.013C335.179 395.918 334.725 396.525 334.574 396.977C335.028 396.37 335.026 395.62 335.481 395.013L335.784 394.858ZM336.542 394.097C336.846 393.942 336.846 393.942 337.15 393.788C337.303 394.086 337.303 394.086 337.759 394.229C339.286 396.458 340.356 398.544 341.122 400.784C341.426 400.629 342.033 400.32 342.337 400.165C342.791 399.558 343.095 399.404 343.855 399.393C342.481 397.462 341.562 394.924 340.49 392.088C339.881 391.647 339.273 391.956 338.666 392.265C337.908 393.026 337.148 393.038 336.997 393.49C336.844 393.192 336.388 393.049 336.235 392.751C336.082 392.453 335.625 392.309 334.863 391.57C332.884 390.699 329.689 389.695 328.016 389.419C328.474 390.313 330.909 391.328 332.888 392.199C330.912 392.078 328.327 392.266 326.809 393.039C328.332 393.767 333.956 393.535 335.627 393.06C335.627 393.06 335.931 392.905 336.084 393.203C336.54 393.347 336.997 393.49 337.15 393.788C336.846 393.942 336.542 394.097 336.086 393.954C336.086 393.954 335.782 394.108 335.175 394.417C333.504 394.892 331.531 396.272 330.47 397.188C331.383 397.474 333.204 396.547 334.57 395.477C333.661 396.691 332.601 398.357 331.996 399.416C333.363 399.096 335.786 395.609 335.935 394.406C336.239 394.251 336.239 394.251 336.542 394.097Z" fill="#468E0D"/>
<path d="M349.174 386.239L349.178 386.225L349.178 386.211L349.082 380.153L349.082 380.143L349.08 380.133C349.031 379.911 349.138 379.696 349.374 379.522C349.61 379.348 349.962 379.228 350.354 379.205C351.129 379.159 352.032 379.494 352.473 380.498C352.284 381.374 352.177 382.238 352.071 383.097L352.07 383.099C351.963 383.971 351.855 384.837 351.665 385.714L351.655 385.756L351.68 385.792C354.141 389.377 354.411 393.285 353.199 396.818C351.985 400.353 349.285 403.515 345.803 405.594C342.322 407.673 338.066 408.667 333.742 407.874C329.425 407.082 325.032 404.505 321.273 399.43C321.134 398.848 321.078 398.362 321.108 397.975C321.138 397.583 321.255 397.303 321.452 397.12C321.649 396.937 321.941 396.838 322.352 396.843C322.763 396.848 323.284 396.957 323.925 397.182C334.417 401.538 346.039 397.47 349.174 386.239Z" fill="#FFEE2E" stroke="#468E0D" stroke-width="0.2"/>
<rect x="0.5" y="0.5" width="365" height="425" rx="4.5" stroke="url(#paint0_linear_126_29)"/>
<defs>
<linearGradient id="paint0_linear_126_29" x1="-16.2152" y1="63.1111" x2="444.96" y2="239.218" gradientUnits="userSpaceOnUse">
<stop stop-color="#FA6F32"/>
<stop offset="1" stop-color="#FE9013"/>
</linearGradient>
</defs>
</svg>
