<svg width="366" height="426" viewBox="0 0 366 426" fill="none" xmlns="http://www.w3.org/2000/svg">
<path d="M25.2944 397.336V408H24.3862L18.2559 398.889V408H17.355V397.336H18.2559L24.4009 406.447V397.336H25.2944ZM32.6333 406.579V402.492C32.6333 402.116 32.5552 401.792 32.3989 401.518C32.2427 401.245 32.0132 401.035 31.7104 400.888C31.4077 400.742 31.0342 400.668 30.5898 400.668C30.1797 400.668 29.8135 400.742 29.4912 400.888C29.1738 401.03 28.9224 401.223 28.7368 401.467C28.5562 401.706 28.4658 401.972 28.4658 402.265L27.5869 402.258C27.5869 401.96 27.6602 401.672 27.8066 401.394C27.9531 401.115 28.1606 400.866 28.4292 400.646C28.6978 400.427 29.0176 400.253 29.3887 400.126C29.7646 399.995 30.1772 399.929 30.6265 399.929C31.1929 399.929 31.6909 400.024 32.1206 400.214C32.5552 400.405 32.8945 400.69 33.1387 401.071C33.3828 401.452 33.5049 401.931 33.5049 402.507V406.337C33.5049 406.611 33.5244 406.894 33.5635 407.187C33.6074 407.48 33.6685 407.722 33.7466 407.912V408H32.8164C32.7578 407.824 32.7114 407.604 32.6772 407.341C32.6479 407.072 32.6333 406.818 32.6333 406.579ZM32.8384 403.386L32.853 404.06H31.1318C30.6826 404.06 30.2798 404.101 29.9233 404.184C29.5718 404.262 29.2739 404.379 29.0298 404.536C28.7856 404.687 28.5977 404.87 28.4658 405.085C28.3389 405.3 28.2754 405.544 28.2754 405.817C28.2754 406.101 28.3462 406.359 28.4878 406.594C28.6343 406.828 28.8394 407.016 29.103 407.158C29.3716 407.294 29.689 407.363 30.0552 407.363C30.5435 407.363 30.9731 407.272 31.3442 407.092C31.7202 406.911 32.0303 406.674 32.2744 406.381C32.5186 406.088 32.6821 405.769 32.7651 405.422L33.146 405.927C33.0825 406.171 32.9653 406.423 32.7944 406.682C32.6284 406.936 32.4111 407.175 32.1426 407.399C31.874 407.619 31.5566 407.8 31.1904 407.941C30.8291 408.078 30.4189 408.146 29.96 408.146C29.4424 408.146 28.9907 408.049 28.605 407.854C28.2241 407.658 27.9263 407.392 27.7114 407.055C27.5015 406.713 27.3965 406.328 27.3965 405.898C27.3965 405.507 27.4795 405.158 27.6455 404.851C27.8115 404.538 28.0508 404.274 28.3633 404.06C28.6807 403.84 29.0615 403.674 29.5059 403.562C29.9551 403.444 30.458 403.386 31.0146 403.386H32.8384ZM38.8516 400.075V400.793H34.8818V400.075H38.8516ZM36.3394 398.039H37.2109V406.074C37.2109 406.44 37.2598 406.716 37.3574 406.901C37.4551 407.087 37.582 407.211 37.7383 407.275C37.8945 407.338 38.063 407.37 38.2437 407.37C38.3755 407.37 38.5024 407.363 38.6245 407.348C38.7466 407.329 38.8564 407.309 38.9541 407.29L38.9907 408.029C38.8833 408.063 38.7441 408.09 38.5732 408.11C38.4023 408.134 38.2314 408.146 38.0605 408.146C37.7236 408.146 37.4258 408.085 37.167 407.963C36.9082 407.836 36.7056 407.622 36.5591 407.319C36.4126 407.011 36.3394 406.594 36.3394 406.066V398.039ZM41.6641 400.075V408H40.7925V400.075H41.6641ZM40.6387 397.783C40.6387 397.617 40.6899 397.478 40.7925 397.365C40.8999 397.248 41.0464 397.189 41.2319 397.189C41.4175 397.189 41.564 397.248 41.6714 397.365C41.7837 397.478 41.8398 397.617 41.8398 397.783C41.8398 397.944 41.7837 398.083 41.6714 398.2C41.564 398.312 41.4175 398.369 41.2319 398.369C41.0464 398.369 40.8999 398.312 40.7925 398.2C40.6899 398.083 40.6387 397.944 40.6387 397.783ZM46.3955 407.158L48.937 400.075H49.8379L46.8716 408H46.2344L46.3955 407.158ZM44.0957 400.075L46.6665 407.18L46.8057 408H46.1611L43.1875 400.075H44.0957ZM54.2397 408.146C53.7222 408.146 53.2461 408.051 52.8115 407.861C52.3818 407.67 52.0059 407.402 51.6836 407.055C51.3662 406.708 51.1196 406.298 50.9438 405.825C50.7729 405.346 50.6875 404.824 50.6875 404.257V403.942C50.6875 403.332 50.7778 402.78 50.9585 402.287C51.1392 401.794 51.3882 401.372 51.7056 401.02C52.0229 400.668 52.3843 400.4 52.7896 400.214C53.1997 400.024 53.6294 399.929 54.0786 399.929C54.5815 399.929 55.0283 400.019 55.4189 400.2C55.8096 400.375 56.1367 400.627 56.4004 400.954C56.6689 401.276 56.8716 401.66 57.0083 402.104C57.145 402.543 57.2134 403.029 57.2134 403.562V404.096H51.2148V403.349H56.3418V403.247C56.332 402.802 56.2417 402.387 56.0708 402.001C55.9048 401.611 55.6558 401.293 55.3237 401.049C54.9917 400.805 54.5767 400.683 54.0786 400.683C53.7075 400.683 53.3657 400.761 53.0532 400.917C52.7456 401.074 52.4795 401.298 52.2549 401.591C52.0352 401.879 51.8643 402.224 51.7422 402.624C51.625 403.02 51.5664 403.459 51.5664 403.942V404.257C51.5664 404.697 51.6299 405.107 51.7568 405.488C51.8887 405.864 52.0742 406.196 52.3135 406.484C52.5576 406.772 52.8457 406.997 53.1777 407.158C53.5098 407.319 53.876 407.399 54.2764 407.399C54.7451 407.399 55.1602 407.314 55.5215 407.143C55.8828 406.967 56.2075 406.691 56.4956 406.315L57.0449 406.74C56.874 406.994 56.6592 407.229 56.4004 407.443C56.1465 407.658 55.8413 407.829 55.4849 407.956C55.1284 408.083 54.7134 408.146 54.2397 408.146ZM65.5996 400.075V400.793H61.6299V400.075H65.5996ZM63.0874 398.039H63.959V406.074C63.959 406.44 64.0078 406.716 64.1055 406.901C64.2031 407.087 64.3301 407.211 64.4863 407.275C64.6426 407.338 64.811 407.37 64.9917 407.37C65.1235 407.37 65.2505 407.363 65.3726 407.348C65.4946 407.329 65.6045 407.309 65.7021 407.29L65.7388 408.029C65.6313 408.063 65.4922 408.09 65.3213 408.11C65.1504 408.134 64.9795 408.146 64.8086 408.146C64.4717 408.146 64.1738 408.085 63.915 407.963C63.6562 407.836 63.4536 407.622 63.3071 407.319C63.1606 407.011 63.0874 406.594 63.0874 406.066V398.039ZM66.8081 404.162V403.92C66.8081 403.344 66.8911 402.812 67.0571 402.324C67.2231 401.835 67.46 401.413 67.7676 401.057C68.0801 400.7 68.4536 400.424 68.8882 400.229C69.3228 400.029 69.8062 399.929 70.3384 399.929C70.8755 399.929 71.3613 400.029 71.7959 400.229C72.2305 400.424 72.604 400.7 72.9165 401.057C73.229 401.413 73.4683 401.835 73.6343 402.324C73.8003 402.812 73.8833 403.344 73.8833 403.92V404.162C73.8833 404.738 73.8003 405.271 73.6343 405.759C73.4683 406.242 73.229 406.662 72.9165 407.019C72.6089 407.375 72.2378 407.653 71.8032 407.854C71.3687 408.049 70.8853 408.146 70.353 408.146C69.8159 408.146 69.3301 408.049 68.8955 407.854C68.4609 407.653 68.0874 407.375 67.7749 407.019C67.4624 406.662 67.2231 406.242 67.0571 405.759C66.8911 405.271 66.8081 404.738 66.8081 404.162ZM67.6797 403.92V404.162C67.6797 404.597 67.7383 405.009 67.8555 405.4C67.9727 405.786 68.1436 406.13 68.3682 406.433C68.5928 406.73 68.8711 406.965 69.2031 407.136C69.5352 407.307 69.9185 407.392 70.353 407.392C70.7827 407.392 71.1611 407.307 71.4883 407.136C71.8203 406.965 72.0986 406.73 72.3232 406.433C72.5479 406.13 72.7163 405.786 72.8286 405.4C72.9458 405.009 73.0044 404.597 73.0044 404.162V403.92C73.0044 403.491 72.9458 403.083 72.8286 402.697C72.7163 402.312 72.5454 401.967 72.3159 401.665C72.0913 401.362 71.813 401.123 71.481 400.947C71.1489 400.771 70.7681 400.683 70.3384 400.683C69.9087 400.683 69.5278 400.771 69.1958 400.947C68.8687 401.123 68.5903 401.362 68.3608 401.665C68.1362 401.967 67.9653 402.312 67.8481 402.697C67.7358 403.083 67.6797 403.491 67.6797 403.92ZM85.6021 405.378C85.6021 405.085 85.5532 404.824 85.4556 404.594C85.3579 404.365 85.1968 404.16 84.9722 403.979C84.7524 403.793 84.4546 403.623 84.0786 403.466C83.7075 403.305 83.2437 403.146 82.687 402.99C82.1548 402.839 81.6738 402.673 81.2441 402.492C80.8145 402.312 80.4458 402.104 80.1382 401.87C79.8354 401.635 79.6035 401.362 79.4424 401.049C79.2812 400.732 79.2007 400.363 79.2007 399.943C79.2007 399.533 79.2886 399.16 79.4644 398.823C79.6401 398.486 79.8867 398.195 80.2041 397.951C80.5264 397.707 80.9048 397.519 81.3394 397.387C81.7788 397.255 82.2598 397.189 82.7822 397.189C83.5293 397.189 84.1738 397.331 84.7158 397.614C85.2627 397.897 85.6851 398.281 85.9829 398.764C86.2856 399.243 86.437 399.78 86.437 400.375H85.5361C85.5361 399.912 85.4263 399.499 85.2065 399.138C84.9917 398.771 84.6792 398.486 84.269 398.281C83.8638 398.071 83.3682 397.966 82.7822 397.966C82.1963 397.966 81.7031 398.056 81.3027 398.237C80.9072 398.413 80.6069 398.649 80.4019 398.947C80.2017 399.24 80.1016 399.567 80.1016 399.929C80.1016 400.183 80.1504 400.417 80.248 400.632C80.3457 400.842 80.5044 401.04 80.7241 401.225C80.9487 401.406 81.2441 401.577 81.6104 401.738C81.9766 401.894 82.4282 402.043 82.9653 402.185C83.5317 402.341 84.0347 402.514 84.4741 402.705C84.9136 402.895 85.2847 403.115 85.5874 403.364C85.8901 403.608 86.1196 403.894 86.2759 404.221C86.4321 404.548 86.5103 404.929 86.5103 405.363C86.5103 405.798 86.4175 406.188 86.2319 406.535C86.0513 406.877 85.7949 407.167 85.4629 407.407C85.1357 407.646 84.7476 407.829 84.2983 407.956C83.854 408.083 83.3682 408.146 82.8408 408.146C82.3672 408.146 81.896 408.085 81.4272 407.963C80.9585 407.841 80.5288 407.653 80.1382 407.399C79.7524 407.141 79.4424 406.809 79.208 406.403C78.9785 405.998 78.8638 405.515 78.8638 404.953H79.7573C79.7573 405.402 79.8477 405.781 80.0283 406.088C80.209 406.396 80.4482 406.645 80.7461 406.835C81.0488 407.026 81.3809 407.165 81.7422 407.253C82.1084 407.336 82.4746 407.377 82.8408 407.377C83.4023 407.377 83.8882 407.294 84.2983 407.128C84.7134 406.962 85.0332 406.73 85.2578 406.433C85.4873 406.13 85.6021 405.778 85.6021 405.378ZM87.77 404.162V403.92C87.77 403.344 87.853 402.812 88.019 402.324C88.1851 401.835 88.4219 401.413 88.7295 401.057C89.042 400.7 89.4155 400.424 89.8501 400.229C90.2847 400.029 90.7681 399.929 91.3003 399.929C91.8374 399.929 92.3232 400.029 92.7578 400.229C93.1924 400.424 93.5659 400.7 93.8784 401.057C94.1909 401.413 94.4302 401.835 94.5962 402.324C94.7622 402.812 94.8452 403.344 94.8452 403.92V404.162C94.8452 404.738 94.7622 405.271 94.5962 405.759C94.4302 406.242 94.1909 406.662 93.8784 407.019C93.5708 407.375 93.1997 407.653 92.7651 407.854C92.3306 408.049 91.8472 408.146 91.3149 408.146C90.7778 408.146 90.292 408.049 89.8574 407.854C89.4229 407.653 89.0493 407.375 88.7368 407.019C88.4243 406.662 88.1851 406.242 88.019 405.759C87.853 405.271 87.77 404.738 87.77 404.162ZM88.6416 403.92V404.162C88.6416 404.597 88.7002 405.009 88.8174 405.4C88.9346 405.786 89.1055 406.13 89.3301 406.433C89.5547 406.73 89.833 406.965 90.165 407.136C90.4971 407.307 90.8804 407.392 91.3149 407.392C91.7446 407.392 92.123 407.307 92.4502 407.136C92.7822 406.965 93.0605 406.73 93.2852 406.433C93.5098 406.13 93.6782 405.786 93.7905 405.4C93.9077 405.009 93.9663 404.597 93.9663 404.162V403.92C93.9663 403.491 93.9077 403.083 93.7905 402.697C93.6782 402.312 93.5073 401.967 93.2778 401.665C93.0532 401.362 92.7749 401.123 92.4429 400.947C92.1108 400.771 91.73 400.683 91.3003 400.683C90.8706 400.683 90.4897 400.771 90.1577 400.947C89.8306 401.123 89.5522 401.362 89.3228 401.665C89.0981 401.967 88.9272 402.312 88.8101 402.697C88.6978 403.083 88.6416 403.491 88.6416 403.92ZM101.737 406.169V400.075H102.616V408H101.774L101.737 406.169ZM101.898 404.704L102.353 404.689C102.353 405.188 102.294 405.646 102.177 406.066C102.06 406.486 101.876 406.853 101.627 407.165C101.378 407.478 101.056 407.719 100.661 407.89C100.265 408.061 99.7891 408.146 99.2324 408.146C98.8467 408.146 98.4927 408.093 98.1704 407.985C97.853 407.873 97.5796 407.697 97.3501 407.458C97.1206 407.219 96.9424 406.909 96.8154 406.528C96.6934 406.147 96.6323 405.686 96.6323 405.144V400.075H97.5039V405.158C97.5039 405.583 97.5503 405.937 97.6431 406.22C97.7407 406.503 97.8726 406.73 98.0386 406.901C98.2095 407.072 98.4048 407.194 98.6245 407.268C98.8442 407.341 99.0811 407.377 99.335 407.377C99.9795 407.377 100.487 407.253 100.858 407.004C101.234 406.755 101.5 406.428 101.657 406.022C101.818 405.612 101.898 405.173 101.898 404.704ZM107.904 400.075V400.793H103.935V400.075H107.904ZM105.392 398.039H106.264V406.074C106.264 406.44 106.312 406.716 106.41 406.901C106.508 407.087 106.635 407.211 106.791 407.275C106.947 407.338 107.116 407.37 107.296 407.37C107.428 407.37 107.555 407.363 107.677 407.348C107.799 407.329 107.909 407.309 108.007 407.29L108.043 408.029C107.936 408.063 107.797 408.09 107.626 408.11C107.455 408.134 107.284 408.146 107.113 408.146C106.776 408.146 106.479 408.085 106.22 407.963C105.961 407.836 105.758 407.622 105.612 407.319C105.465 407.011 105.392 406.594 105.392 406.066V398.039ZM110.614 396.75V408H109.743V396.75H110.614ZM110.417 403.547L110.028 403.327C110.058 402.858 110.153 402.419 110.314 402.009C110.475 401.599 110.692 401.237 110.966 400.925C111.244 400.612 111.569 400.368 111.94 400.192C112.316 400.017 112.731 399.929 113.185 399.929C113.581 399.929 113.935 399.982 114.247 400.09C114.56 400.197 114.826 400.368 115.045 400.603C115.265 400.837 115.431 401.137 115.543 401.503C115.661 401.87 115.719 402.316 115.719 402.844V408H114.84V402.836C114.84 402.29 114.765 401.862 114.613 401.555C114.462 401.242 114.247 401.02 113.969 400.888C113.69 400.756 113.361 400.69 112.98 400.69C112.56 400.69 112.191 400.783 111.874 400.969C111.562 401.149 111.298 401.386 111.083 401.679C110.873 401.967 110.712 402.277 110.6 402.609C110.487 402.937 110.426 403.249 110.417 403.547ZM125.343 397.973L121.652 408H120.714L124.743 397.336H125.395L125.343 397.973ZM128.698 408L124.999 397.973L124.948 397.336H125.6L129.635 408H128.698ZM128.039 404.235V405.012H122.377V404.235H128.039ZM131.84 401.716V408H130.961V400.075H131.803L131.84 401.716ZM131.679 403.547L131.254 403.327C131.283 402.858 131.371 402.419 131.518 402.009C131.669 401.599 131.879 401.237 132.147 400.925C132.416 400.612 132.738 400.368 133.114 400.192C133.49 400.017 133.917 399.929 134.396 399.929C134.782 399.929 135.131 399.982 135.443 400.09C135.761 400.192 136.029 400.356 136.249 400.581C136.474 400.8 136.647 401.088 136.769 401.445C136.891 401.801 136.952 402.229 136.952 402.727V408H136.081V402.756C136.081 402.229 135.998 401.816 135.832 401.518C135.67 401.22 135.443 401.008 135.15 400.881C134.862 400.754 134.528 400.69 134.147 400.69C133.698 400.69 133.317 400.783 133.004 400.969C132.697 401.149 132.445 401.386 132.25 401.679C132.06 401.967 131.918 402.277 131.825 402.609C131.732 402.937 131.684 403.249 131.679 403.547ZM136.945 402.858L136.359 402.873C136.383 402.487 136.471 402.119 136.623 401.767C136.779 401.416 136.991 401.103 137.26 400.83C137.528 400.551 137.848 400.332 138.219 400.17C138.595 400.009 139.018 399.929 139.486 399.929C139.896 399.929 140.263 399.985 140.585 400.097C140.907 400.205 141.178 400.378 141.398 400.617C141.623 400.852 141.793 401.152 141.911 401.518C142.028 401.884 142.086 402.324 142.086 402.836V408H141.208V402.829C141.208 402.268 141.125 401.833 140.958 401.525C140.797 401.213 140.573 400.996 140.285 400.874C139.997 400.751 139.66 400.69 139.274 400.69C138.893 400.695 138.559 400.766 138.271 400.903C137.982 401.035 137.741 401.21 137.545 401.43C137.355 401.645 137.208 401.877 137.106 402.126C137.008 402.375 136.955 402.619 136.945 402.858ZM147.375 408.146C146.857 408.146 146.381 408.051 145.946 407.861C145.517 407.67 145.141 407.402 144.818 407.055C144.501 406.708 144.254 406.298 144.079 405.825C143.908 405.346 143.822 404.824 143.822 404.257V403.942C143.822 403.332 143.913 402.78 144.093 402.287C144.274 401.794 144.523 401.372 144.84 401.02C145.158 400.668 145.519 400.4 145.924 400.214C146.334 400.024 146.764 399.929 147.213 399.929C147.716 399.929 148.163 400.019 148.554 400.2C148.944 400.375 149.271 400.627 149.535 400.954C149.804 401.276 150.006 401.66 150.143 402.104C150.28 402.543 150.348 403.029 150.348 403.562V404.096H144.35V403.349H149.477V403.247C149.467 402.802 149.376 402.387 149.206 402.001C149.04 401.611 148.791 401.293 148.458 401.049C148.126 400.805 147.711 400.683 147.213 400.683C146.842 400.683 146.5 400.761 146.188 400.917C145.88 401.074 145.614 401.298 145.39 401.591C145.17 401.879 144.999 402.224 144.877 402.624C144.76 403.02 144.701 403.459 144.701 403.942V404.257C144.701 404.697 144.765 405.107 144.892 405.488C145.023 405.864 145.209 406.196 145.448 406.484C145.692 406.772 145.98 406.997 146.312 407.158C146.645 407.319 147.011 407.399 147.411 407.399C147.88 407.399 148.295 407.314 148.656 407.143C149.018 406.967 149.342 406.691 149.63 406.315L150.18 406.74C150.009 406.994 149.794 407.229 149.535 407.443C149.281 407.658 148.976 407.829 148.62 407.956C148.263 408.083 147.848 408.146 147.375 408.146ZM152.948 401.386V408H152.077V400.075H152.926L152.948 401.386ZM155.753 400.017L155.731 400.822C155.634 400.808 155.539 400.795 155.446 400.786C155.353 400.776 155.253 400.771 155.146 400.771C154.765 400.771 154.43 400.842 154.142 400.983C153.859 401.12 153.62 401.313 153.424 401.562C153.229 401.806 153.08 402.094 152.978 402.426C152.875 402.753 152.816 403.105 152.802 403.481L152.479 403.605C152.479 403.088 152.533 402.607 152.641 402.163C152.748 401.718 152.912 401.33 153.131 400.998C153.356 400.661 153.637 400.4 153.974 400.214C154.315 400.024 154.716 399.929 155.175 399.929C155.287 399.929 155.397 399.938 155.504 399.958C155.617 399.973 155.7 399.992 155.753 400.017ZM158.104 400.075V408H157.233V400.075H158.104ZM157.079 397.783C157.079 397.617 157.13 397.478 157.233 397.365C157.34 397.248 157.487 397.189 157.672 397.189C157.858 397.189 158.004 397.248 158.112 397.365C158.224 397.478 158.28 397.617 158.28 397.783C158.28 397.944 158.224 398.083 158.112 398.2C158.004 398.312 157.858 398.369 157.672 398.369C157.487 398.369 157.34 398.312 157.233 398.2C157.13 398.083 157.079 397.944 157.079 397.783ZM163.422 407.392C163.793 407.392 164.14 407.324 164.462 407.187C164.789 407.045 165.058 406.838 165.268 406.564C165.482 406.286 165.604 405.947 165.634 405.546H166.469C166.444 406.049 166.291 406.499 166.007 406.894C165.729 407.285 165.363 407.592 164.909 407.817C164.459 408.037 163.964 408.146 163.422 408.146C162.87 408.146 162.382 408.046 161.957 407.846C161.537 407.646 161.186 407.368 160.902 407.011C160.619 406.65 160.404 406.23 160.258 405.751C160.116 405.268 160.045 404.748 160.045 404.191V403.884C160.045 403.327 160.116 402.81 160.258 402.331C160.404 401.848 160.619 401.428 160.902 401.071C161.186 400.71 161.537 400.429 161.957 400.229C162.377 400.029 162.863 399.929 163.415 399.929C163.981 399.929 164.489 400.043 164.938 400.273C165.392 400.502 165.753 400.827 166.022 401.247C166.295 401.667 166.444 402.165 166.469 402.741H165.634C165.609 402.316 165.497 401.95 165.297 401.643C165.097 401.335 164.833 401.098 164.506 400.932C164.179 400.766 163.815 400.683 163.415 400.683C162.965 400.683 162.582 400.771 162.265 400.947C161.947 401.118 161.688 401.354 161.488 401.657C161.293 401.955 161.149 402.297 161.056 402.683C160.963 403.063 160.917 403.464 160.917 403.884V404.191C160.917 404.616 160.961 405.021 161.049 405.407C161.142 405.788 161.286 406.127 161.481 406.425C161.681 406.723 161.94 406.96 162.257 407.136C162.58 407.307 162.968 407.392 163.422 407.392ZM173.053 406.579V402.492C173.053 402.116 172.975 401.792 172.819 401.518C172.663 401.245 172.433 401.035 172.13 400.888C171.828 400.742 171.454 400.668 171.01 400.668C170.6 400.668 170.233 400.742 169.911 400.888C169.594 401.03 169.342 401.223 169.157 401.467C168.976 401.706 168.886 401.972 168.886 402.265L168.007 402.258C168.007 401.96 168.08 401.672 168.227 401.394C168.373 401.115 168.581 400.866 168.849 400.646C169.118 400.427 169.438 400.253 169.809 400.126C170.185 399.995 170.597 399.929 171.046 399.929C171.613 399.929 172.111 400.024 172.541 400.214C172.975 400.405 173.314 400.69 173.559 401.071C173.803 401.452 173.925 401.931 173.925 402.507V406.337C173.925 406.611 173.944 406.894 173.983 407.187C174.027 407.48 174.088 407.722 174.167 407.912V408H173.236C173.178 407.824 173.131 407.604 173.097 407.341C173.068 407.072 173.053 406.818 173.053 406.579ZM173.258 403.386L173.273 404.06H171.552C171.103 404.06 170.7 404.101 170.343 404.184C169.992 404.262 169.694 404.379 169.45 404.536C169.206 404.687 169.018 404.87 168.886 405.085C168.759 405.3 168.695 405.544 168.695 405.817C168.695 406.101 168.766 406.359 168.908 406.594C169.054 406.828 169.259 407.016 169.523 407.158C169.792 407.294 170.109 407.363 170.475 407.363C170.963 407.363 171.393 407.272 171.764 407.092C172.14 406.911 172.45 406.674 172.694 406.381C172.938 406.088 173.102 405.769 173.185 405.422L173.566 405.927C173.502 406.171 173.385 406.423 173.214 406.682C173.048 406.936 172.831 407.175 172.562 407.399C172.294 407.619 171.977 407.8 171.61 407.941C171.249 408.078 170.839 408.146 170.38 408.146C169.862 408.146 169.411 408.049 169.025 407.854C168.644 407.658 168.346 407.392 168.131 407.055C167.921 406.713 167.816 406.328 167.816 405.898C167.816 405.507 167.899 405.158 168.065 404.851C168.231 404.538 168.471 404.274 168.783 404.06C169.101 403.84 169.481 403.674 169.926 403.562C170.375 403.444 170.878 403.386 171.435 403.386H173.258Z" fill="black"/>
<path d="M24.6016 388.445V390H18.5625V388.445H24.6016ZM19.1172 378.625V390H17.1562V378.625H19.1172ZM23.8125 383.375V384.906H18.5625V383.375H23.8125ZM24.5625 378.625V380.188H18.5625V378.625H24.5625ZM30.6328 380.141L27.2344 390H25.1797L29.4609 378.625H30.7734L30.6328 380.141ZM33.4766 390L30.0703 380.141L29.9219 378.625H31.2422L35.5391 390H33.4766ZM33.3125 385.781V387.336H27.125V385.781H33.3125ZM45.4219 384.188V388.531C45.2604 388.745 45.0078 388.979 44.6641 389.234C44.3255 389.484 43.875 389.701 43.3125 389.883C42.75 390.065 42.0495 390.156 41.2109 390.156C40.4974 390.156 39.8438 390.036 39.25 389.797C38.6562 389.552 38.1432 389.195 37.7109 388.727C37.2839 388.258 36.9531 387.688 36.7188 387.016C36.4844 386.339 36.3672 385.568 36.3672 384.703V383.914C36.3672 383.055 36.474 382.289 36.6875 381.617C36.9062 380.94 37.2188 380.367 37.625 379.898C38.0312 379.43 38.5208 379.076 39.0938 378.836C39.6719 378.591 40.3255 378.469 41.0547 378.469C41.987 378.469 42.7578 378.625 43.3672 378.938C43.9818 379.245 44.4557 379.672 44.7891 380.219C45.1224 380.766 45.3333 381.391 45.4219 382.094H43.5C43.4375 381.698 43.3151 381.344 43.1328 381.031C42.9557 380.719 42.7005 380.474 42.3672 380.297C42.0391 380.115 41.612 380.023 41.0859 380.023C40.6328 380.023 40.2344 380.109 39.8906 380.281C39.5469 380.453 39.2604 380.706 39.0312 381.039C38.8073 381.372 38.638 381.779 38.5234 382.258C38.4089 382.737 38.3516 383.284 38.3516 383.898V384.703C38.3516 385.328 38.4167 385.883 38.5469 386.367C38.6823 386.852 38.875 387.26 39.125 387.594C39.3802 387.927 39.6901 388.18 40.0547 388.352C40.4193 388.518 40.8307 388.602 41.2891 388.602C41.737 388.602 42.1042 388.565 42.3906 388.492C42.6771 388.414 42.9036 388.323 43.0703 388.219C43.2422 388.109 43.375 388.005 43.4688 387.906V385.648H41.1016V384.188H45.4219ZM54.7188 388.445V390H49.0078V388.445H54.7188ZM49.5547 378.625V390H47.5938V378.625H49.5547ZM63.6797 388.445V390H57.6406V388.445H63.6797ZM58.1953 378.625V390H56.2344V378.625H58.1953ZM62.8906 383.375V384.906H57.6406V383.375H62.8906ZM63.6406 378.625V380.188H57.6406V378.625H63.6406ZM71.2656 387.07C71.2656 386.836 71.2292 386.628 71.1562 386.445C71.0885 386.263 70.9661 386.096 70.7891 385.945C70.612 385.794 70.362 385.648 70.0391 385.508C69.7214 385.362 69.3151 385.214 68.8203 385.062C68.2786 384.896 67.7786 384.711 67.3203 384.508C66.8672 384.299 66.4714 384.06 66.1328 383.789C65.7943 383.513 65.5312 383.198 65.3438 382.844C65.1562 382.484 65.0625 382.07 65.0625 381.602C65.0625 381.138 65.1589 380.716 65.3516 380.336C65.5495 379.956 65.8281 379.628 66.1875 379.352C66.5521 379.07 66.9818 378.854 67.4766 378.703C67.9714 378.547 68.5182 378.469 69.1172 378.469C69.9609 378.469 70.6875 378.625 71.2969 378.938C71.9115 379.25 72.3828 379.669 72.7109 380.195C73.0443 380.721 73.2109 381.302 73.2109 381.938H71.2656C71.2656 381.562 71.1849 381.232 71.0234 380.945C70.8672 380.654 70.6276 380.424 70.3047 380.258C69.987 380.091 69.5833 380.008 69.0938 380.008C68.6302 380.008 68.2448 380.078 67.9375 380.219C67.6302 380.359 67.401 380.549 67.25 380.789C67.099 381.029 67.0234 381.299 67.0234 381.602C67.0234 381.815 67.0729 382.01 67.1719 382.188C67.2708 382.359 67.4219 382.521 67.625 382.672C67.8281 382.818 68.0833 382.956 68.3906 383.086C68.6979 383.216 69.0599 383.341 69.4766 383.461C70.1068 383.648 70.6562 383.857 71.125 384.086C71.5938 384.31 71.9844 384.565 72.2969 384.852C72.6094 385.138 72.8438 385.464 73 385.828C73.1562 386.188 73.2344 386.596 73.2344 387.055C73.2344 387.534 73.138 387.966 72.9453 388.352C72.7526 388.732 72.4766 389.057 72.1172 389.328C71.763 389.594 71.3359 389.799 70.8359 389.945C70.3411 390.086 69.7891 390.156 69.1797 390.156C68.6328 390.156 68.0938 390.083 67.5625 389.938C67.0365 389.792 66.5573 389.57 66.125 389.273C65.6927 388.971 65.349 388.596 65.0938 388.148C64.8385 387.695 64.7109 387.167 64.7109 386.562H66.6719C66.6719 386.932 66.7344 387.247 66.8594 387.508C66.9896 387.768 67.1693 387.982 67.3984 388.148C67.6276 388.31 67.8932 388.43 68.1953 388.508C68.5026 388.586 68.8307 388.625 69.1797 388.625C69.638 388.625 70.0208 388.56 70.3281 388.43C70.6406 388.299 70.875 388.117 71.0312 387.883C71.1875 387.648 71.2656 387.378 71.2656 387.07Z" fill="black"/>
<path fill-rule="evenodd" clip-rule="evenodd" d="M322.102 382.988C322.007 383.072 321.912 383.156 321.818 383.242C321.603 383.437 321.391 383.636 321.182 383.836C319.387 385.566 317.788 387.544 316.639 389.757C315.488 391.972 314.805 394.421 314.869 396.828C314.897 397.914 315.082 399.067 315.719 400.034C315.829 400.201 315.952 400.361 316.087 400.51L318.365 403.067L318.387 403.092C318.649 403.385 318.961 403.641 319.324 403.838C319.868 404.135 320.514 404.29 321.199 404.232C321.792 404.183 322.35 403.98 322.846 403.712C323.338 403.445 323.767 403.117 324.153 402.787C324.925 402.127 325.551 401.46 326.216 401.028C327.403 400.256 328.942 400.034 330.492 399.998C332.052 399.961 333.726 400.084 335.483 399.67C337.621 399.168 339.603 397.883 341.011 396.153C342.416 394.425 343.22 392.301 343.318 390.214C343.42 388.02 342.745 385.898 341.423 384.276C341.347 384.183 341.268 384.092 341.188 384.002L338.889 381.421C337.576 379.942 335.729 378.955 333.68 378.652C331.419 378.316 329.03 378.814 326.885 379.8C325.13 380.607 323.539 381.726 322.104 382.988L322.102 382.988ZM323.101 384.039C323.203 383.949 323.306 383.862 323.409 383.775C324.649 382.727 325.985 381.822 327.412 381.166C329.308 380.294 331.391 379.876 333.289 380.157C335.1 380.425 336.752 381.349 337.859 382.706C338.966 384.064 339.542 385.873 339.456 387.712C339.374 389.46 338.69 391.258 337.528 392.686C336.368 394.112 334.706 395.185 332.967 395.594C331.525 395.933 329.965 395.839 328.309 395.878C326.645 395.918 324.782 396.127 323.149 397.188C322.233 397.783 321.56 398.521 320.897 399.089C320.565 399.372 320.235 399.618 319.902 399.798C319.571 399.977 319.231 400.092 318.921 400.118C318.565 400.148 318.19 400.065 317.869 399.89C317.545 399.714 317.262 399.441 317.046 399.113C316.612 398.452 316.442 397.564 316.417 396.623C316.361 394.521 316.963 392.329 318.003 390.326C319.044 388.321 320.517 386.488 322.203 384.865C322.496 384.583 322.796 384.307 323.101 384.039L323.101 384.039ZM324.015 385.075C323.73 385.323 323.451 385.581 323.176 385.846C321.596 387.369 320.243 389.062 319.304 390.87C318.37 392.67 317.845 394.617 317.893 396.428C317.914 397.231 318.071 397.867 318.313 398.235C318.43 398.413 318.573 398.539 318.688 398.601C318.796 398.66 318.913 398.675 318.955 398.672C318.996 398.668 319.129 398.638 319.302 398.543C319.483 398.446 319.72 398.277 319.999 398.039C320.559 397.56 321.277 396.753 322.431 396.003C324.488 394.666 326.661 394.469 328.434 394.427C330.181 394.385 331.632 394.452 332.774 394.184C334.134 393.864 335.489 392.994 336.414 391.858C337.343 390.715 337.914 389.228 337.98 387.803C338.051 386.303 337.57 384.793 336.668 383.686C335.766 382.581 334.388 381.811 332.916 381.593C331.365 381.363 329.574 381.706 327.914 382.47C326.657 383.048 325.447 383.861 324.3 384.83C324.205 384.911 324.11 384.993 324.015 385.075L324.015 385.075ZM330.783 387.019C331.329 386.537 331.98 386.218 332.594 386.133C333.209 386.049 333.735 386.205 334.058 386.567C334.38 386.929 334.473 387.468 334.315 388.065C334.157 388.662 333.762 389.268 333.216 389.75C332.946 389.989 332.647 390.19 332.336 390.342C332.025 390.494 331.709 390.594 331.405 390.636C331.1 390.678 330.815 390.661 330.564 390.587C330.313 390.512 330.101 390.382 329.941 390.202C329.782 390.023 329.677 389.798 329.632 389.541C329.588 389.284 329.606 389 329.684 388.704C329.762 388.409 329.899 388.108 330.088 387.818C330.276 387.529 330.513 387.257 330.783 387.019Z" fill="#EE8383"/>
<path d="M353.06 386.664C350.626 388.795 350.333 392.902 350.333 392.902C327.313 388.178 322.689 405.507 322.689 405.507C322.689 405.507 337.887 415.124 351.592 396.11C351.592 396.11 354.604 398.932 357.844 398.854C357.844 398.854 355.025 396.697 353.741 393.425C352.458 390.153 353.06 386.664 353.06 386.664ZM328.479 403.047C327.939 403.257 327.313 402.946 327.08 402.352C326.847 401.758 327.095 401.106 327.635 400.896C328.174 400.687 328.8 400.998 329.033 401.591C329.266 402.185 329.018 402.837 328.479 403.047ZM333.678 405.705C333.652 405.837 333.566 405.934 333.457 405.976C333.387 406.004 333.306 406.008 333.225 405.983C333.02 405.92 332.889 405.694 332.934 405.478C333.738 401.587 330.821 399.796 330.698 399.722C330.508 399.609 330.43 399.36 330.522 399.165C330.613 398.97 330.84 398.902 331.03 399.013C331.066 399.035 334.613 401.186 333.678 405.705Z" fill="#7A7871"/>
<rect x="0.5" y="0.5" width="365" height="425" rx="4.5" stroke="url(#paint0_linear_126_28)"/>
<defs>
<linearGradient id="paint0_linear_126_28" x1="-16.2152" y1="63.1111" x2="444.96" y2="239.218" gradientUnits="userSpaceOnUse">
<stop stop-color="#FA6F32"/>
<stop offset="1" stop-color="#FE9013"/>
</linearGradient>
</defs>
</svg>
