<svg width="570" height="36" viewBox="0 0 570 36" fill="none" xmlns="http://www.w3.org/2000/svg">
<path d="M8.07792 15.2597C7.66234 14.8701 7.24675 14.5844 6.85714 14.3766C6.46753 14.1948 6.02597 14.0909 5.53247 14.0909C4.96104 14.0909 4.54545 14.2208 4.25974 14.4545C3.97403 14.6883 3.81818 15.0779 3.81818 15.5974C3.81818 15.961 3.97403 16.2987 4.28571 16.5325C4.5974 16.7922 4.96104 17.026 5.42857 17.2597C5.8961 17.4935 6.38961 17.7273 6.90909 17.987C7.42857 18.2468 7.92208 18.5325 8.38961 18.8961C8.85714 19.2597 9.22078 19.6753 9.53247 20.1948C9.84416 20.7143 10 21.3377 10 22.0649C10 23.1818 9.68831 24.1429 9.09091 24.9481C8.49351 25.7532 7.55844 26.2727 6.36364 26.5584V29H4.1039V26.6623C3.42857 26.5844 2.7013 26.4026 1.94805 26.0909C1.19481 25.7792 0.545455 25.3896 0 24.8961L1.50649 22.5844C2.1039 23.026 2.67532 23.3636 3.19481 23.5974C3.74026 23.8312 4.28571 23.9351 4.83117 23.9351C5.48052 23.9351 5.97403 23.8052 6.25974 23.5455C6.57143 23.2857 6.72727 22.8701 6.72727 22.3247C6.72727 21.9091 6.57143 21.5714 6.25974 21.2857C5.94805 21 5.58442 20.7403 5.11688 20.4805C4.64935 20.2208 4.15584 19.961 3.63636 19.7013C3.11688 19.4416 2.62338 19.1299 2.15584 18.7662C1.68831 18.4026 1.32468 17.987 1.01299 17.4935C0.701299 17 0.545455 16.4286 0.545455 15.7273C0.545455 14.5844 0.857143 13.6234 1.48052 12.8701C2.1039 12.1169 2.98701 11.6234 4.07792 11.4156V9H6.33766V11.3636C7.09091 11.4675 7.74026 11.7013 8.31169 12.039C8.88312 12.3766 9.37662 12.7922 9.84416 13.2857L8.07792 15.2597Z" fill="#333B41"/>
<path d="M14.209 17.834L15.2119 8.51562H25.1396V11.1816H17.7764L17.2686 15.5996C18.1234 15.1087 19.0882 14.8633 20.1631 14.8633C21.9235 14.8633 23.2904 15.4261 24.2637 16.5518C25.2454 17.6774 25.7363 19.1924 25.7363 21.0967C25.7363 22.9756 25.1947 24.4736 24.1113 25.5908C23.028 26.6995 21.5426 27.2539 19.6553 27.2539C17.9626 27.2539 16.5576 26.7757 15.4404 25.8193C14.3317 24.8545 13.7308 23.585 13.6377 22.0107H16.6211C16.7396 22.9079 17.0612 23.5977 17.5859 24.0801C18.1107 24.554 18.7962 24.791 19.6426 24.791C20.5905 24.791 21.3268 24.4525 21.8516 23.7754C22.3848 23.0983 22.6514 22.1758 22.6514 21.0078C22.6514 19.8822 22.3594 18.9935 21.7754 18.3418C21.1914 17.6816 20.3874 17.3516 19.3633 17.3516C18.8047 17.3516 18.3307 17.4277 17.9414 17.5801C17.5521 17.724 17.1289 18.0117 16.6719 18.4434L14.209 17.834ZM40.209 19.2178C40.209 21.8753 39.7096 23.8812 38.7109 25.2354C37.7207 26.5811 36.21 27.2539 34.1787 27.2539C32.1813 27.2539 30.6748 26.598 29.6592 25.2861C28.652 23.9658 28.1357 22.015 28.1104 19.4336V16.2344C28.1104 13.5768 28.6055 11.5837 29.5957 10.2549C30.5944 8.92611 32.1136 8.26172 34.1533 8.26172C36.1761 8.26172 37.6826 8.90918 38.6729 10.2041C39.6715 11.499 40.1836 13.4372 40.209 16.0186V19.2178ZM37.124 15.7646C37.124 14.0296 36.887 12.7601 36.4131 11.9561C35.9391 11.1436 35.1859 10.7373 34.1533 10.7373C33.1462 10.7373 32.4056 11.1224 31.9316 11.8926C31.4577 12.6543 31.208 13.8477 31.1826 15.4727V19.6621C31.1826 21.3887 31.4238 22.6751 31.9062 23.5215C32.3887 24.3678 33.1462 24.791 34.1787 24.791C35.1689 24.791 35.901 24.4017 36.375 23.623C36.849 22.8359 37.0986 21.6087 37.124 19.9414V15.7646ZM54.9863 19.2178C54.9863 21.8753 54.487 23.8812 53.4883 25.2354C52.498 26.5811 50.9873 27.2539 48.9561 27.2539C46.9587 27.2539 45.4521 26.598 44.4365 25.2861C43.4294 23.9658 42.9131 22.015 42.8877 19.4336V16.2344C42.8877 13.5768 43.3828 11.5837 44.373 10.2549C45.3717 8.92611 46.891 8.26172 48.9307 8.26172C50.9535 8.26172 52.46 8.90918 53.4502 10.2041C54.4489 11.499 54.9609 13.4372 54.9863 16.0186V19.2178ZM51.9014 15.7646C51.9014 14.0296 51.6644 12.7601 51.1904 11.9561C50.7165 11.1436 49.9632 10.7373 48.9307 10.7373C47.9235 10.7373 47.1829 11.1224 46.709 11.8926C46.235 12.6543 45.9854 13.8477 45.96 15.4727V19.6621C45.96 21.3887 46.2012 22.6751 46.6836 23.5215C47.166 24.3678 47.9235 24.791 48.9561 24.791C49.9463 24.791 50.6784 24.4017 51.1523 23.623C51.6263 22.8359 51.876 21.6087 51.9014 19.9414V15.7646Z" fill="#333B41"/>
<path d="M138.078 15.2597C137.662 14.8701 137.247 14.5844 136.857 14.3766C136.468 14.1948 136.026 14.0909 135.532 14.0909C134.961 14.0909 134.545 14.2208 134.26 14.4545C133.974 14.6883 133.818 15.0779 133.818 15.5974C133.818 15.961 133.974 16.2987 134.286 16.5325C134.597 16.7922 134.961 17.026 135.429 17.2597C135.896 17.4935 136.39 17.7273 136.909 17.987C137.429 18.2468 137.922 18.5325 138.39 18.8961C138.857 19.2597 139.221 19.6753 139.532 20.1948C139.844 20.7143 140 21.3377 140 22.0649C140 23.1818 139.688 24.1429 139.091 24.9481C138.494 25.7532 137.558 26.2727 136.364 26.5584V29H134.104V26.6623C133.429 26.5844 132.701 26.4026 131.948 26.0909C131.195 25.7792 130.545 25.3896 130 24.8961L131.506 22.5844C132.104 23.026 132.675 23.3636 133.195 23.5974C133.74 23.8312 134.286 23.9351 134.831 23.9351C135.481 23.9351 135.974 23.8052 136.26 23.5455C136.571 23.2857 136.727 22.8701 136.727 22.3247C136.727 21.9091 136.571 21.5714 136.26 21.2857C135.948 21 135.584 20.7403 135.117 20.4805C134.649 20.2208 134.156 19.961 133.636 19.7013C133.117 19.4416 132.623 19.1299 132.156 18.7662C131.688 18.4026 131.325 17.987 131.013 17.4935C130.701 17 130.545 16.4286 130.545 15.7273C130.545 14.5844 130.857 13.6234 131.481 12.8701C132.104 12.1169 132.987 11.6234 134.078 11.4156V9H136.338V11.3636C137.091 11.4675 137.74 11.7013 138.312 12.039C138.883 12.3766 139.377 12.7922 139.844 13.2857L138.078 15.2597Z" fill="#333B41"/>
<path d="M155.812 27H143.384V24.8799L149.541 18.1641C150.43 17.1738 151.06 16.3486 151.433 15.6885C151.813 15.0199 152.004 14.3512 152.004 13.6826C152.004 12.8024 151.754 12.0915 151.255 11.5498C150.764 11.0081 150.1 10.7373 149.262 10.7373C148.263 10.7373 147.489 11.042 146.938 11.6514C146.388 12.2607 146.113 13.0944 146.113 14.1523H143.028C143.028 13.0267 143.282 12.0153 143.79 11.1182C144.306 10.2126 145.038 9.51009 145.986 9.01074C146.943 8.51139 148.043 8.26172 149.287 8.26172C151.081 8.26172 152.495 8.71452 153.527 9.62012C154.568 10.5173 155.089 11.7614 155.089 13.3525C155.089 14.2751 154.826 15.2441 154.302 16.2598C153.785 17.2669 152.935 18.4137 151.75 19.7002L147.23 24.5371H155.812V27ZM158.986 17.834L159.989 8.51562H169.917V11.1816H162.554L162.046 15.5996C162.901 15.1087 163.866 14.8633 164.94 14.8633C166.701 14.8633 168.068 15.4261 169.041 16.5518C170.023 17.6774 170.514 19.1924 170.514 21.0967C170.514 22.9756 169.972 24.4736 168.889 25.5908C167.805 26.6995 166.32 27.2539 164.433 27.2539C162.74 27.2539 161.335 26.7757 160.218 25.8193C159.109 24.8545 158.508 23.585 158.415 22.0107H161.398C161.517 22.9079 161.839 23.5977 162.363 24.0801C162.888 24.554 163.574 24.791 164.42 24.791C165.368 24.791 166.104 24.4525 166.629 23.7754C167.162 23.0983 167.429 22.1758 167.429 21.0078C167.429 19.8822 167.137 18.9935 166.553 18.3418C165.969 17.6816 165.165 17.3516 164.141 17.3516C163.582 17.3516 163.108 17.4277 162.719 17.5801C162.329 17.724 161.906 18.0117 161.449 18.4434L158.986 17.834ZM184.986 19.2178C184.986 21.8753 184.487 23.8812 183.488 25.2354C182.498 26.5811 180.987 27.2539 178.956 27.2539C176.959 27.2539 175.452 26.598 174.437 25.2861C173.429 23.9658 172.913 22.015 172.888 19.4336V16.2344C172.888 13.5768 173.383 11.5837 174.373 10.2549C175.372 8.92611 176.891 8.26172 178.931 8.26172C180.953 8.26172 182.46 8.90918 183.45 10.2041C184.449 11.499 184.961 13.4372 184.986 16.0186V19.2178ZM181.901 15.7646C181.901 14.0296 181.664 12.7601 181.19 11.9561C180.716 11.1436 179.963 10.7373 178.931 10.7373C177.924 10.7373 177.183 11.1224 176.709 11.8926C176.235 12.6543 175.985 13.8477 175.96 15.4727V19.6621C175.96 21.3887 176.201 22.6751 176.684 23.5215C177.166 24.3678 177.924 24.791 178.956 24.791C179.946 24.791 180.678 24.4017 181.152 23.623C181.626 22.8359 181.876 21.6087 181.901 19.9414V15.7646Z" fill="#333B41"/>
<path d="M268.078 15.2597C267.662 14.8701 267.247 14.5844 266.857 14.3766C266.468 14.1948 266.026 14.0909 265.532 14.0909C264.961 14.0909 264.545 14.2208 264.26 14.4545C263.974 14.6883 263.818 15.0779 263.818 15.5974C263.818 15.961 263.974 16.2987 264.286 16.5325C264.597 16.7922 264.961 17.026 265.429 17.2597C265.896 17.4935 266.39 17.7273 266.909 17.987C267.429 18.2468 267.922 18.5325 268.39 18.8961C268.857 19.2597 269.221 19.6753 269.532 20.1948C269.844 20.7143 270 21.3377 270 22.0649C270 23.1818 269.688 24.1429 269.091 24.9481C268.494 25.7532 267.558 26.2727 266.364 26.5584V29H264.104V26.6623C263.429 26.5844 262.701 26.4026 261.948 26.0909C261.195 25.7792 260.545 25.3896 260 24.8961L261.506 22.5844C262.104 23.026 262.675 23.3636 263.195 23.5974C263.74 23.8312 264.286 23.9351 264.831 23.9351C265.481 23.9351 265.974 23.8052 266.26 23.5455C266.571 23.2857 266.727 22.8701 266.727 22.3247C266.727 21.9091 266.571 21.5714 266.26 21.2857C265.948 21 265.584 20.7403 265.117 20.4805C264.649 20.2208 264.156 19.961 263.636 19.7013C263.117 19.4416 262.623 19.1299 262.156 18.7662C261.688 18.4026 261.325 17.987 261.013 17.4935C260.701 17 260.545 16.4286 260.545 15.7273C260.545 14.5844 260.857 13.6234 261.481 12.8701C262.104 12.1169 262.987 11.6234 264.078 11.4156V9H266.338V11.3636C267.091 11.4675 267.74 11.7013 268.312 12.039C268.883 12.3766 269.377 12.7922 269.844 13.2857L268.078 15.2597Z" fill="#FE9013"/>
<path d="M281.737 27H278.665V12.1592L274.133 13.708V11.1055L281.344 8.45215H281.737V27ZM300.209 19.2178C300.209 21.8753 299.71 23.8812 298.711 25.2354C297.721 26.5811 296.21 27.2539 294.179 27.2539C292.181 27.2539 290.675 26.598 289.659 25.2861C288.652 23.9658 288.136 22.015 288.11 19.4336V16.2344C288.11 13.5768 288.605 11.5837 289.596 10.2549C290.594 8.92611 292.114 8.26172 294.153 8.26172C296.176 8.26172 297.683 8.90918 298.673 10.2041C299.672 11.499 300.184 13.4372 300.209 16.0186V19.2178ZM297.124 15.7646C297.124 14.0296 296.887 12.7601 296.413 11.9561C295.939 11.1436 295.186 10.7373 294.153 10.7373C293.146 10.7373 292.406 11.1224 291.932 11.8926C291.458 12.6543 291.208 13.8477 291.183 15.4727V19.6621C291.183 21.3887 291.424 22.6751 291.906 23.5215C292.389 24.3678 293.146 24.791 294.179 24.791C295.169 24.791 295.901 24.4017 296.375 23.623C296.849 22.8359 297.099 21.6087 297.124 19.9414V15.7646ZM314.986 19.2178C314.986 21.8753 314.487 23.8812 313.488 25.2354C312.498 26.5811 310.987 27.2539 308.956 27.2539C306.959 27.2539 305.452 26.598 304.437 25.2861C303.429 23.9658 302.913 22.015 302.888 19.4336V16.2344C302.888 13.5768 303.383 11.5837 304.373 10.2549C305.372 8.92611 306.891 8.26172 308.931 8.26172C310.953 8.26172 312.46 8.90918 313.45 10.2041C314.449 11.499 314.961 13.4372 314.986 16.0186V19.2178ZM311.901 15.7646C311.901 14.0296 311.664 12.7601 311.19 11.9561C310.716 11.1436 309.963 10.7373 308.931 10.7373C307.924 10.7373 307.183 11.1224 306.709 11.8926C306.235 12.6543 305.985 13.8477 305.96 15.4727V19.6621C305.96 21.3887 306.201 22.6751 306.684 23.5215C307.166 24.3678 307.924 24.791 308.956 24.791C309.946 24.791 310.678 24.4017 311.152 23.623C311.626 22.8359 311.876 21.6087 311.901 19.9414V15.7646Z" fill="#FE9013"/>
<path d="M398.078 15.2597C397.662 14.8701 397.247 14.5844 396.857 14.3766C396.468 14.1948 396.026 14.0909 395.532 14.0909C394.961 14.0909 394.545 14.2208 394.26 14.4545C393.974 14.6883 393.818 15.0779 393.818 15.5974C393.818 15.961 393.974 16.2987 394.286 16.5325C394.597 16.7922 394.961 17.026 395.429 17.2597C395.896 17.4935 396.39 17.7273 396.909 17.987C397.429 18.2468 397.922 18.5325 398.39 18.8961C398.857 19.2597 399.221 19.6753 399.532 20.1948C399.844 20.7143 400 21.3377 400 22.0649C400 23.1818 399.688 24.1429 399.091 24.9481C398.494 25.7532 397.558 26.2727 396.364 26.5584V29H394.104V26.6623C393.429 26.5844 392.701 26.4026 391.948 26.0909C391.195 25.7792 390.545 25.3896 390 24.8961L391.506 22.5844C392.104 23.026 392.675 23.3636 393.195 23.5974C393.74 23.8312 394.286 23.9351 394.831 23.9351C395.481 23.9351 395.974 23.8052 396.26 23.5455C396.571 23.2857 396.727 22.8701 396.727 22.3247C396.727 21.9091 396.571 21.5714 396.26 21.2857C395.948 21 395.584 20.7403 395.117 20.4805C394.649 20.2208 394.156 19.961 393.636 19.7013C393.117 19.4416 392.623 19.1299 392.156 18.7662C391.688 18.4026 391.325 17.987 391.013 17.4935C390.701 17 390.545 16.4286 390.545 15.7273C390.545 14.5844 390.857 13.6234 391.481 12.8701C392.104 12.1169 392.987 11.6234 394.078 11.4156V9H396.338V11.3636C397.091 11.4675 397.74 11.7013 398.312 12.039C398.883 12.3766 399.377 12.7922 399.844 13.2857L398.078 15.2597Z" fill="#333B41"/>
<path d="M404.209 17.834L405.212 8.51562H415.14V11.1816H407.776L407.269 15.5996C408.123 15.1087 409.088 14.8633 410.163 14.8633C411.924 14.8633 413.29 15.4261 414.264 16.5518C415.245 17.6774 415.736 19.1924 415.736 21.0967C415.736 22.9756 415.195 24.4736 414.111 25.5908C413.028 26.6995 411.543 27.2539 409.655 27.2539C407.963 27.2539 406.558 26.7757 405.44 25.8193C404.332 24.8545 403.731 23.585 403.638 22.0107H406.621C406.74 22.9079 407.061 23.5977 407.586 24.0801C408.111 24.554 408.796 24.791 409.643 24.791C410.59 24.791 411.327 24.4525 411.852 23.7754C412.385 23.0983 412.651 22.1758 412.651 21.0078C412.651 19.8822 412.359 18.9935 411.775 18.3418C411.191 17.6816 410.387 17.3516 409.363 17.3516C408.805 17.3516 408.331 17.4277 407.941 17.5801C407.552 17.724 407.129 18.0117 406.672 18.4434L404.209 17.834ZM430.209 19.2178C430.209 21.8753 429.71 23.8812 428.711 25.2354C427.721 26.5811 426.21 27.2539 424.179 27.2539C422.181 27.2539 420.675 26.598 419.659 25.2861C418.652 23.9658 418.136 22.015 418.11 19.4336V16.2344C418.11 13.5768 418.605 11.5837 419.596 10.2549C420.594 8.92611 422.114 8.26172 424.153 8.26172C426.176 8.26172 427.683 8.90918 428.673 10.2041C429.672 11.499 430.184 13.4372 430.209 16.0186V19.2178ZM427.124 15.7646C427.124 14.0296 426.887 12.7601 426.413 11.9561C425.939 11.1436 425.186 10.7373 424.153 10.7373C423.146 10.7373 422.406 11.1224 421.932 11.8926C421.458 12.6543 421.208 13.8477 421.183 15.4727V19.6621C421.183 21.3887 421.424 22.6751 421.906 23.5215C422.389 24.3678 423.146 24.791 424.179 24.791C425.169 24.791 425.901 24.4017 426.375 23.623C426.849 22.8359 427.099 21.6087 427.124 19.9414V15.7646Z" fill="#333B41"/>
<path d="M528.078 15.2597C527.662 14.8701 527.247 14.5844 526.857 14.3766C526.468 14.1948 526.026 14.0909 525.532 14.0909C524.961 14.0909 524.545 14.2208 524.26 14.4545C523.974 14.6883 523.818 15.0779 523.818 15.5974C523.818 15.961 523.974 16.2987 524.286 16.5325C524.597 16.7922 524.961 17.026 525.429 17.2597C525.896 17.4935 526.39 17.7273 526.909 17.987C527.429 18.2468 527.922 18.5325 528.39 18.8961C528.857 19.2597 529.221 19.6753 529.532 20.1948C529.844 20.7143 530 21.3377 530 22.0649C530 23.1818 529.688 24.1429 529.091 24.9481C528.494 25.7532 527.558 26.2727 526.364 26.5584V29H524.104V26.6623C523.429 26.5844 522.701 26.4026 521.948 26.0909C521.195 25.7792 520.545 25.3896 520 24.8961L521.506 22.5844C522.104 23.026 522.675 23.3636 523.195 23.5974C523.74 23.8312 524.286 23.9351 524.831 23.9351C525.481 23.9351 525.974 23.8052 526.26 23.5455C526.571 23.2857 526.727 22.8701 526.727 22.3247C526.727 21.9091 526.571 21.5714 526.26 21.2857C525.948 21 525.584 20.7403 525.117 20.4805C524.649 20.2208 524.156 19.961 523.636 19.7013C523.117 19.4416 522.623 19.1299 522.156 18.7662C521.688 18.4026 521.325 17.987 521.013 17.4935C520.701 17 520.545 16.4286 520.545 15.7273C520.545 14.5844 520.857 13.6234 521.481 12.8701C522.104 12.1169 522.987 11.6234 524.078 11.4156V9H526.338V11.3636C527.091 11.4675 527.74 11.7013 528.312 12.039C528.883 12.3766 529.377 12.7922 529.844 13.2857L528.078 15.2597Z" fill="#333B41"/>
<path d="M545.812 27H533.384V24.8799L539.541 18.1641C540.43 17.1738 541.06 16.3486 541.433 15.6885C541.813 15.0199 542.004 14.3512 542.004 13.6826C542.004 12.8024 541.754 12.0915 541.255 11.5498C540.764 11.0081 540.1 10.7373 539.262 10.7373C538.263 10.7373 537.489 11.042 536.938 11.6514C536.388 12.2607 536.113 13.0944 536.113 14.1523H533.028C533.028 13.0267 533.282 12.0153 533.79 11.1182C534.306 10.2126 535.038 9.51009 535.986 9.01074C536.943 8.51139 538.043 8.26172 539.287 8.26172C541.081 8.26172 542.495 8.71452 543.527 9.62012C544.568 10.5173 545.089 11.7614 545.089 13.3525C545.089 14.2751 544.826 15.2441 544.302 16.2598C543.785 17.2669 542.935 18.4137 541.75 19.7002L537.23 24.5371H545.812V27ZM548.986 17.834L549.989 8.51562H559.917V11.1816H552.554L552.046 15.5996C552.901 15.1087 553.866 14.8633 554.94 14.8633C556.701 14.8633 558.068 15.4261 559.041 16.5518C560.023 17.6774 560.514 19.1924 560.514 21.0967C560.514 22.9756 559.972 24.4736 558.889 25.5908C557.805 26.6995 556.32 27.2539 554.433 27.2539C552.74 27.2539 551.335 26.7757 550.218 25.8193C549.109 24.8545 548.508 23.585 548.415 22.0107H551.398C551.517 22.9079 551.839 23.5977 552.363 24.0801C552.888 24.554 553.574 24.791 554.42 24.791C555.368 24.791 556.104 24.4525 556.629 23.7754C557.162 23.0983 557.429 22.1758 557.429 21.0078C557.429 19.8822 557.137 18.9935 556.553 18.3418C555.969 17.6816 555.165 17.3516 554.141 17.3516C553.582 17.3516 553.108 17.4277 552.719 17.5801C552.329 17.724 551.906 18.0117 551.449 18.4434L548.986 17.834Z" fill="#333B41"/>
</svg>
