<svg width="600" height="58" viewBox="0 0 600 58" fill="none" xmlns="http://www.w3.org/2000/svg">
<rect y="25" width="600" height="27" rx="2" fill="#404950"/>
<rect x="41" y="37" width="524" height="2" fill="#72828E"/>
<circle cx="40" cy="38" r="5" fill="#FFEE2E"/>
<circle cx="170" cy="37" r="5" fill="#FFEE2E"/>
<circle cx="300" cy="38" r="5" fill="#FFEE2E"/>
<circle cx="430" cy="38" r="5" fill="#FFEE2E"/>
<circle cx="560" cy="38" r="5" fill="#FFEE2E"/>
<path fill-rule="evenodd" clip-rule="evenodd" d="M311.477 38.0004C311.477 44.3443 306.344 49.4774 300 49.4774C293.657 49.4774 288.523 44.3443 288.523 38.0004C288.523 31.6566 293.657 26.5234 300 26.5234C306.344 26.5234 311.477 31.6566 311.477 38.0004ZM300 28.3152C305.376 28.3152 309.734 32.6251 309.734 38.0004C309.734 43.3757 305.376 47.7341 300 47.7341C294.625 47.7341 290.315 43.3757 290.315 38.0004C290.315 32.6251 294.625 28.3152 300 28.3152Z" fill="#FE9013"/>
<path fill-rule="evenodd" clip-rule="evenodd" d="M300 18C311.041 18 320 26.9588 320 38C320 49.0412 311.041 58 300 58C288.959 58 280 49.0412 280 38C280 26.9588 288.959 18 300 18ZM300 19.7918C310.073 19.7918 318.257 27.9274 318.257 38C318.257 48.0726 310.073 56.2567 300 56.2567C289.927 56.2567 281.792 48.0726 281.792 38C281.792 27.9274 289.927 19.7918 300 19.7918Z" fill="#FE9013"/>
<path d="M17.6016 9.03125H12.8359L11.7656 12H10.2188L14.5625 0.625H15.875L20.2266 12H18.6875L17.6016 9.03125ZM13.2891 7.79688H17.1562L15.2188 2.47656L13.2891 7.79688ZM22.8906 3.54688L22.9297 4.48438C23.5495 3.75521 24.3854 3.39062 25.4375 3.39062C26.6198 3.39062 27.4245 3.84375 27.8516 4.75C28.1328 4.34375 28.4974 4.01562 28.9453 3.76562C29.3984 3.51562 29.9323 3.39062 30.5469 3.39062C32.401 3.39062 33.3438 4.3724 33.375 6.33594V12H31.9297V6.42188C31.9297 5.81771 31.7917 5.36719 31.5156 5.07031C31.2396 4.76823 30.776 4.61719 30.125 4.61719C29.5885 4.61719 29.1432 4.77865 28.7891 5.10156C28.4349 5.41927 28.2292 5.84896 28.1719 6.39062V12H26.7188V6.46094C26.7188 5.23177 26.1172 4.61719 24.9141 4.61719C23.9661 4.61719 23.3177 5.02083 22.9688 5.82812V12H21.5234V3.54688H22.8906ZM35.1797 7.69531C35.1797 6.86719 35.3411 6.1224 35.6641 5.46094C35.9922 4.79948 36.4453 4.28906 37.0234 3.92969C37.6068 3.57031 38.2708 3.39062 39.0156 3.39062C40.1667 3.39062 41.0964 3.78906 41.8047 4.58594C42.5182 5.38281 42.875 6.44271 42.875 7.76562V7.86719C42.875 8.6901 42.7161 9.42969 42.3984 10.0859C42.0859 10.737 41.6354 11.2448 41.0469 11.6094C40.4635 11.974 39.7917 12.1562 39.0312 12.1562C37.8854 12.1562 36.9557 11.7578 36.2422 10.9609C35.5339 10.1641 35.1797 9.10938 35.1797 7.79688V7.69531ZM36.6328 7.86719C36.6328 8.80469 36.849 9.55729 37.2812 10.125C37.7188 10.6927 38.3021 10.9766 39.0312 10.9766C39.7656 10.9766 40.349 10.6901 40.7812 10.1172C41.2135 9.53906 41.4297 8.73177 41.4297 7.69531C41.4297 6.76823 41.2083 6.01823 40.7656 5.44531C40.3281 4.86719 39.7448 4.57812 39.0156 4.57812C38.3021 4.57812 37.7266 4.86198 37.2891 5.42969C36.8516 5.9974 36.6328 6.8099 36.6328 7.86719ZM49.9062 11.1641C49.3438 11.8255 48.5182 12.1562 47.4297 12.1562C46.5286 12.1562 45.8411 11.8958 45.3672 11.375C44.8984 10.849 44.6615 10.0729 44.6562 9.04688V3.54688H46.1016V9.00781C46.1016 10.2891 46.6224 10.9297 47.6641 10.9297C48.7682 10.9297 49.5026 10.5182 49.8672 9.69531V3.54688H51.3125V12H49.9375L49.9062 11.1641ZM54.8828 3.54688L54.9297 4.60938C55.5755 3.79688 56.4193 3.39062 57.4609 3.39062C59.2474 3.39062 60.1484 4.39844 60.1641 6.41406V12H58.7188V6.40625C58.7135 5.79688 58.5729 5.34635 58.2969 5.05469C58.026 4.76302 57.6016 4.61719 57.0234 4.61719C56.5547 4.61719 56.1432 4.74219 55.7891 4.99219C55.4349 5.24219 55.1589 5.57031 54.9609 5.97656V12H53.5156V3.54688H54.8828ZM64.3047 1.5V3.54688H65.8828V4.66406H64.3047V9.90625C64.3047 10.2448 64.375 10.5 64.5156 10.6719C64.6562 10.8385 64.8958 10.9219 65.2344 10.9219C65.401 10.9219 65.6302 10.8906 65.9219 10.8281V12C65.5417 12.1042 65.1719 12.1562 64.8125 12.1562C64.1667 12.1562 63.6797 11.9609 63.3516 11.5703C63.0234 11.1797 62.8594 10.625 62.8594 9.90625V4.66406H61.3203V3.54688H62.8594V1.5H64.3047Z" fill="black"/>
</svg>
