<svg width="218" height="16" viewBox="0 0 218 16" fill="none" xmlns="http://www.w3.org/2000/svg">
<path d="M0.5625 12V0.625H3.71094C4.59115 0.625 5.38802 0.833333 6.10156 1.25C6.8151 1.66667 7.375 2.2526 7.78125 3.00781C8.1875 3.75781 8.39583 4.59896 8.40625 5.53125V7.00781C8.40625 7.95573 8.20573 8.8099 7.80469 9.57031C7.40885 10.3307 6.85417 10.9245 6.14062 11.3516C5.42708 11.7786 4.63021 11.9948 3.75 12H0.5625ZM0.984375 1.04688V11.5781H3.71094C4.50781 11.5781 5.23177 11.3854 5.88281 11C6.53906 10.6094 7.05208 10.0677 7.42188 9.375C7.79167 8.67708 7.97917 7.90365 7.98438 7.05469V5.59375C7.98438 4.74479 7.80208 3.97396 7.4375 3.28125C7.07812 2.58854 6.57292 2.04688 5.92188 1.65625C5.27604 1.26042 4.5599 1.05729 3.77344 1.04688H0.984375ZM13.8516 12.1562C13.1693 12.1562 12.5417 11.974 11.9688 11.6094C11.401 11.2396 10.9557 10.7344 10.6328 10.0938C10.3099 9.45312 10.1484 8.74219 10.1484 7.96094V7.60938C10.1484 6.82812 10.3047 6.11198 10.6172 5.46094C10.9297 4.8099 11.3594 4.30208 11.9062 3.9375C12.4531 3.57292 13.0495 3.39062 13.6953 3.39062C14.638 3.39062 15.4089 3.72656 16.0078 4.39844C16.6068 5.07031 16.9062 5.95312 16.9062 7.04688V7.49219H10.5703V7.95312C10.5703 8.64062 10.7135 9.27865 11 9.86719C11.2917 10.4505 11.6901 10.9089 12.1953 11.2422C12.7057 11.5755 13.2578 11.7422 13.8516 11.7422C14.4193 11.7422 14.901 11.6484 15.2969 11.4609C15.6979 11.2682 16.0521 10.974 16.3594 10.5781L16.6562 10.7891C16.026 11.7005 15.0911 12.1562 13.8516 12.1562ZM13.6953 3.8125C12.8724 3.8125 12.1745 4.11979 11.6016 4.73438C11.0286 5.34375 10.6927 6.1224 10.5938 7.07031H16.4844V6.96875C16.4844 6.39583 16.362 5.86458 16.1172 5.375C15.8776 4.88021 15.5443 4.4974 15.1172 4.22656C14.6953 3.95052 14.2214 3.8125 13.6953 3.8125ZM24.0859 9.92969C24.0859 8.90365 23.2109 8.20573 21.4609 7.83594C20.4089 7.61198 19.6771 7.32552 19.2656 6.97656C18.8542 6.6224 18.6484 6.13802 18.6484 5.52344C18.6484 4.90365 18.9089 4.39323 19.4297 3.99219C19.9557 3.59115 20.638 3.39062 21.4766 3.39062C22.388 3.39062 23.1198 3.60938 23.6719 4.04688C24.224 4.47917 24.5 5.0651 24.5 5.80469H24.0703C24.0703 5.23698 23.8307 4.76302 23.3516 4.38281C22.8724 4.0026 22.2474 3.8125 21.4766 3.8125C20.737 3.8125 20.151 3.97396 19.7188 4.29688C19.2865 4.61979 19.0703 5.02344 19.0703 5.50781C19.0703 5.88802 19.151 6.1875 19.3125 6.40625C19.474 6.61979 19.737 6.8151 20.1016 6.99219C20.4661 7.16406 20.9974 7.33073 21.6953 7.49219C22.3932 7.65365 22.9453 7.84375 23.3516 8.0625C23.7578 8.28125 24.0521 8.54167 24.2344 8.84375C24.4167 9.14062 24.5078 9.50521 24.5078 9.9375C24.5078 10.6042 24.2344 11.1406 23.6875 11.5469C23.1406 11.9531 22.4245 12.1562 21.5391 12.1562C20.5911 12.1562 19.8255 11.9427 19.2422 11.5156C18.6641 11.0833 18.375 10.5286 18.375 9.85156H18.7969C18.8385 10.4453 19.099 10.9089 19.5781 11.2422C20.0625 11.5703 20.7161 11.7344 21.5391 11.7344C22.2943 11.7344 22.9062 11.5599 23.375 11.2109C23.849 10.8568 24.0859 10.4297 24.0859 9.92969ZM27.3672 12H26.9453V3.54688H27.3672V12ZM26.7266 0.90625C26.7266 0.786458 26.7682 0.684896 26.8516 0.601562C26.9349 0.513021 27.0365 0.46875 27.1562 0.46875C27.276 0.46875 27.3776 0.513021 27.4609 0.601562C27.5495 0.684896 27.5938 0.786458 27.5938 0.90625C27.5938 1.02604 27.5495 1.1276 27.4609 1.21094C27.3776 1.29427 27.276 1.33594 27.1562 1.33594C27.0365 1.33594 26.9349 1.29427 26.8516 1.21094C26.7682 1.1276 26.7266 1.02604 26.7266 0.90625ZM29.7422 7.6875C29.7422 6.33854 30.026 5.28646 30.5938 4.53125C31.1615 3.77083 31.9401 3.39062 32.9297 3.39062C33.5599 3.39062 34.1198 3.53646 34.6094 3.82812C35.099 4.11458 35.4922 4.53646 35.7891 5.09375V3.54688H36.2188V11.8516C36.2188 12.9661 35.9323 13.8359 35.3594 14.4609C34.7865 15.0911 34.0078 15.4062 33.0234 15.4062C32.4557 15.4062 31.9349 15.2839 31.4609 15.0391C30.9922 14.7943 30.5911 14.4427 30.2578 13.9844L30.5547 13.7031C30.8828 14.1198 31.2422 14.4375 31.6328 14.6562C32.0234 14.8802 32.4818 14.9922 33.0078 14.9922C33.8776 14.9922 34.5547 14.7266 35.0391 14.1953C35.5234 13.6693 35.7734 12.9245 35.7891 11.9609V10.6641C35.4974 11.1432 35.1016 11.513 34.6016 11.7734C34.1068 12.0286 33.5443 12.1562 32.9141 12.1562C31.9349 12.1562 31.1615 11.7682 30.5938 10.9922C30.026 10.2161 29.7422 9.15104 29.7422 7.79688V7.6875ZM30.1719 7.85156C30.1719 9.0599 30.4115 10.0104 30.8906 10.7031C31.3698 11.3906 32.0417 11.7344 32.9062 11.7344C33.6198 11.7344 34.2266 11.5703 34.7266 11.2422C35.2266 10.9089 35.5807 10.4427 35.7891 9.84375V6.00781C35.3307 4.54427 34.375 3.8125 32.9219 3.8125C32.0521 3.8125 31.375 4.15365 30.8906 4.83594C30.4115 5.51823 30.1719 6.52344 30.1719 7.85156ZM39.3438 5.51562C39.6198 4.85938 40.026 4.34115 40.5625 3.96094C41.099 3.58073 41.6927 3.39062 42.3438 3.39062C43.25 3.39062 43.9219 3.64844 44.3594 4.16406C44.8021 4.67448 45.026 5.44792 45.0312 6.48438V12H44.6094V6.46875C44.6042 5.5625 44.4193 4.89323 44.0547 4.46094C43.6901 4.02344 43.112 3.80469 42.3203 3.80469C41.5911 3.80469 40.9583 4.0651 40.4219 4.58594C39.8906 5.10156 39.5312 5.76823 39.3438 6.58594V12H38.9219V3.54688H39.3438V5.51562ZM50.7266 12.1562C50.0443 12.1562 49.4167 11.974 48.8438 11.6094C48.276 11.2396 47.8307 10.7344 47.5078 10.0938C47.1849 9.45312 47.0234 8.74219 47.0234 7.96094V7.60938C47.0234 6.82812 47.1797 6.11198 47.4922 5.46094C47.8047 4.8099 48.2344 4.30208 48.7812 3.9375C49.3281 3.57292 49.9245 3.39062 50.5703 3.39062C51.513 3.39062 52.2839 3.72656 52.8828 4.39844C53.4818 5.07031 53.7812 5.95312 53.7812 7.04688V7.49219H47.4453V7.95312C47.4453 8.64062 47.5885 9.27865 47.875 9.86719C48.1667 10.4505 48.5651 10.9089 49.0703 11.2422C49.5807 11.5755 50.1328 11.7422 50.7266 11.7422C51.2943 11.7422 51.776 11.6484 52.1719 11.4609C52.5729 11.2682 52.9271 10.974 53.2344 10.5781L53.5312 10.7891C52.901 11.7005 51.9661 12.1562 50.7266 12.1562ZM50.5703 3.8125C49.7474 3.8125 49.0495 4.11979 48.4766 4.73438C47.9036 5.34375 47.5677 6.1224 47.4688 7.07031H53.3594V6.96875C53.3594 6.39583 53.237 5.86458 52.9922 5.375C52.7526 4.88021 52.4193 4.4974 51.9922 4.22656C51.5703 3.95052 51.0964 3.8125 50.5703 3.8125ZM55.3594 7.6875C55.3594 6.33854 55.6432 5.28646 56.2109 4.53125C56.7786 3.77083 57.5573 3.39062 58.5469 3.39062C59.1823 3.39062 59.7422 3.53385 60.2266 3.82031C60.7161 4.10677 61.112 4.53385 61.4141 5.10156V0H61.8359V12H61.4141V10.6484C61.1276 11.1276 60.7344 11.5 60.2344 11.7656C59.7344 12.026 59.1667 12.1562 58.5312 12.1562C57.5521 12.1562 56.7786 11.7682 56.2109 10.9922C55.6432 10.2161 55.3594 9.15104 55.3594 7.79688V7.6875ZM55.7969 7.85156C55.7969 9.04948 56.0339 9.9974 56.5078 10.6953C56.9818 11.388 57.6536 11.7344 58.5234 11.7344C59.2214 11.7344 59.8177 11.5807 60.3125 11.2734C60.8073 10.9609 61.1745 10.5052 61.4141 9.90625V5.94531C60.9297 4.52344 59.9714 3.8125 58.5391 3.8125C57.6745 3.8125 57 4.15365 56.5156 4.83594C56.0365 5.51823 55.7969 6.52344 55.7969 7.85156ZM74.8047 7.85156C74.8047 9.16927 74.5208 10.2161 73.9531 10.9922C73.3854 11.7682 72.612 12.1562 71.6328 12.1562C70.9974 12.1562 70.4297 12.026 69.9297 11.7656C69.4297 11.5 69.0365 11.1328 68.75 10.6641V12H68.3281V0H68.75V5.08594C69.0469 4.52865 69.4375 4.10677 69.9219 3.82031C70.4115 3.53385 70.9766 3.39062 71.6172 3.39062C72.6068 3.39062 73.3854 3.77083 73.9531 4.53125C74.5208 5.28646 74.8047 6.34896 74.8047 7.71875V7.85156ZM74.3672 7.6875C74.3672 6.47396 74.125 5.52604 73.6406 4.84375C73.1615 4.15625 72.4896 3.8125 71.625 3.8125C70.9167 3.8125 70.3151 3.99479 69.8203 4.35938C69.3307 4.72396 68.974 5.26562 68.75 5.98438V9.85938C68.974 10.4583 69.3307 10.9219 69.8203 11.25C70.3151 11.5729 70.9219 11.7344 71.6406 11.7344C72.5104 11.7344 73.1823 11.388 73.6562 10.6953C74.1302 10.0026 74.3672 9 74.3672 7.6875ZM79.6016 11.3438L79.6562 11.1875L82.5781 3.54688H83.0469L79.2656 13.4688L79.0781 13.9375C78.6719 14.9219 78 15.4141 77.0625 15.4141C76.7604 15.4141 76.5521 15.3854 76.4375 15.3281L76.4297 14.9297C76.5964 14.9766 76.7865 15 77 15C77.4427 15 77.8099 14.8698 78.1016 14.6094C78.3932 14.3542 78.6458 13.9349 78.8594 13.3516L79.375 11.9531L76.0078 3.54688H76.4688L79.6016 11.3438ZM94.6953 8.60156H89.125L87.8594 12H87.3984L91.6562 0.625H92.1719L96.4297 12H95.9688L94.6953 8.60156ZM89.2812 8.17969H94.5391L91.9141 1.13281L89.2812 8.17969ZM98.5703 12H98.1484V0H98.5703V12ZM101.867 12H101.445V3.54688H101.867V12ZM101.227 0.90625C101.227 0.786458 101.268 0.684896 101.352 0.601562C101.435 0.513021 101.536 0.46875 101.656 0.46875C101.776 0.46875 101.878 0.513021 101.961 0.601562C102.049 0.684896 102.094 0.786458 102.094 0.90625C102.094 1.02604 102.049 1.1276 101.961 1.21094C101.878 1.29427 101.776 1.33594 101.656 1.33594C101.536 1.33594 101.435 1.29427 101.352 1.21094C101.268 1.1276 101.227 1.02604 101.227 0.90625ZM109.852 9.92969C109.852 8.90365 108.977 8.20573 107.227 7.83594C106.174 7.61198 105.443 7.32552 105.031 6.97656C104.62 6.6224 104.414 6.13802 104.414 5.52344C104.414 4.90365 104.674 4.39323 105.195 3.99219C105.721 3.59115 106.404 3.39062 107.242 3.39062C108.154 3.39062 108.885 3.60938 109.438 4.04688C109.99 4.47917 110.266 5.0651 110.266 5.80469H109.836C109.836 5.23698 109.596 4.76302 109.117 4.38281C108.638 4.0026 108.013 3.8125 107.242 3.8125C106.503 3.8125 105.917 3.97396 105.484 4.29688C105.052 4.61979 104.836 5.02344 104.836 5.50781C104.836 5.88802 104.917 6.1875 105.078 6.40625C105.24 6.61979 105.503 6.8151 105.867 6.99219C106.232 7.16406 106.763 7.33073 107.461 7.49219C108.159 7.65365 108.711 7.84375 109.117 8.0625C109.523 8.28125 109.818 8.54167 110 8.84375C110.182 9.14062 110.273 9.50521 110.273 9.9375C110.273 10.6042 110 11.1406 109.453 11.5469C108.906 11.9531 108.19 12.1562 107.305 12.1562C106.357 12.1562 105.591 11.9427 105.008 11.5156C104.43 11.0833 104.141 10.5286 104.141 9.85156H104.562C104.604 10.4453 104.865 10.9089 105.344 11.2422C105.828 11.5703 106.482 11.7344 107.305 11.7344C108.06 11.7344 108.672 11.5599 109.141 11.2109C109.615 10.8568 109.852 10.4297 109.852 9.92969ZM118.07 12C117.966 11.6406 117.914 11.125 117.914 10.4531C117.581 10.9948 117.125 11.4141 116.547 11.7109C115.969 12.0078 115.315 12.1562 114.586 12.1562C113.805 12.1562 113.174 11.9453 112.695 11.5234C112.221 11.0964 111.984 10.5417 111.984 9.85938C111.984 9.08333 112.333 8.46354 113.031 8C113.734 7.53125 114.667 7.29167 115.828 7.28125H117.914V6.04688C117.914 5.33854 117.69 4.78906 117.242 4.39844C116.799 4.00781 116.164 3.8125 115.336 3.8125C114.565 3.8125 113.922 4.01042 113.406 4.40625C112.891 4.80208 112.633 5.29167 112.633 5.875L112.211 5.85938C112.211 5.17188 112.513 4.58854 113.117 4.10938C113.721 3.63021 114.461 3.39062 115.336 3.39062C116.247 3.39062 116.971 3.61979 117.508 4.07812C118.044 4.53125 118.32 5.17188 118.336 6V10.0391C118.336 10.9661 118.409 11.5964 118.555 11.9297V12H118.07ZM114.586 11.7422C115.378 11.7422 116.057 11.5651 116.625 11.2109C117.198 10.8568 117.628 10.3594 117.914 9.71875V7.71094H115.961C114.753 7.71094 113.828 7.95052 113.188 8.42969C112.667 8.82031 112.406 9.30729 112.406 9.89062C112.406 10.4062 112.612 10.8438 113.023 11.2031C113.435 11.5625 113.956 11.7422 114.586 11.7422ZM131.922 9.27344C131.922 8.78906 131.807 8.38021 131.578 8.04688C131.354 7.70833 130.997 7.41146 130.508 7.15625C130.023 6.89583 129.289 6.63021 128.305 6.35938C127.32 6.08854 126.581 5.8151 126.086 5.53906C125.596 5.26302 125.237 4.94271 125.008 4.57812C124.779 4.21354 124.664 3.77083 124.664 3.25C124.664 2.42188 125.013 1.7526 125.711 1.24219C126.409 0.726562 127.318 0.46875 128.438 0.46875C129.167 0.46875 129.82 0.611979 130.398 0.898438C130.982 1.17969 131.432 1.57812 131.75 2.09375C132.068 2.60417 132.227 3.18229 132.227 3.82812H131.805C131.805 2.97917 131.492 2.27865 130.867 1.72656C130.242 1.16927 129.432 0.890625 128.438 0.890625C127.438 0.890625 126.628 1.11458 126.008 1.5625C125.393 2.00521 125.086 2.5625 125.086 3.23438C125.086 3.91667 125.354 4.46615 125.891 4.88281C126.427 5.29948 127.312 5.66927 128.547 5.99219C129.781 6.3099 130.685 6.67969 131.258 7.10156C131.987 7.63802 132.352 8.35677 132.352 9.25781C132.352 9.83073 132.19 10.3385 131.867 10.7812C131.544 11.2188 131.086 11.5573 130.492 11.7969C129.898 12.0365 129.232 12.1562 128.492 12.1562C127.669 12.1562 126.93 12.0208 126.273 11.75C125.617 11.474 125.122 11.0833 124.789 10.5781C124.461 10.0729 124.297 9.47656 124.297 8.78906H124.719C124.719 9.72135 125.068 10.4453 125.766 10.9609C126.464 11.4766 127.372 11.7344 128.492 11.7344C129.487 11.7344 130.307 11.5078 130.953 11.0547C131.599 10.5964 131.922 10.0026 131.922 9.27344ZM139.82 12C139.716 11.6406 139.664 11.125 139.664 10.4531C139.331 10.9948 138.875 11.4141 138.297 11.7109C137.719 12.0078 137.065 12.1562 136.336 12.1562C135.555 12.1562 134.924 11.9453 134.445 11.5234C133.971 11.0964 133.734 10.5417 133.734 9.85938C133.734 9.08333 134.083 8.46354 134.781 8C135.484 7.53125 136.417 7.29167 137.578 7.28125H139.664V6.04688C139.664 5.33854 139.44 4.78906 138.992 4.39844C138.549 4.00781 137.914 3.8125 137.086 3.8125C136.315 3.8125 135.672 4.01042 135.156 4.40625C134.641 4.80208 134.383 5.29167 134.383 5.875L133.961 5.85938C133.961 5.17188 134.263 4.58854 134.867 4.10938C135.471 3.63021 136.211 3.39062 137.086 3.39062C137.997 3.39062 138.721 3.61979 139.258 4.07812C139.794 4.53125 140.07 5.17188 140.086 6V10.0391C140.086 10.9661 140.159 11.5964 140.305 11.9297V12H139.82ZM136.336 11.7422C137.128 11.7422 137.807 11.5651 138.375 11.2109C138.948 10.8568 139.378 10.3594 139.664 9.71875V7.71094H137.711C136.503 7.71094 135.578 7.95052 134.938 8.42969C134.417 8.82031 134.156 9.30729 134.156 9.89062C134.156 10.4062 134.362 10.8438 134.773 11.2031C135.185 11.5625 135.706 11.7422 136.336 11.7422ZM148.859 12H148.438V6.32031C148.432 5.47135 148.245 4.84115 147.875 4.42969C147.51 4.01302 146.927 3.80469 146.125 3.80469C145.198 3.80469 144.44 4.21354 143.852 5.03125C143.503 5.52083 143.271 6.0625 143.156 6.65625V12H142.727V3.54688H143.156V5.54688C143.443 4.85938 143.852 4.32812 144.383 3.95312C144.914 3.57812 145.503 3.39062 146.148 3.39062C146.857 3.39062 147.435 3.54688 147.883 3.85938C148.336 4.17188 148.633 4.68229 148.773 5.39062C149.023 4.78125 149.43 4.29688 149.992 3.9375C150.555 3.57292 151.185 3.39062 151.883 3.39062C152.794 3.39062 153.471 3.64844 153.914 4.16406C154.362 4.67969 154.589 5.45312 154.594 6.48438V12H154.172V6.51562C154.172 5.58854 153.984 4.90365 153.609 4.46094C153.24 4.01302 152.656 3.79427 151.859 3.80469C150.833 3.82031 150.021 4.22917 149.422 5.03125C149.078 5.49479 148.891 5.94271 148.859 6.375V12ZM163.617 7.85156C163.617 9.16927 163.333 10.2161 162.766 10.9922C162.198 11.7682 161.424 12.1562 160.445 12.1562C159.81 12.1562 159.242 12.026 158.742 11.7656C158.242 11.5 157.849 11.1328 157.562 10.6641V12H157.141V0H157.562V5.08594C157.859 4.52865 158.25 4.10677 158.734 3.82031C159.224 3.53385 159.789 3.39062 160.43 3.39062C161.419 3.39062 162.198 3.77083 162.766 4.53125C163.333 5.28646 163.617 6.34896 163.617 7.71875V7.85156ZM163.18 7.6875C163.18 6.47396 162.938 5.52604 162.453 4.84375C161.974 4.15625 161.302 3.8125 160.438 3.8125C159.729 3.8125 159.128 3.99479 158.633 4.35938C158.143 4.72396 157.786 5.26562 157.562 5.98438V9.85938C157.786 10.4583 158.143 10.9219 158.633 11.25C159.128 11.5729 159.734 11.7344 160.453 11.7344C161.323 11.7344 161.995 11.388 162.469 10.6953C162.943 10.0026 163.18 9 163.18 7.6875ZM165.281 7.60938C165.281 6.80208 165.435 6.07812 165.742 5.4375C166.055 4.79167 166.492 4.28906 167.055 3.92969C167.622 3.57031 168.263 3.39062 168.977 3.39062C169.685 3.39062 170.32 3.5651 170.883 3.91406C171.445 4.26302 171.883 4.75781 172.195 5.39844C172.513 6.03906 172.674 6.76042 172.68 7.5625V7.9375C172.68 8.75 172.526 9.47656 172.219 10.1172C171.911 10.7578 171.474 11.2578 170.906 11.6172C170.344 11.9766 169.706 12.1562 168.992 12.1562C168.279 12.1562 167.638 11.9792 167.07 11.625C166.508 11.2708 166.07 10.776 165.758 10.1406C165.445 9.5 165.286 8.78125 165.281 7.98438V7.60938ZM165.703 7.9375C165.703 8.64062 165.841 9.28646 166.117 9.875C166.398 10.4583 166.786 10.9141 167.281 11.2422C167.781 11.5703 168.352 11.7344 168.992 11.7344C169.956 11.7344 170.74 11.3724 171.344 10.6484C171.953 9.92448 172.258 8.99219 172.258 7.85156V7.60938C172.258 6.91667 172.117 6.27604 171.836 5.6875C171.555 5.09896 171.164 4.64062 170.664 4.3125C170.169 3.97917 169.607 3.8125 168.977 3.8125C168.013 3.8125 167.227 4.17969 166.617 4.91406C166.008 5.64844 165.703 6.57292 165.703 7.6875V7.9375ZM178.461 3.85156L177.914 3.80469C177.195 3.80469 176.594 4.03906 176.109 4.50781C175.625 4.97135 175.307 5.6224 175.156 6.46094V12H174.734V3.54688H175.156V5.30469C175.385 4.71615 175.729 4.25 176.188 3.90625C176.646 3.5625 177.221 3.39062 177.914 3.39062C178.159 3.39062 178.357 3.41927 178.508 3.47656L178.461 3.85156ZM185.305 9.92969C185.305 8.90365 184.43 8.20573 182.68 7.83594C181.628 7.61198 180.896 7.32552 180.484 6.97656C180.073 6.6224 179.867 6.13802 179.867 5.52344C179.867 4.90365 180.128 4.39323 180.648 3.99219C181.174 3.59115 181.857 3.39062 182.695 3.39062C183.607 3.39062 184.339 3.60938 184.891 4.04688C185.443 4.47917 185.719 5.0651 185.719 5.80469H185.289C185.289 5.23698 185.049 4.76302 184.57 4.38281C184.091 4.0026 183.466 3.8125 182.695 3.8125C181.956 3.8125 181.37 3.97396 180.938 4.29688C180.505 4.61979 180.289 5.02344 180.289 5.50781C180.289 5.88802 180.37 6.1875 180.531 6.40625C180.693 6.61979 180.956 6.8151 181.32 6.99219C181.685 7.16406 182.216 7.33073 182.914 7.49219C183.612 7.65365 184.164 7.84375 184.57 8.0625C184.977 8.28125 185.271 8.54167 185.453 8.84375C185.635 9.14062 185.727 9.50521 185.727 9.9375C185.727 10.6042 185.453 11.1406 184.906 11.5469C184.359 11.9531 183.643 12.1562 182.758 12.1562C181.81 12.1562 181.044 11.9427 180.461 11.5156C179.883 11.0833 179.594 10.5286 179.594 9.85156H180.016C180.057 10.4453 180.318 10.9089 180.797 11.2422C181.281 11.5703 181.935 11.7344 182.758 11.7344C183.513 11.7344 184.125 11.5599 184.594 11.2109C185.068 10.8568 185.305 10.4297 185.305 9.92969ZM189.727 7.42969L189.711 7.44531L188.484 8.5V12H188.062V0H188.484V8.03906L189.477 7.10156L193.32 3.54688H193.922L190.039 7.14844L194.164 12H193.617L189.727 7.42969ZM201.102 12C200.997 11.6406 200.945 11.125 200.945 10.4531C200.612 10.9948 200.156 11.4141 199.578 11.7109C199 12.0078 198.346 12.1562 197.617 12.1562C196.836 12.1562 196.206 11.9453 195.727 11.5234C195.253 11.0964 195.016 10.5417 195.016 9.85938C195.016 9.08333 195.365 8.46354 196.062 8C196.766 7.53125 197.698 7.29167 198.859 7.28125H200.945V6.04688C200.945 5.33854 200.721 4.78906 200.273 4.39844C199.831 4.00781 199.195 3.8125 198.367 3.8125C197.596 3.8125 196.953 4.01042 196.438 4.40625C195.922 4.80208 195.664 5.29167 195.664 5.875L195.242 5.85938C195.242 5.17188 195.544 4.58854 196.148 4.10938C196.753 3.63021 197.492 3.39062 198.367 3.39062C199.279 3.39062 200.003 3.61979 200.539 4.07812C201.076 4.53125 201.352 5.17188 201.367 6V10.0391C201.367 10.9661 201.44 11.5964 201.586 11.9297V12H201.102ZM197.617 11.7422C198.409 11.7422 199.089 11.5651 199.656 11.2109C200.229 10.8568 200.659 10.3594 200.945 9.71875V7.71094H198.992C197.784 7.71094 196.859 7.95052 196.219 8.42969C195.698 8.82031 195.438 9.30729 195.438 9.89062C195.438 10.4062 195.643 10.8438 196.055 11.2031C196.466 11.5625 196.987 11.7422 197.617 11.7422ZM206.555 11.3438L206.609 11.1875L209.531 3.54688H210L206.219 13.4688L206.031 13.9375C205.625 14.9219 204.953 15.4141 204.016 15.4141C203.714 15.4141 203.505 15.3854 203.391 15.3281L203.383 14.9297C203.549 14.9766 203.74 15 203.953 15C204.396 15 204.763 14.8698 205.055 14.6094C205.346 14.3542 205.599 13.9349 205.812 13.3516L206.328 11.9531L202.961 3.54688H203.422L206.555 11.3438ZM216.945 12C216.841 11.6406 216.789 11.125 216.789 10.4531C216.456 10.9948 216 11.4141 215.422 11.7109C214.844 12.0078 214.19 12.1562 213.461 12.1562C212.68 12.1562 212.049 11.9453 211.57 11.5234C211.096 11.0964 210.859 10.5417 210.859 9.85938C210.859 9.08333 211.208 8.46354 211.906 8C212.609 7.53125 213.542 7.29167 214.703 7.28125H216.789V6.04688C216.789 5.33854 216.565 4.78906 216.117 4.39844C215.674 4.00781 215.039 3.8125 214.211 3.8125C213.44 3.8125 212.797 4.01042 212.281 4.40625C211.766 4.80208 211.508 5.29167 211.508 5.875L211.086 5.85938C211.086 5.17188 211.388 4.58854 211.992 4.10938C212.596 3.63021 213.336 3.39062 214.211 3.39062C215.122 3.39062 215.846 3.61979 216.383 4.07812C216.919 4.53125 217.195 5.17188 217.211 6V10.0391C217.211 10.9661 217.284 11.5964 217.43 11.9297V12H216.945ZM213.461 11.7422C214.253 11.7422 214.932 11.5651 215.5 11.2109C216.073 10.8568 216.503 10.3594 216.789 9.71875V7.71094H214.836C213.628 7.71094 212.703 7.95052 212.062 8.42969C211.542 8.82031 211.281 9.30729 211.281 9.89062C211.281 10.4062 211.487 10.8438 211.898 11.2031C212.31 11.5625 212.831 11.7422 213.461 11.7422Z" fill="white"/>
</svg>
