<svg width="224" height="16" viewBox="0 0 224 16" fill="none" xmlns="http://www.w3.org/2000/svg">
<path d="M8.78125 7.1875C8.78125 7.97917 8.57552 8.58594 8.16406 9.00781C7.75781 9.42969 7.1875 9.64062 6.45312 9.64062C5.70312 9.64062 5.09896 9.36198 4.64062 8.80469C4.18229 8.24219 3.95312 7.5026 3.95312 6.58594V6C3.95312 5.09896 4.1849 4.36979 4.64844 3.8125C5.11198 3.25521 5.71354 2.97656 6.45312 2.97656C7.19792 2.97656 7.77344 3.19271 8.17969 3.625C8.58594 4.05208 8.78906 4.65104 8.78906 5.42188H8.38281C8.38281 4.73958 8.21615 4.23177 7.88281 3.89844C7.54948 3.5599 7.07292 3.39062 6.45312 3.39062C5.83333 3.39062 5.33333 3.63021 4.95312 4.10938C4.57292 4.58854 4.38281 5.23177 4.38281 6.03906V6.61719C4.38281 7.39323 4.57031 8.02083 4.94531 8.5C5.32552 8.97396 5.82812 9.21094 6.45312 9.21094C7.73438 9.21094 8.375 8.53646 8.375 7.1875H8.78125ZM1.39844 6.30469C1.39844 7.28385 1.6276 8.19531 2.08594 9.03906C2.54948 9.8776 3.17448 10.5365 3.96094 11.0156C4.7526 11.4948 5.60156 11.7344 6.50781 11.7344C7.42448 11.7344 8.27865 11.4896 9.07031 11C9.86198 10.5104 10.4844 9.84896 10.9375 9.01562C11.3906 8.17708 11.6172 7.27344 11.6172 6.30469C11.6172 5.33073 11.3906 4.42969 10.9375 3.60156C10.4844 2.76823 9.85938 2.10938 9.0625 1.625C8.27083 1.14062 7.41927 0.898438 6.50781 0.898438C5.60677 0.898438 4.76042 1.13542 3.96875 1.60938C3.17708 2.08333 2.54948 2.73958 2.08594 3.57812C1.6276 4.41146 1.39844 5.32031 1.39844 6.30469ZM0.960938 6.30469C0.960938 5.2526 1.20312 4.27604 1.6875 3.375C2.17708 2.47396 2.85156 1.76562 3.71094 1.25C4.57552 0.729167 5.50781 0.46875 6.50781 0.46875C7.50781 0.46875 8.4375 0.729167 9.29688 1.25C10.1615 1.76562 10.8359 2.47396 11.3203 3.375C11.8099 4.27604 12.0547 5.2526 12.0547 6.30469C12.0547 7.34115 11.8177 8.30729 11.3438 9.20312C10.8698 10.099 10.2005 10.8177 9.33594 11.3594C8.47656 11.8958 7.53385 12.1641 6.50781 12.1641C5.48177 12.1641 4.53646 11.8958 3.67188 11.3594C2.8125 10.8177 2.14583 10.099 1.67188 9.20312C1.19792 8.30729 0.960938 7.34115 0.960938 6.30469ZM18.9062 7.13281H14.9609V12H14.5391V0.625H18.1641C19.3047 0.625 20.2109 0.919271 20.8828 1.50781C21.5599 2.09635 21.8984 2.89583 21.8984 3.90625C21.8984 4.68229 21.6562 5.36198 21.1719 5.94531C20.6927 6.52344 20.0807 6.88281 19.3359 7.02344L22.375 11.8906V12H21.9297L18.9062 7.13281ZM14.9609 6.71094H18.5469C19.4219 6.71094 20.1276 6.44531 20.6641 5.91406C21.2057 5.38281 21.4766 4.71354 21.4766 3.90625C21.4766 3.02083 21.1771 2.32292 20.5781 1.8125C19.9844 1.30208 19.1693 1.04688 18.1328 1.04688H14.9609V6.71094ZM31.8594 9.27344C31.8594 8.78906 31.7448 8.38021 31.5156 8.04688C31.2917 7.70833 30.9349 7.41146 30.4453 7.15625C29.9609 6.89583 29.2266 6.63021 28.2422 6.35938C27.2578 6.08854 26.5182 5.8151 26.0234 5.53906C25.5339 5.26302 25.1745 4.94271 24.9453 4.57812C24.7161 4.21354 24.6016 3.77083 24.6016 3.25C24.6016 2.42188 24.9505 1.7526 25.6484 1.24219C26.3464 0.726562 27.2552 0.46875 28.375 0.46875C29.1042 0.46875 29.7578 0.611979 30.3359 0.898438C30.9193 1.17969 31.3698 1.57812 31.6875 2.09375C32.0052 2.60417 32.1641 3.18229 32.1641 3.82812H31.7422C31.7422 2.97917 31.4297 2.27865 30.8047 1.72656C30.1797 1.16927 29.3698 0.890625 28.375 0.890625C27.375 0.890625 26.5651 1.11458 25.9453 1.5625C25.3307 2.00521 25.0234 2.5625 25.0234 3.23438C25.0234 3.91667 25.2917 4.46615 25.8281 4.88281C26.3646 5.29948 27.25 5.66927 28.4844 5.99219C29.7188 6.3099 30.6224 6.67969 31.1953 7.10156C31.9245 7.63802 32.2891 8.35677 32.2891 9.25781C32.2891 9.83073 32.1276 10.3385 31.8047 10.7812C31.4818 11.2188 31.0234 11.5573 30.4297 11.7969C29.8359 12.0365 29.1693 12.1562 28.4297 12.1562C27.6068 12.1562 26.8672 12.0208 26.2109 11.75C25.5547 11.474 25.0599 11.0833 24.7266 10.5781C24.3984 10.0729 24.2344 9.47656 24.2344 8.78906H24.6562C24.6562 9.72135 25.0052 10.4453 25.7031 10.9609C26.401 11.4766 27.3099 11.7344 28.4297 11.7344C29.4245 11.7344 30.2448 11.5078 30.8906 11.0547C31.5365 10.5964 31.8594 10.0026 31.8594 9.27344ZM41.3281 9.27344C41.3281 8.78906 41.2135 8.38021 40.9844 8.04688C40.7604 7.70833 40.4036 7.41146 39.9141 7.15625C39.4297 6.89583 38.6953 6.63021 37.7109 6.35938C36.7266 6.08854 35.987 5.8151 35.4922 5.53906C35.0026 5.26302 34.6432 4.94271 34.4141 4.57812C34.1849 4.21354 34.0703 3.77083 34.0703 3.25C34.0703 2.42188 34.4193 1.7526 35.1172 1.24219C35.8151 0.726562 36.724 0.46875 37.8438 0.46875C38.5729 0.46875 39.2266 0.611979 39.8047 0.898438C40.388 1.17969 40.8385 1.57812 41.1562 2.09375C41.474 2.60417 41.6328 3.18229 41.6328 3.82812H41.2109C41.2109 2.97917 40.8984 2.27865 40.2734 1.72656C39.6484 1.16927 38.8385 0.890625 37.8438 0.890625C36.8438 0.890625 36.0339 1.11458 35.4141 1.5625C34.7995 2.00521 34.4922 2.5625 34.4922 3.23438C34.4922 3.91667 34.7604 4.46615 35.2969 4.88281C35.8333 5.29948 36.7188 5.66927 37.9531 5.99219C39.1875 6.3099 40.0911 6.67969 40.6641 7.10156C41.3932 7.63802 41.7578 8.35677 41.7578 9.25781C41.7578 9.83073 41.5964 10.3385 41.2734 10.7812C40.9505 11.2188 40.4922 11.5573 39.8984 11.7969C39.3047 12.0365 38.638 12.1562 37.8984 12.1562C37.0755 12.1562 36.3359 12.0208 35.6797 11.75C35.0234 11.474 34.5286 11.0833 34.1953 10.5781C33.8672 10.0729 33.7031 9.47656 33.7031 8.78906H34.125C34.125 9.72135 34.474 10.4453 35.1719 10.9609C35.8698 11.4766 36.7786 11.7344 37.8984 11.7344C38.8932 11.7344 39.7135 11.5078 40.3594 11.0547C41.0052 10.5964 41.3281 10.0026 41.3281 9.27344ZM46.6328 11.7344C47.3984 11.7344 48.0286 11.5312 48.5234 11.125C49.0234 10.7188 49.2969 10.1562 49.3438 9.4375H49.7656C49.724 10.2552 49.4089 10.9141 48.8203 11.4141C48.2318 11.9089 47.5026 12.1562 46.6328 12.1562C45.5755 12.1562 44.7344 11.7734 44.1094 11.0078C43.4896 10.2422 43.1797 9.20312 43.1797 7.89062V7.60938C43.1797 6.32812 43.4896 5.30469 44.1094 4.53906C44.7344 3.77344 45.5703 3.39062 46.6172 3.39062C47.513 3.39062 48.2526 3.65885 48.8359 4.19531C49.4193 4.73177 49.7292 5.44531 49.7656 6.33594H49.3438C49.3073 5.57552 49.0391 4.96615 48.5391 4.50781C48.0443 4.04427 47.4036 3.8125 46.6172 3.8125C45.6745 3.8125 44.9349 4.15365 44.3984 4.83594C43.8672 5.51302 43.6016 6.45573 43.6016 7.66406V7.9375C43.6016 9.11979 43.8698 10.0495 44.4062 10.7266C44.9479 11.3984 45.6901 11.7344 46.6328 11.7344ZM52.3125 5.51562C52.5885 4.85938 52.9948 4.34115 53.5312 3.96094C54.0677 3.58073 54.6615 3.39062 55.3125 3.39062C56.2188 3.39062 56.8906 3.64844 57.3281 4.16406C57.7708 4.67448 57.9948 5.44792 58 6.48438V12H57.5781V6.46875C57.5729 5.5625 57.388 4.89323 57.0234 4.46094C56.6589 4.02344 56.0807 3.80469 55.2891 3.80469C54.5599 3.80469 53.9271 4.0651 53.3906 4.58594C52.8594 5.10156 52.5 5.76823 52.3125 6.58594V12H51.8906V0H52.3125V5.51562ZM60.0156 7.60938C60.0156 6.80208 60.1693 6.07812 60.4766 5.4375C60.7891 4.79167 61.2266 4.28906 61.7891 3.92969C62.3568 3.57031 62.9974 3.39062 63.7109 3.39062C64.4193 3.39062 65.0547 3.5651 65.6172 3.91406C66.1797 4.26302 66.6172 4.75781 66.9297 5.39844C67.2474 6.03906 67.4089 6.76042 67.4141 7.5625V7.9375C67.4141 8.75 67.2604 9.47656 66.9531 10.1172C66.6458 10.7578 66.2083 11.2578 65.6406 11.6172C65.0781 11.9766 64.4401 12.1562 63.7266 12.1562C63.013 12.1562 62.3724 11.9792 61.8047 11.625C61.2422 11.2708 60.8047 10.776 60.4922 10.1406C60.1797 9.5 60.0208 8.78125 60.0156 7.98438V7.60938ZM60.4375 7.9375C60.4375 8.64062 60.5755 9.28646 60.8516 9.875C61.1328 10.4583 61.5208 10.9141 62.0156 11.2422C62.5156 11.5703 63.0859 11.7344 63.7266 11.7344C64.6901 11.7344 65.474 11.3724 66.0781 10.6484C66.6875 9.92448 66.9922 8.99219 66.9922 7.85156V7.60938C66.9922 6.91667 66.8516 6.27604 66.5703 5.6875C66.2891 5.09896 65.8984 4.64062 65.3984 4.3125C64.9036 3.97917 64.3411 3.8125 63.7109 3.8125C62.7474 3.8125 61.9609 4.17969 61.3516 4.91406C60.7422 5.64844 60.4375 6.57292 60.4375 7.6875V7.9375ZM68.8281 7.60938C68.8281 6.80208 68.9818 6.07812 69.2891 5.4375C69.6016 4.79167 70.0391 4.28906 70.6016 3.92969C71.1693 3.57031 71.8099 3.39062 72.5234 3.39062C73.2318 3.39062 73.8672 3.5651 74.4297 3.91406C74.9922 4.26302 75.4297 4.75781 75.7422 5.39844C76.0599 6.03906 76.2214 6.76042 76.2266 7.5625V7.9375C76.2266 8.75 76.0729 9.47656 75.7656 10.1172C75.4583 10.7578 75.0208 11.2578 74.4531 11.6172C73.8906 11.9766 73.2526 12.1562 72.5391 12.1562C71.8255 12.1562 71.1849 11.9792 70.6172 11.625C70.0547 11.2708 69.6172 10.776 69.3047 10.1406C68.9922 9.5 68.8333 8.78125 68.8281 7.98438V7.60938ZM69.25 7.9375C69.25 8.64062 69.388 9.28646 69.6641 9.875C69.9453 10.4583 70.3333 10.9141 70.8281 11.2422C71.3281 11.5703 71.8984 11.7344 72.5391 11.7344C73.5026 11.7344 74.2865 11.3724 74.8906 10.6484C75.5 9.92448 75.8047 8.99219 75.8047 7.85156V7.60938C75.8047 6.91667 75.6641 6.27604 75.3828 5.6875C75.1016 5.09896 74.7109 4.64062 74.2109 4.3125C73.7161 3.97917 73.1536 3.8125 72.5234 3.8125C71.5599 3.8125 70.7734 4.17969 70.1641 4.91406C69.5547 5.64844 69.25 6.57292 69.25 7.6875V7.9375ZM78.8047 12H78.3828V0H78.8047V12ZM87.3594 5.73438C86.901 5.17188 86.5703 4.66667 86.3672 4.21875C86.1693 3.77083 86.0703 3.32552 86.0703 2.88281C86.0703 2.14844 86.2891 1.5625 86.7266 1.125C87.1693 0.682292 87.7448 0.460938 88.4531 0.460938C89.1042 0.460938 89.625 0.653646 90.0156 1.03906C90.4115 1.41927 90.6094 1.91406 90.6094 2.52344C90.6094 3.23177 90.1198 3.99219 89.1406 4.80469L87.9219 5.77344L91.6328 9.98438C92.2318 9.15104 92.5312 8.17708 92.5312 7.0625H92.9609C92.9609 8.29688 92.6146 9.38021 91.9219 10.3125L93.4062 12H92.8828L91.6562 10.625C90.6354 11.6458 89.5339 12.1562 88.3516 12.1562C87.3047 12.1562 86.4766 11.8958 85.8672 11.375C85.263 10.849 84.9609 10.1406 84.9609 9.25C84.9609 8.73958 85.1068 8.23698 85.3984 7.74219C85.6953 7.24219 86.2161 6.67708 86.9609 6.04688L87.3594 5.73438ZM88.3516 11.7344C88.9297 11.7344 89.4792 11.612 90 11.3672C90.526 11.1172 90.987 10.763 91.3828 10.3047L87.6094 6.03125L87.2031 6.35156C86.5885 6.88281 86.1302 7.38021 85.8281 7.84375C85.5312 8.30729 85.3828 8.77604 85.3828 9.25C85.3828 9.98958 85.651 10.5885 86.1875 11.0469C86.7292 11.5052 87.4505 11.7344 88.3516 11.7344ZM86.5 2.86719C86.5 3.6901 86.8906 4.5625 87.6719 5.48438L89.0391 4.39844C89.7943 3.76823 90.1719 3.14323 90.1719 2.52344C90.1719 2.04427 90.0104 1.65104 89.6875 1.34375C89.3698 1.03646 88.9583 0.882812 88.4531 0.882812C87.8646 0.882812 87.3906 1.06771 87.0312 1.4375C86.6771 1.80208 86.5 2.27865 86.5 2.86719ZM106.422 7.1875C106.422 7.97917 106.216 8.58594 105.805 9.00781C105.398 9.42969 104.828 9.64062 104.094 9.64062C103.344 9.64062 102.74 9.36198 102.281 8.80469C101.823 8.24219 101.594 7.5026 101.594 6.58594V6C101.594 5.09896 101.826 4.36979 102.289 3.8125C102.753 3.25521 103.354 2.97656 104.094 2.97656C104.839 2.97656 105.414 3.19271 105.82 3.625C106.227 4.05208 106.43 4.65104 106.43 5.42188H106.023C106.023 4.73958 105.857 4.23177 105.523 3.89844C105.19 3.5599 104.714 3.39062 104.094 3.39062C103.474 3.39062 102.974 3.63021 102.594 4.10938C102.214 4.58854 102.023 5.23177 102.023 6.03906V6.61719C102.023 7.39323 102.211 8.02083 102.586 8.5C102.966 8.97396 103.469 9.21094 104.094 9.21094C105.375 9.21094 106.016 8.53646 106.016 7.1875H106.422ZM99.0391 6.30469C99.0391 7.28385 99.2682 8.19531 99.7266 9.03906C100.19 9.8776 100.815 10.5365 101.602 11.0156C102.393 11.4948 103.242 11.7344 104.148 11.7344C105.065 11.7344 105.919 11.4896 106.711 11C107.503 10.5104 108.125 9.84896 108.578 9.01562C109.031 8.17708 109.258 7.27344 109.258 6.30469C109.258 5.33073 109.031 4.42969 108.578 3.60156C108.125 2.76823 107.5 2.10938 106.703 1.625C105.911 1.14062 105.06 0.898438 104.148 0.898438C103.247 0.898438 102.401 1.13542 101.609 1.60938C100.818 2.08333 100.19 2.73958 99.7266 3.57812C99.2682 4.41146 99.0391 5.32031 99.0391 6.30469ZM98.6016 6.30469C98.6016 5.2526 98.8438 4.27604 99.3281 3.375C99.8177 2.47396 100.492 1.76562 101.352 1.25C102.216 0.729167 103.148 0.46875 104.148 0.46875C105.148 0.46875 106.078 0.729167 106.938 1.25C107.802 1.76562 108.477 2.47396 108.961 3.375C109.451 4.27604 109.695 5.2526 109.695 6.30469C109.695 7.34115 109.458 8.30729 108.984 9.20312C108.51 10.099 107.841 10.8177 106.977 11.3594C106.117 11.8958 105.174 12.1641 104.148 12.1641C103.122 12.1641 102.177 11.8958 101.312 11.3594C100.453 10.8177 99.7865 10.099 99.3125 9.20312C98.8385 8.30729 98.6016 7.34115 98.6016 6.30469ZM115.414 7.29688L119.398 0.625H119.914L115.625 7.67969V12H115.203V7.67969L110.914 0.625H111.477L115.414 7.29688ZM124.086 12.1562C123.404 12.1562 122.776 11.974 122.203 11.6094C121.635 11.2396 121.19 10.7344 120.867 10.0938C120.544 9.45312 120.383 8.74219 120.383 7.96094V7.60938C120.383 6.82812 120.539 6.11198 120.852 5.46094C121.164 4.8099 121.594 4.30208 122.141 3.9375C122.688 3.57292 123.284 3.39062 123.93 3.39062C124.872 3.39062 125.643 3.72656 126.242 4.39844C126.841 5.07031 127.141 5.95312 127.141 7.04688V7.49219H120.805V7.95312C120.805 8.64062 120.948 9.27865 121.234 9.86719C121.526 10.4505 121.924 10.9089 122.43 11.2422C122.94 11.5755 123.492 11.7422 124.086 11.7422C124.654 11.7422 125.135 11.6484 125.531 11.4609C125.932 11.2682 126.286 10.974 126.594 10.5781L126.891 10.7891C126.26 11.7005 125.326 12.1562 124.086 12.1562ZM123.93 3.8125C123.107 3.8125 122.409 4.11979 121.836 4.73438C121.263 5.34375 120.927 6.1224 120.828 7.07031H126.719V6.96875C126.719 6.39583 126.596 5.86458 126.352 5.375C126.112 4.88021 125.779 4.4974 125.352 4.22656C124.93 3.95052 124.456 3.8125 123.93 3.8125ZM135.156 12H134.734V6.32031C134.729 5.47135 134.542 4.84115 134.172 4.42969C133.807 4.01302 133.224 3.80469 132.422 3.80469C131.495 3.80469 130.737 4.21354 130.148 5.03125C129.799 5.52083 129.568 6.0625 129.453 6.65625V12H129.023V3.54688H129.453V5.54688C129.74 4.85938 130.148 4.32812 130.68 3.95312C131.211 3.57812 131.799 3.39062 132.445 3.39062C133.154 3.39062 133.732 3.54688 134.18 3.85938C134.633 4.17188 134.93 4.68229 135.07 5.39062C135.32 4.78125 135.727 4.29688 136.289 3.9375C136.852 3.57292 137.482 3.39062 138.18 3.39062C139.091 3.39062 139.768 3.64844 140.211 4.16406C140.659 4.67969 140.885 5.45312 140.891 6.48438V12H140.469V6.51562C140.469 5.58854 140.281 4.90365 139.906 4.46094C139.536 4.01302 138.953 3.79427 138.156 3.80469C137.13 3.82031 136.318 4.22917 135.719 5.03125C135.375 5.49479 135.188 5.94271 135.156 6.375V12ZM147.5 12V0.625H150.648C151.529 0.625 152.326 0.833333 153.039 1.25C153.753 1.66667 154.312 2.2526 154.719 3.00781C155.125 3.75781 155.333 4.59896 155.344 5.53125V7.00781C155.344 7.95573 155.143 8.8099 154.742 9.57031C154.346 10.3307 153.792 10.9245 153.078 11.3516C152.365 11.7786 151.568 11.9948 150.688 12H147.5ZM147.922 1.04688V11.5781H150.648C151.445 11.5781 152.169 11.3854 152.82 11C153.477 10.6094 153.99 10.0677 154.359 9.375C154.729 8.67708 154.917 7.90365 154.922 7.05469V5.59375C154.922 4.74479 154.74 3.97396 154.375 3.28125C154.016 2.58854 153.51 2.04688 152.859 1.65625C152.214 1.26042 151.497 1.05729 150.711 1.04688H147.922ZM158.273 12H157.852V3.54688H158.273V12ZM157.633 0.90625C157.633 0.786458 157.674 0.684896 157.758 0.601562C157.841 0.513021 157.943 0.46875 158.062 0.46875C158.182 0.46875 158.284 0.513021 158.367 0.601562C158.456 0.684896 158.5 0.786458 158.5 0.90625C158.5 1.02604 158.456 1.1276 158.367 1.21094C158.284 1.29427 158.182 1.33594 158.062 1.33594C157.943 1.33594 157.841 1.29427 157.758 1.21094C157.674 1.1276 157.633 1.02604 157.633 0.90625ZM160.648 7.6875C160.648 6.33854 160.932 5.28646 161.5 4.53125C162.068 3.77083 162.846 3.39062 163.836 3.39062C164.466 3.39062 165.026 3.53646 165.516 3.82812C166.005 4.11458 166.398 4.53646 166.695 5.09375V3.54688H167.125V11.8516C167.125 12.9661 166.839 13.8359 166.266 14.4609C165.693 15.0911 164.914 15.4062 163.93 15.4062C163.362 15.4062 162.841 15.2839 162.367 15.0391C161.898 14.7943 161.497 14.4427 161.164 13.9844L161.461 13.7031C161.789 14.1198 162.148 14.4375 162.539 14.6562C162.93 14.8802 163.388 14.9922 163.914 14.9922C164.784 14.9922 165.461 14.7266 165.945 14.1953C166.43 13.6693 166.68 12.9245 166.695 11.9609V10.6641C166.404 11.1432 166.008 11.513 165.508 11.7734C165.013 12.0286 164.451 12.1562 163.82 12.1562C162.841 12.1562 162.068 11.7682 161.5 10.9922C160.932 10.2161 160.648 9.15104 160.648 7.79688V7.6875ZM161.078 7.85156C161.078 9.0599 161.318 10.0104 161.797 10.7031C162.276 11.3906 162.948 11.7344 163.812 11.7344C164.526 11.7344 165.133 11.5703 165.633 11.2422C166.133 10.9089 166.487 10.4427 166.695 9.84375V6.00781C166.237 4.54427 165.281 3.8125 163.828 3.8125C162.958 3.8125 162.281 4.15365 161.797 4.83594C161.318 5.51823 161.078 6.52344 161.078 7.85156ZM170.352 12H169.93V3.54688H170.352V12ZM169.711 0.90625C169.711 0.786458 169.753 0.684896 169.836 0.601562C169.919 0.513021 170.021 0.46875 170.141 0.46875C170.26 0.46875 170.362 0.513021 170.445 0.601562C170.534 0.684896 170.578 0.786458 170.578 0.90625C170.578 1.02604 170.534 1.1276 170.445 1.21094C170.362 1.29427 170.26 1.33594 170.141 1.33594C170.021 1.33594 169.919 1.29427 169.836 1.21094C169.753 1.1276 169.711 1.02604 169.711 0.90625ZM174.07 1.26562V3.54688H175.992V3.97656H174.07V9.97656C174.07 10.5755 174.167 11.0182 174.359 11.3047C174.557 11.5911 174.885 11.7344 175.344 11.7344C175.573 11.7344 175.852 11.7109 176.18 11.6641L176.25 12.0625C176.078 12.125 175.784 12.1562 175.367 12.1562C174.753 12.1562 174.312 11.987 174.047 11.6484C173.781 11.3047 173.646 10.7656 173.641 10.0312V3.97656H172.078V3.54688H173.641V1.26562H174.07ZM183.648 12C183.544 11.6406 183.492 11.125 183.492 10.4531C183.159 10.9948 182.703 11.4141 182.125 11.7109C181.547 12.0078 180.893 12.1562 180.164 12.1562C179.383 12.1562 178.753 11.9453 178.273 11.5234C177.799 11.0964 177.562 10.5417 177.562 9.85938C177.562 9.08333 177.911 8.46354 178.609 8C179.312 7.53125 180.245 7.29167 181.406 7.28125H183.492V6.04688C183.492 5.33854 183.268 4.78906 182.82 4.39844C182.378 4.00781 181.742 3.8125 180.914 3.8125C180.143 3.8125 179.5 4.01042 178.984 4.40625C178.469 4.80208 178.211 5.29167 178.211 5.875L177.789 5.85938C177.789 5.17188 178.091 4.58854 178.695 4.10938C179.299 3.63021 180.039 3.39062 180.914 3.39062C181.826 3.39062 182.549 3.61979 183.086 4.07812C183.622 4.53125 183.898 5.17188 183.914 6V10.0391C183.914 10.9661 183.987 11.5964 184.133 11.9297V12H183.648ZM180.164 11.7422C180.956 11.7422 181.635 11.5651 182.203 11.2109C182.776 10.8568 183.206 10.3594 183.492 9.71875V7.71094H181.539C180.331 7.71094 179.406 7.95052 178.766 8.42969C178.245 8.82031 177.984 9.30729 177.984 9.89062C177.984 10.4062 178.19 10.8438 178.602 11.2031C179.013 11.5625 179.534 11.7422 180.164 11.7422ZM187.164 12H186.742V0H187.164V12ZM200.422 12H193.617V11.5781L197.5 7.10156C198.135 6.35677 198.607 5.69531 198.914 5.11719C199.227 4.53906 199.383 4.00781 199.383 3.52344C199.383 2.6901 199.141 2.04427 198.656 1.58594C198.172 1.1224 197.49 0.890625 196.609 0.890625C196.078 0.890625 195.594 1.01823 195.156 1.27344C194.719 1.52865 194.375 1.88281 194.125 2.33594C193.88 2.78385 193.758 3.28385 193.758 3.83594H193.336C193.336 3.22656 193.477 2.66146 193.758 2.14062C194.039 1.61979 194.43 1.21094 194.93 0.914062C195.43 0.617188 195.99 0.46875 196.609 0.46875C197.62 0.46875 198.406 0.736979 198.969 1.27344C199.531 1.8099 199.812 2.5599 199.812 3.52344C199.812 4.40885 199.315 5.46875 198.32 6.70312L197.609 7.57031L194.172 11.5781H200.422V12ZM208.969 7.35938C208.969 8.88542 208.672 10.0677 208.078 10.9062C207.484 11.7396 206.651 12.1562 205.578 12.1562C204.51 12.1562 203.674 11.7344 203.07 10.8906C202.466 10.0469 202.164 8.85938 202.164 7.32812V5.26562C202.164 3.75521 202.461 2.57812 203.055 1.73438C203.654 0.885417 204.49 0.460938 205.562 0.460938C206.641 0.460938 207.477 0.885417 208.07 1.73438C208.669 2.57812 208.969 3.76562 208.969 5.29688V7.35938ZM208.547 5.26562C208.547 3.88542 208.286 2.8099 207.766 2.03906C207.25 1.26823 206.516 0.882812 205.562 0.882812C204.604 0.882812 203.867 1.27083 203.352 2.04688C202.841 2.81771 202.586 3.90365 202.586 5.30469V7.34375C202.586 8.71875 202.849 9.79427 203.375 10.5703C203.901 11.3464 204.635 11.7344 205.578 11.7344C206.526 11.7344 207.258 11.3464 207.773 10.5703C208.289 9.79427 208.547 8.70573 208.547 7.30469V5.26562ZM217.953 12H211.148V11.5781L215.031 7.10156C215.667 6.35677 216.138 5.69531 216.445 5.11719C216.758 4.53906 216.914 4.00781 216.914 3.52344C216.914 2.6901 216.672 2.04427 216.188 1.58594C215.703 1.1224 215.021 0.890625 214.141 0.890625C213.609 0.890625 213.125 1.01823 212.688 1.27344C212.25 1.52865 211.906 1.88281 211.656 2.33594C211.411 2.78385 211.289 3.28385 211.289 3.83594H210.867C210.867 3.22656 211.008 2.66146 211.289 2.14062C211.57 1.61979 211.961 1.21094 212.461 0.914062C212.961 0.617188 213.521 0.46875 214.141 0.46875C215.151 0.46875 215.938 0.736979 216.5 1.27344C217.062 1.8099 217.344 2.5599 217.344 3.52344C217.344 4.40885 216.846 5.46875 215.852 6.70312L215.141 7.57031L211.703 11.5781H217.953V12ZM223.867 12H223.445V1.15625L220.18 2.38281V1.92188L223.781 0.59375H223.867V12Z" fill="white"/>
</svg>
